<svg width="181" height="36" viewBox="0 0 181 36" fill="none" xmlns="http://www.w3.org/2000/svg">
<path d="M180.434 11.9307C180.931 11.6911 181.141 11.0935 180.901 10.5959L176.996 2.48699C176.757 1.98939 176.159 1.78024 175.662 2.01984C175.164 2.25945 174.955 2.85707 175.194 3.35467L178.665 10.5626L171.457 14.0333C170.96 14.2729 170.75 14.8705 170.99 15.3681C171.23 15.8657 171.827 16.0749 172.325 15.8353L180.434 11.9307ZM60.3622 23.7489L61.1519 23.1354L60.3622 23.7489ZM137.99 1.40433L138.043 0.405742L137.99 1.40433ZM46.6633 1.40434L46.6801 0.40448L46.6633 1.40434ZM114.702 21.3426L113.832 20.8479L114.702 21.3426ZM180 11.0297C180.33 10.0859 180.33 10.0859 180.33 10.0859C180.33 10.0859 180.33 10.0858 180.33 10.0858C180.33 10.0858 180.33 10.0858 180.33 10.0858C180.33 10.0857 180.33 10.0857 180.33 10.0856C180.329 10.0854 180.329 10.0852 180.328 10.085C180.326 10.0844 180.324 10.0836 180.321 10.0826C180.315 10.0805 180.306 10.0774 180.294 10.0734C180.271 10.0653 180.237 10.0534 180.192 10.0378C180.101 10.0066 179.968 9.96063 179.794 9.90126C179.445 9.78252 178.934 9.61004 178.28 9.39425L177.653 11.2934C178.3 11.5071 178.806 11.6775 179.149 11.7944C179.32 11.8528 179.451 11.8978 179.539 11.9281C179.583 11.9433 179.616 11.9548 179.638 11.9624C179.648 11.9662 179.657 11.9691 179.662 11.9709C179.665 11.9719 179.667 11.9726 179.668 11.973C179.669 11.9732 179.669 11.9734 179.669 11.9735C179.67 11.9735 179.67 11.9736 179.67 11.9736C179.67 11.9736 179.67 11.9736 179.67 11.9736C179.67 11.9736 179.67 11.9736 179.67 11.9736C179.67 11.9736 179.67 11.9736 180 11.0297ZM174.138 8.06893C172.894 7.68265 171.498 7.2593 169.985 6.81598L169.422 8.73539C170.925 9.17539 172.311 9.5956 173.545 9.97897L174.138 8.06893ZM165.81 5.63116C164.464 5.2612 163.06 4.8879 161.618 4.5199L161.123 6.45783C162.553 6.82256 163.944 7.1927 165.281 7.55971L165.81 5.63116ZM157.396 3.48865C155.998 3.16271 154.578 2.84841 153.153 2.55275L152.747 4.5111C154.155 4.80313 155.558 5.11387 156.943 5.43647L157.396 3.48865ZM148.879 1.7305C147.432 1.47528 145.992 1.24628 144.573 1.05096L144.3 3.03229C145.692 3.22378 147.107 3.44871 148.531 3.70008L148.879 1.7305ZM140.226 0.55899C139.488 0.495334 138.759 0.443836 138.043 0.405742L137.937 2.40292C138.629 2.43976 139.336 2.48968 140.055 2.5516L140.226 0.55899ZM138.043 0.405742C137.413 0.37225 136.773 0.340591 136.122 0.310852L136.031 2.30877C136.677 2.33828 137.312 2.3697 137.937 2.40292L138.043 0.405742ZM132.234 0.160378C130.966 0.119858 129.668 0.0865065 128.346 0.06091L128.307 2.06053C129.621 2.08597 130.91 2.11911 132.17 2.15936L132.234 0.160378ZM124.466 0.00909909C123.189 -0.000376503 121.894 -0.00256221 120.587 0.00302643L120.595 2.00301C121.895 1.99745 123.182 1.99963 124.451 2.00904L124.466 0.00909909ZM116.706 0.0423182C115.42 0.0629024 114.125 0.0911923 112.825 0.127642L112.881 2.12686C114.173 2.09064 115.46 2.06252 116.738 2.04206L116.706 0.0423182ZM108.944 0.260561C107.651 0.313017 106.357 0.373873 105.064 0.443568L105.172 2.44067C106.456 2.37147 107.741 2.31103 109.025 2.25892L108.944 0.260561ZM101.186 0.68016C99.8881 0.768848 98.595 0.866992 97.3108 0.975036L97.4785 2.96799C98.7518 2.86087 100.034 2.76351 101.323 2.67551L101.186 0.68016ZM93.4386 1.33437C92.135 1.46711 90.8445 1.6109 89.5712 1.76625L89.8134 3.75153C91.0728 3.59788 92.35 3.45555 93.6412 3.32408L93.4386 1.33437ZM85.7111 2.28135C84.4032 2.47172 83.1187 2.67569 81.8627 2.89388L82.205 4.86438C83.4417 4.64954 84.708 4.44843 85.9992 4.2605L85.7111 2.28135ZM78.0334 3.62309C76.722 3.89655 75.4501 4.18819 74.2242 4.49888L74.7156 6.43759C75.9112 6.13455 77.1552 5.84923 78.4417 5.58098L78.0334 3.62309ZM70.4315 5.57027C69.122 5.9831 67.8823 6.42422 66.7236 6.89542L67.477 8.74808C68.5788 8.30002 69.767 7.87679 71.0328 7.47774L70.4315 5.57027ZM63.105 8.62029C61.8311 9.33906 60.7073 10.1224 59.7694 10.9784L61.1178 12.4556C61.9198 11.7236 62.9131 11.0249 64.0878 10.3621L63.105 8.62029ZM57.248 14.4146C56.6842 15.7674 56.5242 17.2244 56.8094 18.7662L58.7761 18.4024C58.5597 17.233 58.683 16.1704 59.0941 15.184L57.248 14.4146ZM58.3912 22.6655C58.7333 23.2234 59.127 23.7889 59.5726 24.3625L61.1519 23.1354C60.7467 22.6139 60.3959 22.1088 60.0961 21.6199L58.3912 22.6655ZM59.5726 24.3625C59.9885 24.8978 60.4194 25.413 60.8642 25.9083L62.3522 24.5719C61.939 24.1118 61.5386 23.6332 61.1519 23.1354L59.5726 24.3625ZM63.7609 28.7015C64.7995 29.5684 65.889 30.3511 67.0204 31.0532L68.075 29.3539C67.0208 28.6996 66.0073 27.9714 65.0424 27.1661L63.7609 28.7015ZM70.5629 32.9361C71.7814 33.4848 73.0328 33.9548 74.3075 34.3501L74.8998 32.4398C73.6998 32.0677 72.5251 31.6262 71.3841 31.1124L70.5629 32.9361ZM78.1828 35.3138C79.4876 35.5625 80.8067 35.7413 82.1312 35.8539L82.3006 33.8611C81.0424 33.7541 79.7917 33.5845 78.5573 33.3492L78.1828 35.3138ZM86.1073 35.997C87.4355 35.9812 88.7609 35.9027 90.0746 35.7652L89.8665 33.7761C88.6128 33.9073 87.3489 33.982 86.0834 33.9971L86.1073 35.997ZM94.0022 35.1733C95.3126 34.9148 96.6021 34.598 97.8614 34.2268L97.2958 32.3084C96.0957 32.6622 94.8657 32.9644 93.615 33.2112L94.0022 35.1733ZM101.619 32.9207C102.871 32.4156 104.08 31.8535 105.234 31.2384L104.294 29.4734C103.205 30.0539 102.06 30.5863 100.871 31.066L101.619 32.9207ZM108.65 29.1472C109.775 28.3575 110.822 27.5079 111.775 26.6031L110.398 25.1528C109.522 25.9847 108.552 26.7727 107.501 27.5103L108.65 29.1472ZM114.46 23.5574C114.865 22.9993 115.236 22.4257 115.571 21.8373L113.832 20.8479C113.535 21.3699 113.204 21.8823 112.841 22.3839L114.46 23.5574ZM115.571 21.8373C115.95 21.1713 116.249 20.5144 116.467 19.8664L114.572 19.2284C114.399 19.7399 114.156 20.2794 113.832 20.8479L115.571 21.8373ZM116.627 15.4127C116.219 14.0297 115.381 12.8052 114.242 11.7244L112.865 13.1751C113.815 14.0765 114.423 15.0109 114.709 15.979L116.627 15.4127ZM110.847 9.30949C109.741 8.6962 108.506 8.12931 107.167 7.60428L106.437 9.46641C107.712 9.96608 108.863 10.4967 109.878 11.0588L110.847 9.30949ZM103.386 6.30868C102.166 5.9411 100.883 5.59676 99.5478 5.27405L99.0779 7.21806C100.382 7.53327 101.629 7.86813 102.81 8.22374L103.386 6.30868ZM95.6723 4.424C94.4083 4.17233 93.109 3.93627 91.7807 3.71479L91.4518 5.68756C92.7615 5.90593 94.0402 6.13829 95.2817 6.3855L95.6723 4.424ZM87.8815 3.11648C86.5954 2.93504 85.2889 2.76541 83.9675 2.60681L83.7292 4.59256C85.038 4.74964 86.3307 4.9175 87.6021 5.09687L87.8815 3.11648ZM80.0483 2.17201C78.75 2.03911 77.4421 1.91575 76.1295 1.80121L75.9556 3.79364C77.259 3.90737 78.5569 4.0298 79.8447 4.16161L80.0483 2.17201ZM72.2053 1.48518C70.8955 1.3881 69.5854 1.29906 68.2794 1.21738L68.1546 3.21348C69.4533 3.29471 70.7558 3.38323 72.0575 3.47971L72.2053 1.48518ZM64.3545 0.992491C63.033 0.923453 61.7206 0.861392 60.4222 0.805591L60.3364 2.80375C61.629 2.8593 62.9352 2.92107 64.2501 2.98977L64.3545 0.992491ZM56.4914 0.6534C55.1608 0.607368 53.8511 0.567451 52.568 0.532818L52.514 2.53209C53.7924 2.56659 55.0971 2.60636 56.4223 2.6522L56.4914 0.6534ZM48.6327 0.440476C47.9721 0.427231 47.3209 0.415276 46.6801 0.40448L46.6464 2.40419C47.2852 2.41496 47.9342 2.42687 48.5926 2.44007L48.6327 0.440476ZM46.6801 0.40448C46.0258 0.393456 45.3755 0.387295 44.7295 0.385758L44.7247 2.38575C45.3612 2.38726 46.0019 2.39333 46.6464 2.40419L46.6801 0.40448ZM40.8332 0.43205C39.5162 0.466336 38.2196 0.518861 36.9455 0.587438L37.053 2.58455C38.3092 2.51694 39.5872 2.46517 40.8852 2.43137L40.8332 0.43205ZM33.0598 0.849855C31.7379 0.957174 30.4443 1.08055 29.1815 1.21724L29.3967 3.20563C30.6423 3.0708 31.9181 2.94913 33.2216 2.84329L33.0598 0.849855ZM25.3163 1.68758C23.9909 1.8667 22.7062 2.05868 21.4655 2.25979L21.7855 4.23402C23.0094 4.03563 24.2767 3.84625 25.5841 3.66957L25.3163 1.68758ZM17.632 2.93339C16.2959 3.1865 15.0246 3.44669 13.8234 3.70804L14.2486 5.66232C15.4328 5.40467 16.6865 5.14808 18.0043 4.89844L17.632 2.93339ZM10.022 4.5911C8.6246 4.93689 7.36506 5.27263 6.25616 5.5838L6.79652 7.50942C7.88644 7.20357 9.12597 6.87314 10.5024 6.53255L10.022 4.5911ZM2.51289 6.70859C1.91131 6.90302 1.44899 7.06033 1.1355 7.16962C0.978742 7.22426 0.859189 7.2669 0.778043 7.29618C0.737455 7.31081 0.70648 7.32211 0.685255 7.3299C0.674634 7.33379 0.666456 7.3368 0.660734 7.33892C0.657865 7.33998 0.655622 7.34081 0.653989 7.34141C0.653165 7.34172 0.652509 7.34196 0.652006 7.34215C0.651746 7.34225 0.651533 7.34233 0.651365 7.34239C0.651273 7.34242 0.651197 7.34245 0.651121 7.34248C0.65109 7.34249 0.651044 7.34251 0.651029 7.34251C0.650983 7.34253 0.650938 7.34254 0.999998 8.27965C1.34906 9.21675 1.34903 9.21676 1.349 9.21677C1.34898 9.21678 1.34895 9.21679 1.34894 9.21679C1.34891 9.2168 1.34889 9.21681 1.34887 9.21682C1.34886 9.21682 1.34887 9.21682 1.34892 9.2168C1.34903 9.21676 1.3493 9.21666 1.34971 9.21651C1.35055 9.21619 1.352 9.21566 1.35406 9.2149C1.35817 9.21338 1.36474 9.21096 1.37373 9.20766C1.39172 9.20106 1.41943 9.19096 1.45669 9.17751C1.53123 9.15063 1.64401 9.11039 1.79385 9.05815C2.09355 8.95367 2.54143 8.80123 3.12796 8.61166L2.51289 6.70859Z" fill="#2B95ED"/>
</svg>
