<svg width="104" height="90" viewBox="0 0 104 90" fill="none" xmlns="http://www.w3.org/2000/svg">
<path d="M50.701 4.25L51.4777 1.70866L52 1.54902L52.5223 1.70865L53.299 4.25001L52 4.64706L50.701 4.25ZM52.2524 7.66796L54.1651 7.08334L55.0311 9.91667L53.1184 10.5013L53.9845 13.3346L55.8971 12.75L56.7631 15.5833L54.8505 16.1679L55.7165 19.0013L57.6292 18.4167L58.4952 21.25L56.5825 21.8346L57.4486 24.6679L59.3612 24.0833L60.2272 26.9167L58.3146 27.5013L59.1806 30.3346L61.0933 29.75L61.9593 32.5833L60.0466 33.1679L60.9127 36.0013L62.8253 35.4167L63.6913 38.25L61.7787 38.8346L62.6447 41.6679L64.5574 41.0833L65.4234 43.9167L63.5107 44.5013L64.3768 47.3346L66.2894 46.75L67.1554 49.5833L65.2428 50.1679L65.6758 51.5846L65.8108 52.0263L66.1258 52.3641L67.1362 53.4474L68.5988 52.0833L70.6195 54.25L69.1569 55.6141L71.1777 57.7808L72.6403 56.4167L74.661 58.5833L73.1984 59.9474L75.2191 62.1141L76.6817 60.75L78.7024 62.9167L77.2398 64.2808L79.2606 66.4474L80.7232 65.0833L82.7439 67.25L81.2813 68.6141L83.302 70.7808L84.7646 69.4167L86.7854 71.5833L85.3227 72.9474L87.3435 75.1141L88.8061 73.75L90.8268 75.9167L89.3642 77.2808L91.3849 79.4474L92.8475 78.0833L94.8683 80.25L93.4056 81.6141L95.4264 83.7808L96.889 82.4167L98.9097 84.5833L97.4471 85.9474L98.0361 86.5789L97.1947 86.3846L96.7446 88.3333L93.8579 87.6667L94.3079 85.718L91.4212 85.0513L90.9711 87L88.0844 86.3333L88.5344 84.3846L85.6477 83.718L85.1976 85.6667L82.3109 85L82.7609 83.0513L79.8742 82.3846L79.4241 84.3333L76.5374 83.6667L76.9874 81.718L74.1007 81.0513L73.6506 83L70.7639 82.3333L71.2139 80.3846L68.3272 79.718L67.8771 81.6667L64.9904 81L65.4404 79.0513L62.5537 78.3846L62.1036 80.3333L59.2169 79.6667L59.6669 77.718L56.7802 77.0513L56.3301 79L53.4434 78.3333L53.8934 76.3846L52.45 76.0513L52 75.9474L51.55 76.0513L50.1066 76.3846L50.5566 78.3333L47.6699 79L47.2198 77.0513L44.3331 77.718L44.7831 79.6667L41.8964 80.3333L41.4463 78.3846L38.5596 79.0513L39.0096 81L36.1229 81.6667L35.6728 79.718L32.7861 80.3846L33.2361 82.3333L30.3494 83L29.8993 81.0513L27.0126 81.718L27.4626 83.6667L24.5759 84.3333L24.1258 82.3846L21.2391 83.0513L21.6891 85L18.8024 85.6667L18.3523 83.718L15.4656 84.3846L15.9156 86.3333L13.0289 87L12.5788 85.0513L9.69207 85.718L10.1421 87.6667L7.25535 88.3333L6.80532 86.3846L5.96394 86.5789L6.55291 85.9474L5.0903 84.5833L7.11102 82.4167L8.57364 83.7808L10.5944 81.6141L9.13175 80.25L11.1525 78.0833L12.6151 79.4474L14.6358 77.2808L13.1732 75.9167L15.1939 73.75L16.6565 75.1141L18.6773 72.9474L17.2146 71.5833L19.2354 69.4167L20.698 70.7808L22.7187 68.6141L21.2561 67.25L23.2768 65.0833L24.7394 66.4474L26.7602 64.2808L25.2976 62.9167L27.3183 60.75L28.7809 62.1141L30.8016 59.9474L29.339 58.5833L31.3597 56.4167L32.8223 57.7808L34.8431 55.6141L33.3805 54.25L35.4012 52.0833L36.8638 53.4474L37.8742 52.3641L38.1892 52.0263L38.3242 51.5846L38.7572 50.1679L36.8446 49.5833L37.7106 46.75L39.6232 47.3346L40.4893 44.5013L38.5766 43.9167L39.4426 41.0833L41.3553 41.6679L42.2213 38.8346L40.3087 38.25L41.1747 35.4167L43.0873 36.0013L43.9534 33.1679L42.0407 32.5833L42.9067 29.75L44.8194 30.3346L45.6854 27.5013L43.7728 26.9167L44.6388 24.0833L46.5514 24.6679L47.4175 21.8346L45.5048 21.25L46.3708 18.4167L48.2835 19.0013L49.1495 16.1679L47.2369 15.5833L48.1029 12.75L50.0155 13.3346L50.8816 10.5013L48.9689 9.91667L49.8349 7.08333L51.7476 7.66795L52 6.84213L52.2524 7.66796ZM99.937 87.6765L100.93 86.75L102.743 88.6934L102.62 89.2255L102.221 89.598L99.6314 89L99.937 87.6765ZM4.06294 87.6765L4.3686 89L1.77935 89.598L1.37996 89.2255L1.25708 88.6934L3.06957 86.75L4.06294 87.6765Z" stroke="#1DDDDF" stroke-width="4" stroke-dasharray="3 3"/>
</svg>
