<svg width="37" height="44" viewBox="0 0 37 44" fill="none" xmlns="http://www.w3.org/2000/svg">
<path d="M30.5309 23.6327C30.4803 18.1536 35.1322 15.488 35.3449 15.3639C32.7104 11.6188 28.6269 11.1071 27.1919 11.0663C23.7623 10.7144 20.4355 13.0672 18.6884 13.0672C16.9065 13.0672 14.2161 11.1003 11.3165 11.1581C7.58523 11.2142 4.09456 13.3205 2.1801 16.5913C-1.77087 23.2604 1.1758 33.0609 4.96113 38.4516C6.85467 41.0917 9.06728 44.0395 11.9634 43.9358C14.7967 43.8219 15.8551 42.1746 19.2743 42.1746C22.6621 42.1746 23.6559 43.9358 26.6095 43.8695C29.6504 43.8219 31.5648 41.2175 33.3921 38.5536C35.5803 35.5276 36.4591 32.5475 36.4939 32.3945C36.4225 32.3707 30.5884 30.1998 30.5309 23.6327Z" fill="white"/>
<path d="M24.9514 7.52015C26.4753 5.66205 27.5179 3.13415 27.2285 0.568848C25.0229 0.664048 22.2645 2.05635 20.6761 3.87365C19.2708 5.47505 18.0154 8.09985 18.3397 10.5682C20.8173 10.7484 23.3612 9.34935 24.9514 7.52015Z" fill="white"/>
</svg>
