<svg width="144" height="600" viewBox="0 0 144 600" fill="none" xmlns="http://www.w3.org/2000/svg">
<path d="M0 16.9889V26.2265L32.7064 0H21.1864L0 16.9889Z" fill="#1DDDDF"/>
<path d="M52.3633 0L0 41.9889V51.2265L63.8833 0H52.3633Z" fill="#1DDDDF"/>
<path d="M83.5403 0L0 66.9889V76.2265L95.0603 0H83.5403Z" fill="#1DDDDF"/>
<path d="M114.717 0L0 91.9889V101.226L126.237 0H114.717Z" fill="#1DDDDF"/>
<path d="M144 1.51882L0 116.989V126.226L144 10.7564V1.51882Z" fill="#1DDDDF"/>
<path d="M144 26.5188L0 141.989V151.226L144 35.7564V26.5188Z" fill="#1DDDDF"/>
<path d="M144 51.5188L0 166.989V176.226L144 60.7564V51.5188Z" fill="#1DDDDF"/>
<path d="M144 76.5188L0 191.989V201.226L144 85.7564V76.5188Z" fill="#1DDDDF"/>
<path d="M144 101.519L0 216.989V226.226L144 110.756V101.519Z" fill="#1DDDDF"/>
<path d="M144 126.519L0 241.989V251.226L144 135.756V126.519Z" fill="#1DDDDF"/>
<path d="M144 151.519L0 266.989V276.226L144 160.756V151.519Z" fill="#1DDDDF"/>
<path d="M144 176.519L0 291.989V300H1.5295L144 185.756V176.519Z" fill="#1DDDDF"/>
<path d="M144 201.519L21.1864 300H32.7064L144 210.756V201.519Z" fill="#1DDDDF"/>
<path d="M144 226.519L52.3634 300H63.8833L144 235.756V226.519Z" fill="#1DDDDF"/>
<path d="M144 251.519L83.5403 300H95.0602L144 260.756V251.519Z" fill="#1DDDDF"/>
<path d="M144 276.519L114.717 300H126.237L144 285.756V276.519Z" fill="#1DDDDF"/>
<path d="M0 316.989V326.226L32.7064 300H21.1864L0 316.989Z" fill="#1DDDDF"/>
<path d="M52.3633 300L0 341.989V351.226L63.8833 300H52.3633Z" fill="#1DDDDF"/>
<path d="M83.5403 300L0 366.989V376.226L95.0603 300H83.5403Z" fill="#1DDDDF"/>
<path d="M114.717 300L0 391.989V401.226L126.237 300H114.717Z" fill="#1DDDDF"/>
<path d="M144 301.519L0 416.989V426.226L144 310.756V301.519Z" fill="#1DDDDF"/>
<path d="M144 326.519L0 441.989V451.226L144 335.756V326.519Z" fill="#1DDDDF"/>
<path d="M144 351.519L0 466.989V476.226L144 360.756V351.519Z" fill="#1DDDDF"/>
<path d="M144 376.519L0 491.989V501.226L144 385.756V376.519Z" fill="#1DDDDF"/>
<path d="M144 401.519L0 516.989V526.226L144 410.756V401.519Z" fill="#1DDDDF"/>
<path d="M144 426.519L0 541.989V551.226L144 435.756V426.519Z" fill="#1DDDDF"/>
<path d="M144 451.519L0 566.989V576.226L144 460.756V451.519Z" fill="#1DDDDF"/>
<path d="M144 476.519L0 591.989V600H1.5295L144 485.756V476.519Z" fill="#1DDDDF"/>
<path d="M144 501.519L21.1864 600H32.7064L144 510.756V501.519Z" fill="#1DDDDF"/>
<path d="M144 526.519L52.3634 600H63.8833L144 535.756V526.519Z" fill="#1DDDDF"/>
<path d="M144 551.519L83.5403 600H95.0602L144 560.756V551.519Z" fill="#1DDDDF"/>
<path d="M144 576.519L114.717 600H126.237L144 585.756V576.519Z" fill="#1DDDDF"/>
</svg>
