<svg width="39" height="37" viewBox="0 0 39 37" fill="none" xmlns="http://www.w3.org/2000/svg">
<path d="M34.7522 24.6646C33.9604 24.6668 33.1886 24.9036 32.5428 25.3427C31.8969 25.7818 31.4085 26.4017 31.1446 27.1173H28.3557V22.212H25.7972V28.3436C25.7972 28.6688 25.932 28.9808 26.1719 29.2107C26.4118 29.4407 26.7372 29.5699 27.0765 29.5699H31.1446C31.3793 30.2062 31.792 30.7684 32.3377 31.1949C32.8834 31.6214 33.5409 31.8958 34.2383 31.988C34.9358 32.0803 35.6463 31.9868 36.292 31.7179C36.9378 31.449 37.494 31.015 37.8996 30.4634C38.3053 29.9118 38.5449 29.2638 38.5921 28.5905C38.6394 27.9171 38.4925 27.2442 38.1675 26.6455C37.8425 26.0468 37.352 25.5453 36.7496 25.1959C36.1472 24.8465 35.4562 24.6627 34.7522 24.6646ZM6.60796 19.7593H32.1936C33.6566 19.7514 35.0725 19.2629 36.2052 18.3754C37.338 17.4879 38.1191 16.2549 38.4184 14.8822C38.7177 13.5094 38.517 12.0798 37.8499 10.8316C37.1827 9.58353 36.0894 8.59237 34.7522 8.02344C34.184 7.11448 33.3797 6.36218 32.4179 5.83992C31.4561 5.31766 30.3695 5.04326 29.264 5.04348C28.9336 5.04272 28.6038 5.07146 28.279 5.12932C27.3056 4.19019 26.0859 3.5202 24.7485 3.18998C23.4112 2.85976 22.0056 2.88155 20.6801 3.25305C19.7279 2.26919 18.5739 1.48462 17.2905 0.948596C16.007 0.412571 14.6218 0.136663 13.2218 0.13819C10.7659 0.139795 8.39241 0.987973 6.53468 2.5279C4.67694 4.06783 3.45885 6.19681 3.10273 8.52623C2.21867 9.08142 1.49189 9.83794 0.987366 10.7282C0.482842 11.6184 0.216296 12.6146 0.211556 13.6277C0.211556 15.2539 0.885461 16.8135 2.08502 17.9634C2.67898 18.5328 3.38412 18.9845 4.16016 19.2926C4.93621 19.6007 5.76798 19.7593 6.60796 19.7593ZM20.6801 29.7907V22.212H18.1215V29.7907C17.2679 30.0799 16.5485 30.6492 16.0905 31.3977C15.6324 32.1463 15.4651 33.026 15.6182 33.8813C15.7713 34.7367 16.2349 35.5126 16.9271 36.072C17.6193 36.6314 18.4954 36.9382 19.4008 36.9382C20.3061 36.9382 21.1823 36.6314 21.8745 36.072C22.5667 35.5126 23.0303 34.7367 23.1833 33.8813C23.3364 33.026 23.1692 32.1463 22.7111 31.3977C22.253 30.6492 21.5336 30.0799 20.6801 29.7907ZM10.4458 29.5699H7.65697C7.3552 28.7517 6.76139 28.0621 5.9805 27.623C5.19961 27.1839 4.28193 27.0235 3.38963 27.1703C2.49734 27.317 1.68789 27.7614 1.10436 28.4249C0.520826 29.0885 0.200775 29.9284 0.200775 30.7962C0.200775 31.6641 0.520826 32.504 1.10436 33.1675C1.68789 33.8311 2.49734 34.2755 3.38963 34.4222C4.28193 34.569 5.19961 34.4086 5.9805 33.9695C6.76139 33.5304 7.3552 32.8408 7.65697 32.0226H11.7251C12.0644 32.0226 12.3898 31.8934 12.6297 31.6634C12.8696 31.4334 13.0044 31.1215 13.0044 30.7962V22.212H10.4458V29.5699Z" fill="#00BCBF"/>
</svg>
