<svg width="41" height="45" viewBox="0 0 41 45" fill="none" xmlns="http://www.w3.org/2000/svg">
<path d="M34.1508 10.379V33.329C34.1508 34.0715 33.5883 34.679 32.9008 34.679H11.6508V5.65402H32.9008C33.5883 5.65402 34.1508 6.26149 34.1508 7.00402V7.67902C34.6695 7.67902 35.1383 7.10524 35.3195 6.33578C35.0445 5.168 34.0695 4.30402 32.9008 4.30402H11.3824C10.0361 0.983276 5.41292 2.02849 5.40079 5.6541C5.40079 5.65402 5.40079 13.079 5.40079 13.079C5.40079 14.159 5.98203 15.104 6.65079 15.104V5.65402C6.62229 3.8889 8.71011 2.95114 9.85079 4.21631C10.207 4.60778 10.4008 5.12074 10.4008 5.65402V33.329C9.31661 32.4578 7.72272 32.4317 6.65079 33.329V17.804C5.98203 17.804 5.40079 18.749 5.40079 19.829C5.40059 21.697 5.40113 37.352 5.40079 38.729C5.40079 40.9633 7.08204 42.779 9.15078 42.779H29.7758C31.157 42.779 32.2758 41.5707 32.2758 40.079V36.029H32.9008C34.282 36.029 35.4008 34.8207 35.4008 33.329V12.404C35.4008 11.324 34.8195 10.379 34.1508 10.379ZM29.7758 41.429H9.15078C7.76952 41.429 6.65079 40.2207 6.65079 38.729V36.1843C6.64388 35.3248 7.15494 34.4493 7.90078 34.139V38.5787C7.90078 39.7784 8.74185 40.754 9.77578 40.754H30.857C30.6383 41.159 30.2383 41.429 29.7758 41.429ZM31.0258 39.404H9.77578C9.43093 39.404 9.15078 39.0336 9.15078 38.5787V34.127C9.73299 34.3305 10.1624 34.8647 10.3266 35.4916C10.3267 35.4916 10.4008 37.406 10.4008 37.406C10.4133 37.7705 10.6883 38.054 11.0258 38.054H31.0258V39.404ZM31.0258 36.704H11.6258L11.6008 36.029H31.0258V36.704Z" fill="#00BCBF"/>
<path d="M22.9008 7.6792H15.4008C14.3653 7.6792 13.5258 8.58582 13.5258 9.7042V17.8042C13.5258 18.9226 14.3653 19.8292 15.4008 19.8292H22.9008C23.9363 19.8292 24.7758 18.9226 24.7758 17.8042V9.7042C24.7758 8.58582 23.9363 7.6792 22.9008 7.6792Z" fill="#00BCBF"/>
<path d="M30.4008 20.5039H26.0258C24.9903 20.5039 24.1508 21.4105 24.1508 22.5289V30.6289C24.1508 31.7473 24.9903 32.6539 26.0258 32.6539H30.4008C31.4363 32.6539 32.2758 31.7473 32.2758 30.6289V22.5289C32.2758 21.4105 31.4363 20.5039 30.4008 20.5039Z" fill="#00BCBF"/>
<path d="M31.6508 10.3793C32.4709 10.3651 32.4735 9.044 31.6508 9.0293H26.6508C25.8307 9.04347 25.8281 10.3645 26.6508 10.3793C26.6508 10.3793 31.6508 10.3793 31.6508 10.3793ZM26.6508 14.4293C26.6508 14.4293 31.6508 14.4293 31.6508 14.4293C32.4709 14.4151 32.4735 13.094 31.6508 13.0793H26.6508C25.8307 13.0935 25.8281 14.4145 26.6508 14.4293ZM26.6508 18.4793C26.6508 18.4793 31.6508 18.4793 31.6508 18.4793C32.4709 18.4651 32.4735 17.144 31.6508 17.1293H26.6508C25.8307 17.1435 25.8281 18.4645 26.6508 18.4793ZM22.2758 21.8543H14.1508C13.3311 21.8683 13.3277 23.1895 14.1508 23.2043C14.1508 23.2043 22.2758 23.2043 22.2758 23.2043C23.0949 23.1905 23.0993 21.8691 22.2758 21.8543ZM16.0258 26.5793C16.0258 26.5793 22.2758 26.5793 22.2758 26.5793C23.0955 26.5652 23.0988 25.244 22.2758 25.2293H16.0258C15.2056 25.2435 15.2031 26.5646 16.0258 26.5793ZM19.1508 29.9543C19.1508 29.9543 22.2758 29.9543 22.2758 29.9543C23.0965 29.9399 23.098 28.619 22.2758 28.6043H19.1508C18.3301 28.6186 18.3285 29.9396 19.1508 29.9543ZM36.6508 5.6543C36.6508 7.51895 35.5321 9.0293 34.1508 9.0293C35.5321 9.0293 36.6508 10.5396 36.6508 12.4043C36.6508 10.5396 37.7695 9.0293 39.1508 9.0293C37.7695 9.0293 36.6508 7.51895 36.6508 5.6543ZM4.15079 13.0793C4.15079 14.9439 3.03205 16.4543 1.65079 16.4543C3.03205 16.4543 4.15079 17.9646 4.15079 19.8293C4.15079 17.9646 5.26952 16.4543 6.65079 16.4543C5.26952 16.4543 4.15079 14.9439 4.15079 13.0793Z" fill="#00BCBF"/>
</svg>
