<svg width="39" height="39" viewBox="0 0 39 39" fill="none" xmlns="http://www.w3.org/2000/svg">
<mask id="mask0_1_995" style="mask-type:luminance" maskUnits="userSpaceOnUse" x="0" y="0" width="39" height="39">
<path d="M0.599998 38.4V0H39V38.4H0.599998Z" fill="white"/>
</mask>
<g mask="url(#mask0_1_995)">
<path fill-rule="evenodd" clip-rule="evenodd" d="M39.0024 19.1881C39.0024 29.7985 30.3982 38.4001 19.7844 38.4001C9.17067 38.4001 0.566406 29.7985 0.566406 19.1881C0.566406 8.57765 9.17067 -0.0239258 19.7844 -0.0239258C30.3982 -0.0239258 39.0024 8.57765 39.0024 19.1881Z" fill="#00BCBF"/>
</g>
<path fill-rule="evenodd" clip-rule="evenodd" d="M26.0658 26.3923C25.8039 26.393 25.549 26.3082 25.3399 26.1507C25.1307 25.9932 24.9788 25.7716 24.9073 25.5198C24.8358 25.268 24.8487 24.9997 24.9438 24.7559C25.039 24.512 25.2114 24.306 25.4346 24.1691L31.5147 20.4221L31.5189 20.3885L31.5147 20.3549L25.4346 16.608C25.1716 16.437 24.9859 16.1701 24.9171 15.8641C24.8483 15.5582 24.902 15.2375 25.0665 14.9705C25.2311 14.7035 25.4936 14.5115 25.7979 14.4354C26.1022 14.3592 26.4242 14.4051 26.6951 14.5631L33.0791 18.4985L33.1782 18.5976C33.4145 18.8321 33.6018 19.1111 33.7294 19.4186C33.8569 19.726 33.9221 20.0557 33.9211 20.3885C33.922 20.7213 33.8569 21.0509 33.7295 21.3583C33.6021 21.6658 33.4149 21.9448 33.1788 22.1794L33.0791 22.2785L26.6951 26.214C26.4988 26.3346 26.2808 26.3923 26.0658 26.3923Z" fill="#00BCBF"/>
<path fill-rule="evenodd" clip-rule="evenodd" d="M13.5015 26.3925C13.2865 26.3925 13.0685 26.3349 12.8721 26.2142L6.48809 22.2788L6.3884 22.1797C6.15233 21.9451 5.96517 21.666 5.83775 21.3586C5.71034 21.0512 5.64519 20.7215 5.6461 20.3888C5.6461 19.7121 5.90975 19.0758 6.389 18.5979L6.48809 18.4988L12.8721 14.5633C13.1433 14.3962 13.4699 14.3437 13.7799 14.4173C14.0899 14.4908 14.358 14.6845 14.5251 14.9557C14.6923 15.2268 14.7449 15.5533 14.6713 15.8632C14.5976 16.1731 14.4039 16.4411 14.1327 16.6082L8.05256 20.3552L8.04836 20.3888L8.05256 20.4224L14.1327 24.1693C14.355 24.3067 14.5264 24.5129 14.621 24.7565C14.7156 25 14.7282 25.2678 14.6568 25.5192C14.5854 25.7706 14.434 25.9918 14.2255 26.1494C14.017 26.307 13.7628 26.3924 13.5015 26.3925Z" fill="#00BCBF"/>
<path fill-rule="evenodd" clip-rule="evenodd" d="M15.8815 31.7957C15.6868 31.7957 15.495 31.7484 15.3226 31.6578C15.1503 31.5672 15.0026 31.4361 14.8922 31.2758C14.7818 31.1154 14.712 30.9307 14.6889 30.7374C14.6659 30.5441 14.6901 30.3481 14.7596 30.1663L22.5669 9.75356C22.6217 9.60418 22.7056 9.46715 22.8137 9.35045C22.9219 9.23375 23.0522 9.13971 23.197 9.07378C23.3419 9.00785 23.4984 8.97135 23.6574 8.9664C23.8165 8.96145 23.975 8.98816 24.1236 9.04496C24.2723 9.10176 24.4082 9.18753 24.5234 9.29728C24.6386 9.40704 24.7308 9.53858 24.7948 9.68428C24.8587 9.82998 24.893 9.98693 24.8957 10.146C24.8985 10.3051 24.8695 10.4631 24.8106 10.6109L17.0033 31.0237C16.9165 31.2508 16.7628 31.4462 16.5624 31.584C16.3621 31.7219 16.1247 31.7957 15.8815 31.7957Z" fill="#00BCBF"/>
<path fill-rule="evenodd" clip-rule="evenodd" d="M26.0664 25.1916C25.8047 25.1921 25.55 25.1072 25.3411 24.9497C25.1322 24.7922 24.9804 24.5708 24.9089 24.3192C24.8375 24.0676 24.8502 23.7995 24.9452 23.5557C25.0402 23.312 25.2122 23.106 25.4352 22.969L31.5147 19.222V19.1536L25.4352 15.4067C25.2974 15.3256 25.1772 15.218 25.0815 15.0899C24.9859 14.9618 24.9169 14.816 24.8783 14.6609C24.8398 14.5058 24.8327 14.3446 24.8573 14.1867C24.8819 14.0288 24.9378 13.8774 25.0217 13.7414C25.1056 13.6054 25.2158 13.4875 25.3459 13.3946C25.476 13.3017 25.6233 13.2357 25.7792 13.2005C25.9351 13.1652 26.0965 13.1614 26.2538 13.1893C26.4112 13.2173 26.5615 13.2763 26.6957 13.363L33.0803 17.2978L33.1794 17.3969C33.6536 17.8724 33.9199 18.5164 33.9199 19.1878C33.9199 19.8592 33.6536 20.5033 33.1794 20.9787L33.0803 21.0778L26.6957 25.0127C26.4994 25.1339 26.2814 25.1916 26.0664 25.1916Z" fill="#FFFFFE"/>
<path fill-rule="evenodd" clip-rule="evenodd" d="M13.5028 25.1918C13.2878 25.1918 13.0698 25.1342 12.8734 25.0129L6.48878 21.078L6.38969 20.979C5.9155 20.5035 5.64922 19.8595 5.64922 19.1881C5.64922 18.5167 5.9155 17.8726 6.38969 17.3971L6.48878 17.2981L12.8734 13.3632C13.1445 13.1961 13.4709 13.1435 13.7808 13.217C14.0906 13.2904 14.3587 13.484 14.5258 13.755C14.693 14.026 14.7456 14.3523 14.6721 14.6621C14.5986 14.9719 14.405 15.2398 14.134 15.4069L8.05445 19.1538V19.2223L14.134 22.9692C14.3564 23.1065 14.528 23.3125 14.6227 23.5561C14.7174 23.7998 14.73 24.0676 14.6586 24.319C14.5872 24.5704 14.4357 24.7917 14.2271 24.9492C14.0185 25.1067 13.7642 25.1919 13.5028 25.1918Z" fill="#FFFFFE"/>
<path fill-rule="evenodd" clip-rule="evenodd" d="M15.8817 30.5957C15.6869 30.5957 15.4951 30.5483 15.3227 30.4577C15.1502 30.3671 15.0025 30.2359 14.8921 30.0755C14.7817 29.9151 14.7119 29.7303 14.6889 29.5369C14.6659 29.3435 14.6902 29.1475 14.7598 28.9656L22.5672 8.55288C22.6219 8.40349 22.7058 8.26647 22.814 8.14977C22.9221 8.03307 23.0524 7.93902 23.1973 7.87309C23.3421 7.80716 23.4986 7.77066 23.6577 7.76572C23.8167 7.76077 23.9752 7.78747 24.1239 7.84428C24.2725 7.90108 24.4084 7.98685 24.5236 8.0966C24.6388 8.20635 24.7311 8.3379 24.795 8.4836C24.8589 8.6293 24.8932 8.78624 24.896 8.94531C24.8987 9.10439 24.8698 9.26242 24.8109 9.41022L17.0036 29.823C16.9168 30.0502 16.7631 30.2457 16.5628 30.3837C16.3625 30.5217 16.125 30.5956 15.8817 30.5957Z" fill="#FFFFFE"/>
</svg>
