<svg width="34" height="39" viewBox="0 0 34 39" fill="none" xmlns="http://www.w3.org/2000/svg">
<path d="M33.5956 10.6262C33.6088 10.544 33.5868 10.4536 33.5296 10.3714C33.5252 10.3672 33.5209 10.359 33.5165 10.3549C33.5121 10.3508 33.5077 10.3426 33.5033 10.3385C33.4989 10.3344 33.4945 10.3261 33.4901 10.322L33.4769 10.3097C33.4769 10.3097 33.4769 10.3056 33.4725 10.3056L32.1841 9.10136C31.1904 8.16839 30.1923 7.23953 29.1985 6.31067C28.0773 5.26261 26.9604 4.21867 25.8436 3.17062L23.4428 0.926557C23.302 0.795037 23.1657 0.655297 23.0162 0.527886C22.8448 0.379926 22.6557 0.404586 22.449 0.404586H3.3877C2.64899 0.404586 1.90589 0.342936 1.23314 0.692287C0.468044 1.09507 0.0107484 1.86364 0.00195426 2.67742V36.3302C0.00195426 36.4 -0.00244282 36.4658 0.00195426 36.5357C0.0151455 37.6659 0.916546 38.6277 2.11695 38.7715C2.52148 38.8208 2.9436 38.792 3.35252 38.792H30.355C30.865 38.792 31.4278 38.8373 31.9159 38.6852C32.9141 38.3769 33.5868 37.5097 33.6 36.5274V10.6262H33.5956ZM26.9648 31.5995H6.63274C6.14027 31.5995 5.77531 31.2214 5.75333 30.7775C5.73134 30.3337 6.17105 29.9555 6.63274 29.9555H8.00463V22.278C8.00463 22.052 7.97385 21.7766 8.08817 21.567C8.36079 21.0615 9.03354 21.1601 9.53481 21.1601H11.3948C11.5838 21.1601 11.7773 21.1642 11.9664 21.1683C11.9884 21.1683 12.0148 21.1683 12.0367 21.1725C12.0499 21.1725 12.0631 21.1766 12.0763 21.1766C12.0895 21.1766 12.1027 21.1807 12.1159 21.1807C12.1247 21.1807 12.1335 21.1848 12.1423 21.1848C12.1643 21.1889 12.1862 21.193 12.2082 21.2012H12.2126C12.2434 21.2094 12.2742 21.2218 12.305 21.2341C12.5248 21.3245 12.6787 21.5013 12.7447 21.7355C12.7579 21.7725 12.7799 21.8177 12.7843 21.8629C12.7843 21.8712 12.7886 21.8753 12.7886 21.8794V21.8835C12.7886 21.8958 12.7886 21.9081 12.793 21.9246C12.793 21.9287 12.7886 21.9328 12.7886 21.9369V29.9514H14.5914V29.9062C14.5914 29.8363 14.6002 29.7624 14.6002 29.6925C14.6002 29.6185 14.6046 29.5445 14.6046 29.4706C14.609 29.2486 14.6178 29.0267 14.6222 28.8088C14.6222 28.7472 14.6266 28.6814 14.6266 28.6198C14.6266 28.5664 14.6266 28.517 14.631 28.4636V17.3625C14.631 17.2597 14.6222 17.1611 14.6222 17.0583C14.6222 17.0213 14.6266 16.9802 14.631 16.9433C14.6354 16.9186 14.6398 16.898 14.6442 16.8775L14.6706 16.7912C14.675 16.783 14.6794 16.7706 14.6838 16.7624L14.697 16.7378L14.7366 16.6638C14.7409 16.6597 14.7409 16.6514 14.7453 16.6473C14.7541 16.635 14.7629 16.6186 14.7761 16.6062C14.8948 16.4501 15.0795 16.3432 15.3082 16.3144C15.3302 16.3103 15.3565 16.3103 15.3829 16.3062C15.4621 16.3021 15.5456 16.298 15.6248 16.298H15.6819C16.126 16.2898 16.5701 16.3021 17.0142 16.3103H18.4257C18.4917 16.3103 18.5532 16.3021 18.6192 16.3062C18.7027 16.3103 18.7819 16.3226 18.8522 16.3473C18.8566 16.3473 18.8654 16.3514 18.8698 16.3514C18.927 16.3679 18.9753 16.3925 19.0237 16.4213C19.0413 16.4336 19.0589 16.4418 19.0721 16.4542C19.0897 16.4665 19.1028 16.4788 19.1204 16.4912L19.1424 16.5117L19.1644 16.5323C19.1908 16.561 19.2172 16.5898 19.2392 16.6227C19.2436 16.6309 19.2523 16.6391 19.2567 16.6473C19.2743 16.672 19.2875 16.6967 19.3007 16.7254C19.3051 16.7336 19.3095 16.7419 19.3139 16.7542C19.3315 16.7912 19.3447 16.8282 19.3535 16.8693C19.3579 16.8816 19.3623 16.898 19.3667 16.9104C19.3711 16.9186 19.3711 16.9309 19.3755 16.9391C19.3799 16.9638 19.3843 16.9885 19.3843 17.0172V29.9555H21.2486C21.2486 29.4295 21.275 28.9034 21.275 28.3773V19.2325C21.275 19.1298 21.2662 19.0311 21.297 18.9284C21.4157 18.5256 21.7983 18.4064 22.194 18.4064H25.1532C25.417 18.4064 25.6457 18.4804 25.804 18.6284C25.826 18.6489 25.848 18.6736 25.8699 18.6982C25.9007 18.7352 25.9271 18.7763 25.9491 18.8215C25.9711 18.8667 25.9887 18.9161 26.0063 18.9654C26.0194 18.9983 26.0238 19.0311 26.0282 19.0681V29.9555H26.9604C27.4529 29.9555 27.8178 30.3337 27.8398 30.7775C27.8618 31.2214 27.4221 31.5995 26.9648 31.5995ZM24.7795 10.1864H24.1991C24.1639 10.1864 24.1243 10.1823 24.0891 10.1823C24.0364 10.17 23.9836 10.1617 23.9308 10.1494C23.8869 10.1371 23.6934 10.1001 23.8165 10.1165C23.8297 10.1165 23.8429 10.1206 23.8517 10.1206C23.8341 10.1165 23.8077 10.1083 23.7901 10.1001C23.7462 10.0795 23.7066 10.059 23.6626 10.0343L23.5967 9.99323C23.5879 9.9809 23.4779 9.8987 23.4559 9.88226C23.4472 9.87404 23.4076 9.84116 23.3724 9.80828C23.368 9.80006 23.3636 9.79184 23.3548 9.78362L23.3416 9.75896C23.324 9.73841 23.3108 9.71375 23.2933 9.6932C23.2845 9.68087 23.2493 9.62744 23.2229 9.58223C23.2185 9.57401 23.2141 9.56168 23.2097 9.54524C23.2053 9.52469 23.1965 9.50825 23.1877 9.4877C23.1833 9.47948 23.1833 9.47537 23.1789 9.46715C23.1613 9.41783 23.1789 9.36851 23.135 9.31919V9.26576C23.1306 9.24521 23.1262 9.23288 23.1262 9.22466C23.1262 9.22877 23.1306 9.24521 23.135 9.25754C23.135 9.22877 23.1306 9.20411 23.1306 9.18767C23.1306 9.1178 23.1306 9.05204 23.135 8.98217V4.88449C23.135 4.32964 23.1438 3.77479 23.1482 3.21994L25.1884 5.12698L30.6012 10.1864H24.7795Z" fill="#00BCBF"/>
</svg>
