<svg width="44" height="36" viewBox="0 0 44 36" fill="none" xmlns="http://www.w3.org/2000/svg">
<path d="M29.3301 33.5144H27.5978V35.1385H29.3301V33.5144Z" fill="#00BCBF"/>
<path d="M19.8035 0.600098H15.4727V2.22416H19.8035V0.600098Z" fill="#00BCBF"/>
<path d="M23.2674 0.600098H21.535V2.22416H23.2674V0.600098Z" fill="#00BCBF"/>
<path d="M40.8165 9.95427C38.7572 7.83217 36.0169 6.66338 33.1012 6.66284C33.1012 6.66284 33.1012 6.66284 33.1006 6.66284C30.1844 6.66284 27.444 7.83162 25.3842 9.95427L22.4008 13.0286L19.4168 9.95427C17.357 7.83162 14.6167 6.66284 11.7004 6.66284C8.78412 6.66284 6.04433 7.83162 3.98502 9.95427C1.93167 12.0699 0.800781 14.8811 0.800781 17.8694C0.800781 20.8577 1.93167 23.6689 3.98448 25.7845C6.04379 27.9066 8.78412 29.0754 11.6998 29.076C11.6998 29.076 11.6998 29.076 11.7004 29.076C14.6167 29.076 17.357 27.9072 19.4168 25.7845L22.4008 22.7102L25.3847 25.7845C27.4446 27.9072 30.1849 29.076 33.1012 29.076C36.0174 29.076 38.7572 27.9072 40.8165 25.7845C42.8699 23.6689 44.0008 20.8582 44.0008 17.8694C44.0008 14.8811 42.8699 12.0699 40.8165 9.95427ZM39.6515 24.6531C37.9008 26.4574 35.5746 27.4514 33.1012 27.4514C30.6277 27.4514 28.3015 26.458 26.5497 24.6531L23.5322 21.5441L25.9672 19.0355L28.9517 22.1098C30.0588 23.2505 31.5323 23.8784 33.1012 23.8784C34.67 23.8784 36.1436 23.2505 37.2506 22.1098C39.52 19.7717 39.52 15.9676 37.2506 13.6295C36.143 12.4883 34.6695 11.8604 33.1012 11.8604C31.5323 11.8604 30.0588 12.4883 28.9517 13.629L25.3847 17.3037L21.8183 20.9784L18.2518 24.6531C16.5 26.458 14.1738 27.4514 11.7004 27.4514C9.22749 27.4514 6.90129 26.4574 5.15001 24.6531C1.5197 20.9123 1.5197 14.8259 5.15001 11.0852C6.90075 9.28083 9.22695 8.2869 11.7004 8.2869C14.1738 8.2869 16.5 9.28083 18.2518 11.0852L21.2694 14.1941L18.8343 16.7028L15.8499 13.6284C14.8814 12.6307 13.6319 12.0249 12.2834 11.8891C12.2352 11.8842 12.1871 11.8799 12.1383 11.8761C12.0414 11.869 11.9445 11.8636 11.8466 11.8615C11.7978 11.8604 11.7486 11.8598 11.6998 11.8598C11.5039 11.8598 11.309 11.8696 11.1168 11.8891C10.9804 11.9026 10.8451 11.9215 10.7108 11.9448C10.5435 11.9741 10.3779 12.0103 10.2144 12.0542C10.0005 12.1116 9.7905 12.1803 9.58478 12.2621C9.58045 12.2637 9.57612 12.2658 9.57179 12.2675C9.46622 12.3097 9.36174 12.3552 9.25835 12.4039C8.63038 12.6995 8.05275 13.1109 7.55037 13.6284C7.35928 13.8255 7.18442 14.0334 7.02526 14.2494C5.48782 16.3395 5.4575 19.239 6.93432 21.3606C7.11675 21.6226 7.32192 21.8732 7.55037 22.1087C8.38081 22.9641 9.41696 23.5314 10.5451 23.7615C10.5922 23.7712 10.6393 23.7799 10.6864 23.7886C10.8283 23.814 10.9717 23.8335 11.1163 23.8481C11.309 23.8676 11.5033 23.8773 11.6993 23.8773C11.8276 23.8773 11.9548 23.8725 12.0815 23.8643C12.2943 23.8503 12.5048 23.8254 12.7122 23.7886C12.7192 23.7875 12.7257 23.7858 12.7328 23.7848C13.0668 23.7241 13.3927 23.6343 13.7083 23.5163C14.5041 23.2191 15.2333 22.7432 15.8488 22.1093L19.4158 18.4346L22.9822 14.7599L26.5486 11.0852C28.3015 9.28083 30.6277 8.28744 33.1012 8.28744C35.5741 8.28744 37.9003 9.28137 39.6515 11.0857C43.2819 14.8259 43.2819 20.9129 39.6515 24.6531Z" fill="#00BCBF"/>
</svg>
