<svg width="39" height="34" viewBox="0 0 39 34" fill="none" xmlns="http://www.w3.org/2000/svg">
<path d="M34.7608 0H4.04078C1.91918 0 0.219975 1.5036 0.219975 3.36L0.200775 20.16C0.200775 22.0164 1.91918 23.52 4.04078 23.52H34.7608C36.8824 23.52 38.6008 22.0164 38.6008 20.16V3.36C38.6008 1.5036 36.8824 0 34.7608 0ZM17.4808 5.04H21.3208V8.4H17.4808V5.04ZM17.4808 10.08H21.3208V13.44H17.4808V10.08ZM11.7208 5.04H15.5608V8.4H11.7208V5.04ZM11.7208 10.08H15.5608V13.44H11.7208V10.08ZM9.80078 13.44H5.96078V10.08H9.80078V13.44ZM9.80078 8.4H5.96078V5.04H9.80078V8.4ZM27.0808 20.16H11.7208V16.8H27.0808V20.16ZM27.0808 13.44H23.2408V10.08H27.0808V13.44ZM27.0808 8.4H23.2408V5.04H27.0808V8.4ZM32.8408 13.44H29.0008V10.08H32.8408V13.44ZM32.8408 8.4H29.0008V5.04H32.8408V8.4ZM19.4008 33.6L27.0808 26.88H11.7208L19.4008 33.6Z" fill="#00BCBF"/>
</svg>
