<svg width="76" height="41" viewBox="0 0 76 41" fill="none" xmlns="http://www.w3.org/2000/svg">
<path d="M74.5638 7.60771C63.5789 -0.137081 46.3068 0.223884 32.3734 4.66964C25.502 6.85884 18.7822 10.7999 16.4647 16.9204C15.4805 19.5734 15.3895 22.4349 16.8016 24.8117C17.6493 26.2577 19.1544 27.7098 21.3352 27.5537C24.6541 27.3121 24.8199 24.1793 22.7186 22.8408C18.8038 20.3791 13.1404 25.0738 10.7099 27.6419C7.86224 30.6528 5.96439 34.1314 4.37711 37.6447C3.92814 38.642 2.18716 38.0521 2.6452 37.0579C4.56127 32.8599 7.00326 28.6706 10.7804 25.2964C13.5169 22.8461 17.4391 20.3124 21.4947 20.7962C24.4462 21.1557 26.858 23.7817 25.7696 26.39C24.6426 29.1406 20.5551 29.7106 18.0616 28.4889C11.0752 25.1042 13.7626 15.7976 18.254 11.0025C24.5025 4.3298 35.5385 1.67213 44.7788 0.676543C55.7919 -0.490906 67.147 1.03418 75.1533 6.99721C75.5273 7.28881 74.9763 7.87939 74.5683 7.58098L74.5638 7.60771Z" fill="#1DDDDF"/>
<path d="M11.3068 37.4503C10.1806 36.0574 4.86222 39.1277 3.93435 39.5773C3.14562 39.9616 2.21431 40.4354 1.34172 39.8343C0.408336 39.195 0.856557 37.7483 0.920418 36.9348C1.07865 34.9264 1.15298 32.9181 1.42348 30.9276C1.55326 29.9553 3.25638 30.1826 3.23361 31.1168C3.18667 32.7472 3.00871 34.3795 2.87694 36.004C2.84675 36.3644 2.40449 38.2153 2.86815 38.4013C3.3953 38.1664 3.89899 37.898 4.37453 37.5986C6.23276 36.7378 9.7774 35.4035 11.8805 36.3565C12.0116 36.4053 12.1211 36.486 12.1941 36.5874C12.267 36.6889 12.2998 36.8063 12.2881 36.9236L12.2595 37.2481C12.2522 37.3354 12.2116 37.4186 12.1433 37.486C12.075 37.5535 11.9824 37.6017 11.8787 37.6239C11.775 37.6461 11.6654 37.6411 11.5654 37.6097C11.4653 37.5782 11.3799 37.522 11.3211 37.4488L11.3068 37.4503Z" fill="#1DDDDF"/>
</svg>
