<svg width="39" height="39" viewBox="0 0 39 39" fill="none" xmlns="http://www.w3.org/2000/svg">
<g clip-path="url(#clip0_1_989)">
<rect width="38.4" height="38.4" transform="translate(0.599998 0.600098)" fill="white"/>
<path fill-rule="evenodd" clip-rule="evenodd" d="M30.0864 34.0825L28.008 35.2825C27.8169 35.3925 27.5993 35.4479 27.3788 35.4424C27.1584 35.437 26.9437 35.371 26.7583 35.2516C26.5729 35.1323 26.424 34.9642 26.3277 34.7658C26.2315 34.5674 26.1917 34.3464 26.2128 34.1269L27.21 23.8525C27.2284 23.6624 27.2919 23.4795 27.3953 23.3189C27.4986 23.1583 27.6388 23.0247 27.8041 22.9291C27.9695 22.8336 28.1552 22.7789 28.346 22.7696C28.5367 22.7603 28.7269 22.7967 28.9008 22.8757L38.2968 27.1501C38.4977 27.2413 38.6696 27.3861 38.7936 27.5687C38.9175 27.7512 38.9887 27.9644 38.9994 28.1848C39.0101 28.4052 38.9598 28.6243 38.854 28.8179C38.7483 29.0116 38.5912 29.1723 38.4 29.2825L36.3216 30.4825L38.1216 33.6001C38.5915 34.4265 38.7154 35.4052 38.4663 36.3227C38.2172 37.2401 37.6154 38.0218 36.7921 38.4971C35.9688 38.9724 34.991 39.1028 34.0719 38.8598C33.1528 38.6169 32.3672 38.0202 31.8864 37.2001L30.0864 34.0825ZM22.7676 28.6081L24.846 27.4081C25.1218 27.249 25.323 26.9868 25.4055 26.6793C25.488 26.3718 25.4449 26.0441 25.2858 25.7683C25.1267 25.4925 24.8645 25.2913 24.557 25.2088C24.2495 25.1263 23.9218 25.1694 23.646 25.3285L21.5676 26.5285C21.2942 26.6888 21.0953 26.9506 21.0144 27.257C20.9334 27.5634 20.9768 27.8893 21.1353 28.1637C21.2937 28.4382 21.5543 28.6388 21.8601 28.7218C22.1659 28.8048 22.4921 28.7647 22.7676 28.6081ZM33.1608 22.6081L35.2392 21.4081C35.515 21.249 35.7162 20.9868 35.7987 20.6793C35.8812 20.3718 35.8381 20.0441 35.679 19.7683C35.5199 19.4925 35.2577 19.2913 34.9502 19.2088C34.6427 19.1263 34.315 19.1694 34.0392 19.3285L31.9608 20.5285C31.6874 20.6888 31.4885 20.9506 31.4076 21.257C31.3266 21.5634 31.37 21.8893 31.5285 22.1637C31.6869 22.4382 31.9475 22.6388 32.2533 22.7218C32.5591 22.8048 32.8853 22.7647 33.1608 22.6081ZM27.0432 19.2109L25.8432 17.1325C25.6829 16.8591 25.4211 16.6602 25.1147 16.5793C24.8083 16.4983 24.4824 16.5417 24.208 16.7002C23.9335 16.8586 23.7329 17.1192 23.6499 17.425C23.5669 17.7308 23.6082 18.057 23.7648 18.3325L24.9648 20.4109C25.1251 20.6843 25.3869 20.8831 25.6933 20.9641C25.9996 21.0451 26.3256 21.0017 26.6 20.8432C26.8745 20.6848 27.0751 20.4242 27.1581 20.1184C27.2411 19.8126 27.1998 19.4864 27.0432 19.2109ZM3 11.4001V4.2001C3 3.88184 3.12643 3.57661 3.35147 3.35157C3.57651 3.12653 3.88174 3.0001 4.2 3.0001C4.51826 3.0001 4.82348 3.12653 5.04853 3.35157C5.27357 3.57661 5.4 3.88184 5.4 4.2001V11.4001C5.4 11.7184 5.52643 12.0236 5.75147 12.2486C5.97651 12.4737 6.28174 12.6001 6.6 12.6001C6.91826 12.6001 7.22348 12.4737 7.44853 12.2486C7.67357 12.0236 7.8 11.7184 7.8 11.4001V4.2001C7.8 3.24532 7.42071 2.32964 6.74558 1.65451C6.07045 0.979382 5.15478 0.600098 4.2 0.600098C3.24522 0.600098 2.32954 0.979382 1.65441 1.65451C0.979283 2.32964 0.599998 3.24532 0.599998 4.2001L0.599998 11.4001C0.599998 11.7184 0.726427 12.0236 0.95147 12.2486C1.17651 12.4737 1.48174 12.6001 1.8 12.6001C2.11826 12.6001 2.42348 12.4737 2.64853 12.2486C2.87357 12.0236 3 11.7184 3 11.4001ZM3 24.6001V16.2001C3 15.8818 2.87357 15.5766 2.64853 15.3516C2.42348 15.1265 2.11826 15.0001 1.8 15.0001C1.48174 15.0001 1.17651 15.1265 0.95147 15.3516C0.726427 15.5766 0.599998 15.8818 0.599998 16.2001L0.599998 24.6001C0.599998 24.9184 0.726427 25.2236 0.95147 25.4486C1.17651 25.6737 1.48174 25.8001 1.8 25.8001C2.11826 25.8001 2.42348 25.6737 2.64853 25.4486C2.87357 25.2236 3 24.9184 3 24.6001Z" fill="#00BCBF"/>
<path fill-rule="evenodd" clip-rule="evenodd" d="M1.8 8.4H6C6.31826 8.4 6.62348 8.27357 6.84853 8.04853C7.07357 7.82348 7.2 7.51826 7.2 7.2C7.2 6.88174 7.07357 6.57652 6.84853 6.35147C6.62348 6.12643 6.31826 6 6 6H1.8C1.48174 6 1.17651 6.12643 0.95147 6.35147C0.726427 6.57652 0.599998 6.88174 0.599998 7.2C0.599998 7.51826 0.726427 7.82348 0.95147 8.04853C1.17651 8.27357 1.48174 8.4 1.8 8.4ZM7.8 18.6C7.8 19.5548 7.42071 20.4705 6.74558 21.1456C6.07045 21.8207 5.15478 22.2 4.2 22.2H1.8C1.48174 22.2 1.17651 22.0736 0.95147 21.8485C0.726427 21.6235 0.599998 21.3183 0.599998 21V16.2C0.599998 15.8817 0.726427 15.5765 0.95147 15.3515C1.17651 15.1264 1.48174 15 1.8 15H4.2C5.15478 15 6.07045 15.3793 6.74558 16.0544C7.42071 16.7295 7.8 17.6452 7.8 18.6ZM5.4 18.6C5.4 18.2817 5.27357 17.9765 5.04853 17.7515C4.82348 17.5264 4.51826 17.4 4.2 17.4H3V19.8H4.2C4.51826 19.8 4.82348 19.6736 5.04853 19.4485C5.27357 19.2235 5.4 18.9183 5.4 18.6Z" fill="#00BCBF"/>
<path fill-rule="evenodd" clip-rule="evenodd" d="M7.8 24.6002C7.8 25.555 7.42071 26.4706 6.74558 27.1458C6.07045 27.8209 5.15478 28.2002 4.2 28.2002H1.8C1.48174 28.2002 1.17651 28.0738 0.95147 27.8487C0.726427 27.6237 0.599998 27.3185 0.599998 27.0002V22.2002C0.599998 21.8819 0.726427 21.5767 0.95147 21.3517C1.17651 21.1266 1.48174 21.0002 1.8 21.0002H4.2C5.15478 21.0002 6.07045 21.3795 6.74558 22.0546C7.42071 22.7297 7.8 23.6454 7.8 24.6002ZM5.4 24.6002C5.4 24.2819 5.27357 23.9767 5.04853 23.7517C4.82348 23.5266 4.51826 23.4002 4.2 23.4002H3V25.8002H4.2C4.51826 25.8002 4.82348 25.6738 5.04853 25.4487C5.27357 25.2237 5.4 24.9185 5.4 24.6002ZM20.9988 22.2002C20.9988 21.2454 20.6195 20.3297 19.9444 19.6546C19.2693 18.9795 18.3536 18.6002 17.3988 18.6002H13.7988C12.844 18.6002 11.9283 18.9795 11.2532 19.6546C10.5781 20.3297 10.1988 21.2454 10.1988 22.2002C10.1988 23.155 10.5781 24.0707 11.2532 24.7458C11.9283 25.4209 12.844 25.8002 13.7988 25.8002H17.3988C18.3536 25.8002 19.2693 25.4209 19.9444 24.7458C20.6195 24.0707 20.9988 23.155 20.9988 22.2002ZM39 7.8002C39 6.845 38.6208 5.9294 37.9452 5.255C37.6111 4.92047 37.2144 4.65511 36.7776 4.47411C36.3409 4.29312 35.8728 4.20004 35.4 4.2002H13.8C12.8448 4.2002 11.9292 4.5794 11.2548 5.255C10.9203 5.58905 10.6549 5.98581 10.4739 6.42255C10.2929 6.85929 10.1998 7.32744 10.2 7.8002C10.2 8.7554 10.5792 9.671 11.2548 10.3454C11.5889 10.6799 11.9856 10.9453 12.4223 11.1263C12.8591 11.3073 13.3272 11.4004 13.8 11.4002H35.4C36.3552 11.4002 37.2708 11.021 37.9452 10.3454C38.2797 10.0113 38.5451 9.61458 38.7261 9.17785C38.9071 8.74111 39.0002 8.27296 39 7.8002Z" fill="#00BCBF"/>
</g>
<defs>
<clipPath id="clip0_1_989">
<rect width="38.4" height="38.4" fill="white" transform="translate(0.599998 0.600098)"/>
</clipPath>
</defs>
</svg>
