<svg width="43" height="46" viewBox="0 0 43 46" fill="none" xmlns="http://www.w3.org/2000/svg">
<path d="M0.859078 2.43842C0.347736 2.9458 0.0518112 3.73573 0.0518112 4.75873V41.2485C0.0518112 42.2715 0.347736 43.0614 0.859078 43.5688L0.985283 43.6802L22.5574 23.2408V22.7582L0.985283 2.3188L0.859078 2.43842Z" fill="white"/>
<path d="M32.3512 30.0576L25.1685 23.2411V22.7584L32.3599 15.9419L32.5209 16.0306L41.0375 20.6237C43.468 21.9272 43.468 24.0722 41.0375 25.384L32.5209 29.9689L32.3512 30.0576V30.0576Z" fill="white"/>
<path d="M31.2154 31.2381L23.8629 24.2689L2.16462 44.8383C2.97189 45.6426 4.28832 45.7396 5.78536 44.9352L31.2154 31.2381" fill="white"/>
<path d="M31.2154 14.7613L5.78536 1.06422C4.28832 0.268095 2.97189 0.365029 2.16462 1.1694L23.8629 21.7305L31.2154 14.7613Z" fill="white"/>
</svg>
