<svg width="39" height="39" viewBox="0 0 39 39" fill="none" xmlns="http://www.w3.org/2000/svg">
<path d="M37.08 0.200195H2.52C2.01078 0.200195 1.52242 0.40248 1.16235 0.76255C0.802284 1.12262 0.599998 1.61098 0.599998 2.1202V23.8802C0.599998 24.3894 0.802284 24.8778 1.16235 25.2378C1.52242 25.5979 2.01078 25.8002 2.52 25.8002H37.08C37.5892 25.8002 38.0776 25.5979 38.4376 25.2378C38.7977 24.8778 39 24.3894 39 23.8802V2.1202C39 1.61098 38.7977 1.12262 38.4376 0.76255C38.0776 0.40248 37.5892 0.200195 37.08 0.200195ZM35.16 21.9602H19.7507C19.5919 20.1898 18.7763 18.5428 17.4644 17.3434C16.1525 16.144 14.4393 15.4788 12.6618 15.4788C10.8842 15.4788 9.171 16.144 7.85912 17.3434C6.54724 18.5428 5.73166 20.1898 5.5728 21.9602H4.44V4.0402H35.16V21.9602Z" fill="#00BCBF"/>
<path d="M20.4771 17.4065C20.4364 17.5206 20.4289 17.644 20.4555 17.7622C20.4821 17.8804 20.5416 17.9886 20.6273 18.0743C20.713 18.1599 20.8212 18.2195 20.9394 18.2461C21.0576 18.2727 21.1809 18.2652 21.295 18.2245L23.64 17.3861C24.9932 18.174 26.587 18.4424 28.1237 18.1411C29.6603 17.8399 31.0348 16.9896 31.9903 15.749C32.9459 14.5084 33.4172 12.9624 33.3162 11.3998C33.2152 9.83714 32.5489 8.36467 31.4416 7.25741C30.3343 6.15014 28.8619 5.48379 27.2992 5.38281C25.7366 5.28183 24.1906 5.75313 22.95 6.70868C21.7095 7.66423 20.8591 9.03868 20.5579 10.5753C20.2566 12.112 20.525 13.7058 21.313 15.059L20.4771 17.4065ZM26.8854 6.6507C27.6897 6.65006 28.483 6.83722 29.2021 7.19729C29.9213 7.55736 30.5464 8.08037 31.0277 8.72469C31.5091 9.369 31.8333 10.1168 31.9746 10.9085C32.1159 11.7003 32.0704 12.5141 31.8417 13.2851C31.613 14.0562 31.2074 14.7631 30.6572 15.3498C30.107 15.9364 29.4275 16.3864 28.6726 16.6641C27.9178 16.9417 27.1086 17.0392 26.3094 16.9489C25.5103 16.8586 24.7433 16.5829 24.0694 16.1438C23.9865 16.0903 23.8924 16.0567 23.7944 16.0456C23.6963 16.0345 23.5971 16.0462 23.5043 16.0798L22.1398 16.5669L22.6275 15.2024C22.6607 15.1094 22.6718 15.01 22.6602 14.9119C22.6485 14.8139 22.6143 14.7199 22.5603 14.6373C22.0523 13.8579 21.7643 12.9558 21.7267 12.0263C21.6891 11.0968 21.9032 10.1743 22.3466 9.35649C22.7899 8.53863 23.4459 7.85571 24.2453 7.37988C25.0446 6.90406 25.9577 6.65301 26.888 6.65325L26.8854 6.6507Z" fill="#00BCBF"/>
<path d="M5.72 31.5602C6.78039 31.5602 7.64 30.7006 7.64 29.6402C7.64 28.5798 6.78039 27.7202 5.72 27.7202C4.65962 27.7202 3.8 28.5798 3.8 29.6402C3.8 30.7006 4.65962 31.5602 5.72 31.5602Z" fill="#00BCBF"/>
<path d="M0.756248 37.9601C0.756248 38.1299 0.823677 38.2927 0.9437 38.4127C1.06372 38.5327 1.22651 38.6001 1.39625 38.6001H9.85001C10.0197 38.6001 10.1825 38.5327 10.3026 38.4127C10.4226 38.2927 10.49 38.1299 10.49 37.9601C10.49 36.6694 9.97725 35.4315 9.06453 34.5187C8.15181 33.606 6.91391 33.0933 5.62313 33.0933C4.33235 33.0933 3.09444 33.606 2.18172 34.5187C1.26901 35.4315 0.756248 36.6694 0.756248 37.9601Z" fill="#00BCBF"/>
<path d="M19.8012 31.5602C20.8616 31.5602 21.7212 30.7006 21.7212 29.6402C21.7212 28.5798 20.8616 27.7202 19.8012 27.7202C18.7409 27.7202 17.8812 28.5798 17.8812 29.6402C17.8812 30.7006 18.7409 31.5602 19.8012 31.5602Z" fill="#00BCBF"/>
<path d="M14.8344 37.9601C14.8344 38.1299 14.9018 38.2927 15.0218 38.4127C15.1418 38.5327 15.3046 38.6001 15.4744 38.6001H23.9281C24.0979 38.6001 24.2607 38.5327 24.3807 38.4127C24.5007 38.2927 24.5681 38.1299 24.5681 37.9601C24.5681 36.6694 24.0554 35.4315 23.1427 34.5187C22.2299 33.606 20.992 33.0933 19.7013 33.0933C18.4105 33.0933 17.1726 33.606 16.2598 34.5187C15.3471 35.4315 14.8344 36.6694 14.8344 37.9601Z" fill="#00BCBF"/>
<path d="M33.8794 31.5602C34.9398 31.5602 35.7994 30.7006 35.7994 29.6402C35.7994 28.5798 34.9398 27.7202 33.8794 27.7202C32.819 27.7202 31.9594 28.5798 31.9594 29.6402C31.9594 30.7006 32.819 31.5602 33.8794 31.5602Z" fill="#00BCBF"/>
<path d="M28.9147 37.9604C28.9147 38.1301 28.9821 38.2929 29.1021 38.4129C29.2221 38.533 29.3849 38.6004 29.5547 38.6004H38.0084C38.1782 38.6004 38.3409 38.533 38.461 38.4129C38.581 38.2929 38.6484 38.1301 38.6484 37.9604C38.6484 36.6696 38.1357 35.4317 37.2229 34.519C36.3102 33.6063 35.0723 33.0935 33.7815 33.0935C32.4908 33.0935 31.2528 33.6063 30.3401 34.519C29.4274 35.4317 28.9147 36.6696 28.9147 37.9604ZM12.8123 12.4455C13.3271 12.4455 13.8303 12.2928 14.2584 12.0068C14.6865 11.7208 15.0201 11.3142 15.2171 10.8386C15.414 10.3629 15.4656 9.83952 15.3651 9.33459C15.2646 8.82967 15.0166 8.36588 14.6525 8.00189C14.2885 7.63789 13.8246 7.39004 13.3197 7.28968C12.8147 7.18932 12.2913 7.24096 11.8157 7.43806C11.3401 7.63517 10.9337 7.96888 10.6477 8.39701C10.3618 8.82514 10.2092 9.32844 10.2094 9.84327C10.2102 10.5333 10.4847 11.1948 10.9727 11.6826C11.4607 12.1705 12.1222 12.4448 12.8123 12.4455ZM25.8721 14.0244L29.4382 12.1153C29.4888 12.0881 29.5313 12.0478 29.561 11.9985C29.5907 11.9493 29.6065 11.8929 29.6069 11.8354C29.6073 11.7779 29.5922 11.7214 29.5632 11.6718C29.5342 11.6221 29.4923 11.5812 29.442 11.5533L25.8759 9.58151C25.8272 9.55455 25.7723 9.54078 25.7166 9.54156C25.6609 9.54234 25.6063 9.55764 25.5584 9.58596C25.5104 9.61427 25.4707 9.65462 25.4431 9.703C25.4155 9.75138 25.401 9.80613 25.4011 9.86183V13.7421C25.401 13.7975 25.4153 13.8518 25.4426 13.9C25.4699 13.9481 25.5091 13.9883 25.5566 14.0168C25.604 14.0452 25.658 14.0608 25.7133 14.0622C25.7686 14.0635 25.8233 14.0505 25.8721 14.0244Z" fill="#00BCBF"/>
</svg>
