<svg width="82" height="38" viewBox="0 0 82 38" fill="none" xmlns="http://www.w3.org/2000/svg">
<path d="M0.83806 9.07214C11.9477 0.724853 30.4701 0.147519 45.7613 3.83935C53.3022 5.65673 60.8279 9.23553 63.8237 15.2344C65.1004 17.8359 65.4384 20.6945 64.1264 23.1497C63.3405 24.6428 61.8511 26.1777 59.5031 26.1401C55.9295 26.0787 55.4886 22.9526 57.6258 21.499C61.6101 18.8228 68.0683 23.2131 70.8863 25.651C74.1883 28.5093 76.5126 31.8873 78.5074 35.3169C79.0719 36.2905 80.8862 35.6055 80.3123 34.6355C77.9079 30.5387 74.9413 26.479 70.6136 23.3076C67.4778 21.0043 63.0656 18.6818 58.7643 19.3864C55.6345 19.9065 53.2731 22.6655 54.6577 25.2165C56.0956 27.9079 60.5196 28.2561 63.0866 26.898C70.2819 23.1313 66.6223 13.964 61.4105 9.40956C54.1596 3.07156 42.1207 1.01166 32.1441 0.517473C20.255 -0.0523706 8.22605 2.09085 0.155607 8.49323C-0.220312 8.80536 0.419214 9.36643 0.830966 9.04564L0.83806 9.07214Z" fill="#2B95ED"/>
<path d="M70.6537 34.4503C71.8655 33.0574 77.5879 36.1277 78.5863 36.5773C79.4349 36.9616 80.437 37.4354 81.3758 36.8343C82.3801 36.195 81.8979 34.7483 81.8292 33.9348C81.6589 31.9264 81.5789 29.9181 81.2879 27.9276C81.1482 26.9553 79.3157 27.1826 79.3402 28.1168C79.3907 29.7472 79.5822 31.3795 79.724 33.004C79.7565 33.3644 80.2323 35.2153 79.7334 35.4013C79.1663 35.1664 78.6243 34.898 78.1126 34.5986C76.1132 33.7378 72.2993 32.4035 70.0364 33.3565C69.8953 33.4053 69.7775 33.486 69.699 33.5874C69.6205 33.6889 69.5852 33.8063 69.5979 33.9236L69.6287 34.2481C69.6364 34.3354 69.6802 34.4186 69.7537 34.486C69.8272 34.5535 69.9267 34.6017 70.0383 34.6239C70.1499 34.6461 70.2679 34.6411 70.3755 34.6097C70.4832 34.5782 70.5751 34.522 70.6383 34.4488L70.6537 34.4503Z" fill="#2B95ED"/>
</svg>
