<svg width="112" height="91" viewBox="0 0 112 91" fill="none" xmlns="http://www.w3.org/2000/svg">
<path fill-rule="evenodd" clip-rule="evenodd" d="M55.6 0C54.8859 0 54.307 0.578203 54.307 1.29143V89.1086C54.307 89.8218 54.8859 90.4 55.6 90.4C56.3141 90.4 56.893 89.8218 56.893 89.1086V1.29143C56.893 0.578203 56.3141 0 55.6 0ZM46.5488 12.9143C45.8348 12.9143 45.2558 13.4924 45.2558 14.2057V89.1086C45.2558 89.8218 45.8348 90.4 46.5488 90.4C47.2629 90.4 47.8419 89.8218 47.8419 89.1086V14.2057C47.8419 13.4924 47.2629 12.9143 46.5488 12.9143ZM37.4977 25.8286C36.7836 25.8286 36.2047 26.4067 36.2047 27.12V89.1086C36.2047 89.8218 36.7836 90.4 37.4977 90.4C38.2117 90.4 38.7907 89.8218 38.7907 89.1086V27.12C38.7907 26.4067 38.2117 25.8286 37.4977 25.8286ZM28.4465 38.7429C27.7324 38.7429 27.1535 39.321 27.1535 40.0343V89.1086C27.1535 89.8218 27.7324 90.4 28.4465 90.4C29.1606 90.4 29.7395 89.8218 29.7395 89.1086V40.0343C29.7395 39.321 29.1606 38.7429 28.4465 38.7429ZM19.3953 51.6571C18.6813 51.6571 18.1023 52.2353 18.1023 52.9486V89.1086C18.1023 89.8218 18.6813 90.4 19.3953 90.4C20.1094 90.4 20.6884 89.8218 20.6884 89.1086V52.9486C20.6884 52.2353 20.1094 51.6571 19.3953 51.6571ZM10.3442 64.5714C9.63012 64.5714 9.05116 65.1496 9.05116 65.8629V89.1086C9.05116 89.8218 9.63012 90.4 10.3442 90.4C11.0583 90.4 11.6372 89.8218 11.6372 89.1086V65.8629C11.6372 65.1496 11.0583 64.5714 10.3442 64.5714ZM0 78.7771C0 78.0639 0.578956 77.4857 1.29302 77.4857C2.00709 77.4857 2.58605 78.0639 2.58605 78.7771V89.1086C2.58605 89.8218 2.00709 90.4 1.29302 90.4C0.578956 90.4 0 89.8218 0 89.1086V78.7771ZM111.2 78.7771C111.2 78.0639 110.621 77.4857 109.907 77.4857C109.193 77.4857 108.614 78.0639 108.614 78.7771V89.1086C108.614 89.8218 109.193 90.4 109.907 90.4C110.621 90.4 111.2 89.8218 111.2 89.1086V78.7771ZM102.149 65.8629C102.149 65.1496 101.57 64.5714 100.856 64.5714C100.142 64.5714 99.5628 65.1496 99.5628 65.8629V89.1086C99.5628 89.8218 100.142 90.4 100.856 90.4C101.57 90.4 102.149 89.8218 102.149 89.1086V65.8629ZM93.0977 52.9486C93.0977 52.2353 92.5187 51.6571 91.8046 51.6571C91.0906 51.6571 90.5116 52.2353 90.5116 52.9486V89.1086C90.5116 89.8218 91.0906 90.4 91.8046 90.4C92.5187 90.4 93.0977 89.8218 93.0977 89.1086V52.9486ZM84.0465 40.0343C84.0465 39.321 83.4676 38.7429 82.7535 38.7429C82.0394 38.7429 81.4605 39.321 81.4605 40.0343V89.1086C81.4605 89.8218 82.0394 90.4 82.7535 90.4C83.4676 90.4 84.0465 89.8218 84.0465 89.1086V40.0343ZM74.9953 27.12C74.9953 26.4067 74.4164 25.8286 73.7023 25.8286C72.9883 25.8286 72.4093 26.4067 72.4093 27.12V89.1086C72.4093 89.8218 72.9883 90.4 73.7023 90.4C74.4164 90.4 74.9953 89.8218 74.9953 89.1086V27.12ZM65.9442 14.2057C65.9442 13.4924 65.3652 12.9143 64.6512 12.9143C63.9371 12.9143 63.3581 13.4924 63.3581 14.2057V89.1086C63.3581 89.8218 63.9371 90.4 64.6512 90.4C65.3652 90.4 65.9442 89.8218 65.9442 89.1086V14.2057Z" fill="url(#paint0_linear_1_1088)"/>
<defs>
<linearGradient id="paint0_linear_1_1088" x1="127.669" y1="-125.989" x2="78.0172" y2="109.934" gradientUnits="userSpaceOnUse">
<stop stop-color="#2B95ED"/>
<stop offset="0.698362" stop-color="#2B95ED"/>
<stop offset="0.886612" stop-color="#14CBD5"/>
</linearGradient>
</defs>
</svg>
