<svg width="1512" height="370" viewBox="0 0 1512 370" fill="none" xmlns="http://www.w3.org/2000/svg">
<path fill-rule="evenodd" clip-rule="evenodd" d="M-1 47.9692L35.5883 54.6782C70.915 61.3871 142.83 74.8051 214.745 61.3871C287.922 47.9692 359.837 7.71532 431.752 1.00635C503.667 -5.70263 575.582 21.1333 647.497 81.5141C719.412 141.895 792.588 235.82 864.503 255.947C936.418 276.074 1008.33 222.403 1080.25 188.858C1152.16 155.313 1224.08 141.895 1297.26 168.731C1369.17 195.567 1564.09 178.299 1543 250.5L1513 329.746V370H1476.41C1441.08 370 1369.17 370 1297.26 370C1224.08 370 1152.16 370 1080.25 370C1008.33 370 936.418 370 864.503 370C792.588 370 719.412 370 647.497 370C575.582 370 503.667 370 431.752 370C359.837 370 287.922 370 214.745 370C142.83 370 70.915 370 35.5883 370H-1V47.9692Z" fill="url(#paint0_linear_1_724)"/>
<defs>
<linearGradient id="paint0_linear_1_724" x1="756" y1="0" x2="756" y2="510.696" gradientUnits="userSpaceOnUse">
<stop stop-color="#1DDDDF"/>
<stop offset="1" stop-color="#107879"/>
</linearGradient>
</defs>
</svg>
