<svg width="104" height="118" viewBox="0 0 104 118" fill="none" xmlns="http://www.w3.org/2000/svg">
<path d="M41.7548 4.91506L45.2516 2.89619L46.0016 4.19523L47.75 3.18579C48.4023 2.80916 49.0918 2.52614 49.7999 2.33643L49.4118 0.887522C51.1066 0.433499 52.8934 0.433499 54.5882 0.887523L54.2001 2.33643C54.9082 2.52614 55.5977 2.80916 56.25 3.18579L57.9984 4.19522L58.7484 2.89619L62.2452 4.91506L61.4952 6.2141L64.992 8.23298L65.742 6.93394L69.2388 8.95281L68.4888 10.2519L71.9856 12.2707L72.7356 10.9717L76.2324 12.9906L75.4824 14.2896L78.9792 16.3085L79.7292 15.0094L83.226 17.0283L82.476 18.3273L85.9727 20.3462L86.7227 19.0472L90.2195 21.0661L89.4695 22.3651L92.9663 24.384L93.7163 23.0849L97.2131 25.1038L96.4631 26.4028L98.2115 27.4123C98.8639 27.7889 99.4537 28.2445 99.972 28.7629L101.033 27.7023C102.273 28.943 103.167 30.4905 103.621 32.1852L102.172 32.5735C102.362 33.2817 102.462 34.0202 102.462 34.7735V36.7924H103.962V40.8301H102.462V44.8679H103.962V48.9056H102.462V52.9434H103.962V56.9811H102.462V61.0189H103.962V65.0566H102.462V69.0944H103.962V73.1321H102.462V77.1699H103.962V81.2076H102.462V83.2265C102.462 83.9798 102.362 84.7183 102.172 85.4265L103.621 85.8148C103.167 87.5095 102.273 89.057 101.033 90.2977L99.972 89.2371C99.4537 89.7555 98.8639 90.2111 98.2115 90.5877L96.4631 91.5972L97.2131 92.8962L93.7163 94.9151L92.9663 93.616L89.4695 95.6349L90.2195 96.9339L86.7227 98.9528L85.9727 97.6538L82.476 99.6726L83.226 100.972L79.7292 102.991L78.9792 101.692L75.4824 103.71L76.2324 105.009L72.7356 107.028L71.9856 105.729L68.4888 107.748L69.2388 109.047L65.742 111.066L64.992 109.767L61.4952 111.786L62.2452 113.085L58.7484 115.104L57.9984 113.805L56.25 114.814C55.5977 115.191 54.9082 115.474 54.2001 115.664L54.5882 117.112C52.8934 117.567 51.1066 117.567 49.4118 117.112L49.7999 115.664C49.0918 115.474 48.4023 115.191 47.75 114.814L46.0016 113.805L45.2516 115.104L41.7548 113.085L42.5048 111.786L39.008 109.767L38.258 111.066L34.7612 109.047L35.5112 107.748L32.0144 105.729L31.2644 107.028L27.7676 105.009L28.5176 103.71L25.0208 101.692L24.2708 102.991L20.774 100.972L21.524 99.6726L18.0273 97.6538L17.2773 98.9528L13.7805 96.9339L14.5305 95.6349L11.0337 93.616L10.2837 94.9151L6.78687 92.8962L7.53687 91.5971L5.78847 90.5877C5.13613 90.2111 4.54632 89.7555 4.02795 89.2371L2.96723 90.2977C1.72663 89.057 0.833216 87.5095 0.379001 85.8148L1.82787 85.4265C1.63808 84.7183 1.53848 83.9798 1.53848 83.2265V81.2076H0.038475V77.1699H1.53848V73.1321H0.038475V69.0944H1.53848V65.0566H0.038475V61.0189H1.53848V56.9811H0.038475V52.9434H1.53848V48.9056H0.038475V44.8679H1.53848V40.8301H0.038475V36.7924H1.53848V34.7735C1.53848 34.0202 1.63808 33.2817 1.82787 32.5735L0.379001 32.1852C0.833216 30.4905 1.72663 28.943 2.96723 27.7023L4.02795 28.7629C4.54632 28.2445 5.13614 27.7889 5.78848 27.4123L7.53687 26.4029L6.78687 25.1038L10.2837 23.0849L11.0337 24.384L14.5305 22.3651L13.7805 21.0661L17.2773 19.0472L18.0273 20.3462L21.524 18.3274L20.774 17.0283L24.2708 15.0094L25.0208 16.3085L28.5176 14.2896L27.7676 12.9906L31.2644 10.9717L32.0144 12.2707L35.5112 10.2519L34.7612 8.95281L38.258 6.93394L39.008 8.23298L42.5048 6.2141L41.7548 4.91506Z" stroke="white" stroke-width="3" stroke-dasharray="4 4"/>
</svg>
