<svg width="135" height="156" viewBox="0 0 135 156" fill="none" xmlns="http://www.w3.org/2000/svg">
<path d="M81.2085 93.6198L81.0396 93.4623L80.8188 93.3948L30.2634 77.9422L80.8188 62.4897L81.0396 62.4222L81.2085 62.2647L119.869 26.2087L107.973 77.7172L107.921 77.9422L107.973 78.1673L119.869 129.676L81.2085 93.6198ZM116.026 77.7173L115.974 77.9423L116.026 78.1673L133.289 152.922L77.182 100.594L77.0132 100.436L76.7923 100.369L3.42106 77.9423L76.7923 55.5159L77.0132 55.4484L77.182 55.2909L133.289 2.96273L116.026 77.7173ZM124.318 139.295L126.711 141.527L125.975 138.339L112.026 77.9422L125.975 17.5455L126.711 14.3577L124.318 16.5892L78.987 58.8669L19.7079 76.9859L16.5791 77.9422L19.7079 78.8986L78.987 97.0176L124.318 139.295Z" fill="white" stroke="#1DDDDF" stroke-width="2"/>
</svg>
