<svg width="146" height="168" viewBox="0 0 146 168" fill="none" xmlns="http://www.w3.org/2000/svg">
<path d="M16.226 139.991L58.2313 100.952L58.4002 100.795L58.6207 100.728L113.539 83.9999L58.6207 67.2724L58.4002 67.2052L58.2313 67.0482L16.226 28.0085L29.1495 83.7742L29.2018 83.9999L29.1495 84.2257L16.226 139.991ZM20.4408 83.7742L20.4932 84L20.4408 84.2258L1.71152 165.044L62.5859 108.467L62.7548 108.311L62.9753 108.243L142.568 84L62.9753 59.7566L62.7548 59.6894L62.5859 59.5325L1.71152 2.95588L20.4408 83.7742ZM11.4954 150.066L9.10312 152.289L9.84045 149.108L24.9289 83.9999L9.84047 18.8924L9.10313 15.7107L11.4954 17.9341L60.534 63.5105L124.662 83.0433L127.802 83.9999L124.662 84.9566L60.534 104.489L11.4954 150.066Z" fill="white" stroke="#1DDDDF" stroke-width="2"/>
</svg>
