<svg width="285" height="280" viewBox="0 0 285 280" fill="none" xmlns="http://www.w3.org/2000/svg">
<path d="M200.189 1.77074L208.157 0.900127L208.374 2.88829L210.914 2.61082L211.962 4.9402L213.786 4.11922L217.076 11.428L215.253 12.249L218.543 19.5579L220.367 18.7369L223.657 26.0457L221.833 26.8667L225.123 34.1755L226.947 33.3545L230.237 40.6633L228.413 41.4843L231.704 48.7932L233.527 47.9722L236.818 55.281L234.994 56.102L238.284 63.4108L240.108 62.5898L243.398 69.8986L241.574 70.7196L244.864 78.0284L246.688 77.2074L249.978 84.5163L248.155 85.3373L251.445 92.6461L253.269 91.8251L256.559 99.1339L254.735 99.9549L258.025 107.264L259.849 106.443L263.139 113.752L261.315 114.573L264.606 121.881L266.429 121.06L269.72 128.369L267.896 129.19L271.186 136.499L273.01 135.678L276.3 142.987L274.476 143.808L277.766 151.117L279.59 150.296L282.88 157.604L281.057 158.425L282.105 160.755L280.214 162.472L281.558 163.953L275.624 169.34L274.28 167.86L268.345 173.247L269.689 174.728L263.755 180.116L262.411 178.635L256.476 184.023L257.821 185.504L251.886 190.891L250.542 189.411L244.608 194.798L245.952 196.279L240.018 201.667L238.673 200.186L232.739 205.574L234.083 207.054L228.149 212.442L226.804 210.961L220.87 216.349L222.214 217.83L216.28 223.218L214.936 221.737L209.001 227.125L210.346 228.605L204.411 233.993L203.067 232.512L197.133 237.9L198.477 239.381L192.543 244.768L191.198 243.288L185.264 248.675L186.608 250.156L180.674 255.544L179.33 254.063L173.395 259.451L174.739 260.932L168.805 266.319L167.461 264.839L161.526 270.226L162.871 271.707L156.936 277.095L155.592 275.614L153.701 277.331L151.483 276.063L150.49 277.799L143.532 273.82L144.525 272.084L137.567 268.105L136.575 269.841L129.617 265.862L130.61 264.126L123.652 260.147L122.659 261.883L115.701 257.904L116.694 256.168L109.736 252.189L108.743 253.925L101.785 249.946L102.778 248.21L95.8204 244.231L94.8275 245.967L87.8697 241.988L88.8625 240.252L81.9047 236.273L80.9118 238.009L73.954 234.03L74.9468 232.294L67.989 228.315L66.9961 230.051L60.0383 226.072L61.0311 224.336L54.0733 220.357L53.0804 222.093L46.1226 218.114L47.1155 216.378L40.1576 212.398L39.1647 214.135L32.2069 210.156L33.1998 208.419L26.2419 204.44L25.2491 206.177L18.2912 202.198L19.2841 200.461L12.3262 196.482L11.3334 198.219L4.37552 194.24L5.36839 192.503L3.15085 191.235L3.67168 188.734L1.71369 188.327L3.34788 180.48L5.30587 180.887L6.94006 173.041L4.98208 172.633L6.61626 164.786L8.57426 165.194L10.2084 157.347L8.25046 156.939L9.88465 149.092L11.8426 149.5L13.4768 141.653L11.5188 141.245L13.153 133.398L15.111 133.806L16.7452 125.959L14.7872 125.551L16.4214 117.705L18.3794 118.112L20.0136 110.265L18.0556 109.858L19.6898 102.011L21.6478 102.418L23.282 94.5716L21.324 94.1638L22.9582 86.3169L24.9161 86.7247L26.5503 78.8778L24.5923 78.4701L26.2265 70.6232L28.1845 71.0309L29.8187 63.1841L27.8607 62.7763L29.4949 54.9294L31.4529 55.3371L33.0871 47.4903L31.1291 47.0825L32.7633 39.2356L34.7213 39.6434L36.3555 31.7965L34.3975 31.3887L36.0317 23.5418L37.9897 23.9496L38.5105 21.4487L41.0499 21.1712L40.8327 19.1831L48.8005 18.3125L49.0177 20.3006L56.9856 19.43L56.7683 17.4418L64.7362 16.5712L64.9534 18.5594L72.9212 17.6888L72.704 15.7006L80.6718 14.83L80.8891 16.8182L88.8569 15.9475L88.6397 13.9594L96.6075 13.0888L96.8247 15.0769L104.793 14.2063L104.575 12.2181L112.543 11.3475L112.76 13.3357L120.728 12.4651L120.511 10.4769L128.479 9.60629L128.696 11.5945L136.664 10.7238L136.447 8.73567L144.414 7.86506L144.632 9.85322L152.6 8.98261L152.382 6.99444L160.35 6.12382L160.567 8.11199L168.535 7.24137L168.318 5.25321L176.286 4.38259L176.503 6.37076L184.471 5.50014L184.254 3.51198L192.221 2.64136L192.439 4.62953L200.407 3.75891L200.189 1.77074Z" stroke="url(#paint0_linear_1_729)" stroke-width="4" stroke-dasharray="8 8"/>
<defs>
<linearGradient id="paint0_linear_1_729" x1="588.482" y1="-265.959" x2="35.8901" y2="300.728" gradientUnits="userSpaceOnUse">
<stop stop-color="#2B95ED"/>
<stop offset="0.536349" stop-color="#282829"/>
<stop offset="0.698362" stop-color="#2B95ED"/>
<stop offset="0.886612" stop-color="#14CBD5"/>
</linearGradient>
</defs>
</svg>
