<svg width="155" height="170" viewBox="0 0 155 170" fill="none" xmlns="http://www.w3.org/2000/svg">
<path d="M5.00391 2.5C5.00391 3.88071 3.88462 5 2.50391 5C1.12319 5 0.00390625 3.88071 0.00390625 2.5C0.00390625 1.11929 1.12319 0 2.50391 0C3.88462 0 5.00391 1.11929 5.00391 2.5Z" fill="#1DDDDF"/>
<path d="M20.0039 2.5C20.0039 3.88071 18.8846 5 17.5039 5C16.1232 5 15.0039 3.88071 15.0039 2.5C15.0039 1.11929 16.1232 0 17.5039 0C18.8846 0 20.0039 1.11929 20.0039 2.5Z" fill="#1DDDDF"/>
<path d="M35.0039 2.5C35.0039 3.88071 33.8846 5 32.5039 5C31.1232 5 30.0039 3.88071 30.0039 2.5C30.0039 1.11929 31.1232 0 32.5039 0C33.8846 0 35.0039 1.11929 35.0039 2.5Z" fill="#1DDDDF"/>
<path d="M50.0039 2.5C50.0039 3.88071 48.8846 5 47.5039 5C46.1232 5 45.0039 3.88071 45.0039 2.5C45.0039 1.11929 46.1232 0 47.5039 0C48.8846 0 50.0039 1.11929 50.0039 2.5Z" fill="#1DDDDF"/>
<path d="M65.0039 2.5C65.0039 3.88071 63.8846 5 62.5039 5C61.1232 5 60.0039 3.88071 60.0039 2.5C60.0039 1.11929 61.1232 0 62.5039 0C63.8846 0 65.0039 1.11929 65.0039 2.5Z" fill="#1DDDDF"/>
<path d="M80.0039 2.5C80.0039 3.88071 78.8846 5 77.5039 5C76.1232 5 75.0039 3.88071 75.0039 2.5C75.0039 1.11929 76.1232 0 77.5039 0C78.8846 0 80.0039 1.11929 80.0039 2.5Z" fill="#1DDDDF"/>
<path d="M95.0039 2.5C95.0039 3.88071 93.8846 5 92.5039 5C91.1232 5 90.0039 3.88071 90.0039 2.5C90.0039 1.11929 91.1232 0 92.5039 0C93.8846 0 95.0039 1.11929 95.0039 2.5Z" fill="#1DDDDF"/>
<path d="M110.004 2.5C110.004 3.88071 108.885 5 107.504 5C106.123 5 105.004 3.88071 105.004 2.5C105.004 1.11929 106.123 0 107.504 0C108.885 0 110.004 1.11929 110.004 2.5Z" fill="#1DDDDF"/>
<path d="M125.004 2.5C125.004 3.88071 123.885 5 122.504 5C121.123 5 120.004 3.88071 120.004 2.5C120.004 1.11929 121.123 0 122.504 0C123.885 0 125.004 1.11929 125.004 2.5Z" fill="#1DDDDF"/>
<path d="M140.004 2.5C140.004 3.88071 138.885 5 137.504 5C136.123 5 135.004 3.88071 135.004 2.5C135.004 1.11929 136.123 0 137.504 0C138.885 0 140.004 1.11929 140.004 2.5Z" fill="#1DDDDF"/>
<path d="M155.004 2.5C155.004 3.88071 153.885 5 152.504 5C151.123 5 150.004 3.88071 150.004 2.5C150.004 1.11929 151.123 0 152.504 0C153.885 0 155.004 1.11929 155.004 2.5Z" fill="#1DDDDF"/>
<path d="M5.00391 17.5C5.00391 18.8807 3.88462 20 2.50391 20C1.12319 20 0.00390625 18.8807 0.00390625 17.5C0.00390625 16.1193 1.12319 15 2.50391 15C3.88462 15 5.00391 16.1193 5.00391 17.5Z" fill="#1DDDDF"/>
<path d="M20.0039 17.5C20.0039 18.8807 18.8846 20 17.5039 20C16.1232 20 15.0039 18.8807 15.0039 17.5C15.0039 16.1193 16.1232 15 17.5039 15C18.8846 15 20.0039 16.1193 20.0039 17.5Z" fill="#1DDDDF"/>
<path d="M35.0039 17.5C35.0039 18.8807 33.8846 20 32.5039 20C31.1232 20 30.0039 18.8807 30.0039 17.5C30.0039 16.1193 31.1232 15 32.5039 15C33.8846 15 35.0039 16.1193 35.0039 17.5Z" fill="#1DDDDF"/>
<path d="M50.0039 17.5C50.0039 18.8807 48.8846 20 47.5039 20C46.1232 20 45.0039 18.8807 45.0039 17.5C45.0039 16.1193 46.1232 15 47.5039 15C48.8846 15 50.0039 16.1193 50.0039 17.5Z" fill="#1DDDDF"/>
<path d="M65.0039 17.5C65.0039 18.8807 63.8846 20 62.5039 20C61.1232 20 60.0039 18.8807 60.0039 17.5C60.0039 16.1193 61.1232 15 62.5039 15C63.8846 15 65.0039 16.1193 65.0039 17.5Z" fill="#1DDDDF"/>
<path d="M80.0039 17.5C80.0039 18.8807 78.8846 20 77.5039 20C76.1232 20 75.0039 18.8807 75.0039 17.5C75.0039 16.1193 76.1232 15 77.5039 15C78.8846 15 80.0039 16.1193 80.0039 17.5Z" fill="#1DDDDF"/>
<path d="M95.0039 17.5C95.0039 18.8807 93.8846 20 92.5039 20C91.1232 20 90.0039 18.8807 90.0039 17.5C90.0039 16.1193 91.1232 15 92.5039 15C93.8846 15 95.0039 16.1193 95.0039 17.5Z" fill="#1DDDDF"/>
<path d="M110.004 17.5C110.004 18.8807 108.885 20 107.504 20C106.123 20 105.004 18.8807 105.004 17.5C105.004 16.1193 106.123 15 107.504 15C108.885 15 110.004 16.1193 110.004 17.5Z" fill="#1DDDDF"/>
<path d="M125.004 17.5C125.004 18.8807 123.885 20 122.504 20C121.123 20 120.004 18.8807 120.004 17.5C120.004 16.1193 121.123 15 122.504 15C123.885 15 125.004 16.1193 125.004 17.5Z" fill="#1DDDDF"/>
<path d="M140.004 17.5C140.004 18.8807 138.885 20 137.504 20C136.123 20 135.004 18.8807 135.004 17.5C135.004 16.1193 136.123 15 137.504 15C138.885 15 140.004 16.1193 140.004 17.5Z" fill="#1DDDDF"/>
<path d="M155.004 17.5C155.004 18.8807 153.885 20 152.504 20C151.123 20 150.004 18.8807 150.004 17.5C150.004 16.1193 151.123 15 152.504 15C153.885 15 155.004 16.1193 155.004 17.5Z" fill="#1DDDDF"/>
<path d="M5.00391 32.5C5.00391 33.8807 3.88462 35 2.50391 35C1.12319 35 0.00390625 33.8807 0.00390625 32.5C0.00390625 31.1193 1.12319 30 2.50391 30C3.88462 30 5.00391 31.1193 5.00391 32.5Z" fill="#1DDDDF"/>
<path d="M20.0039 32.5C20.0039 33.8807 18.8846 35 17.5039 35C16.1232 35 15.0039 33.8807 15.0039 32.5C15.0039 31.1193 16.1232 30 17.5039 30C18.8846 30 20.0039 31.1193 20.0039 32.5Z" fill="#1DDDDF"/>
<path d="M35.0039 32.5C35.0039 33.8807 33.8846 35 32.5039 35C31.1232 35 30.0039 33.8807 30.0039 32.5C30.0039 31.1193 31.1232 30 32.5039 30C33.8846 30 35.0039 31.1193 35.0039 32.5Z" fill="#1DDDDF"/>
<path d="M50.0039 32.5C50.0039 33.8807 48.8846 35 47.5039 35C46.1232 35 45.0039 33.8807 45.0039 32.5C45.0039 31.1193 46.1232 30 47.5039 30C48.8846 30 50.0039 31.1193 50.0039 32.5Z" fill="#1DDDDF"/>
<path d="M65.0039 32.5C65.0039 33.8807 63.8846 35 62.5039 35C61.1232 35 60.0039 33.8807 60.0039 32.5C60.0039 31.1193 61.1232 30 62.5039 30C63.8846 30 65.0039 31.1193 65.0039 32.5Z" fill="#1DDDDF"/>
<path d="M80.0039 32.5C80.0039 33.8807 78.8846 35 77.5039 35C76.1232 35 75.0039 33.8807 75.0039 32.5C75.0039 31.1193 76.1232 30 77.5039 30C78.8846 30 80.0039 31.1193 80.0039 32.5Z" fill="#1DDDDF"/>
<path d="M95.0039 32.5C95.0039 33.8807 93.8846 35 92.5039 35C91.1232 35 90.0039 33.8807 90.0039 32.5C90.0039 31.1193 91.1232 30 92.5039 30C93.8846 30 95.0039 31.1193 95.0039 32.5Z" fill="#1DDDDF"/>
<path d="M110.004 32.5C110.004 33.8807 108.885 35 107.504 35C106.123 35 105.004 33.8807 105.004 32.5C105.004 31.1193 106.123 30 107.504 30C108.885 30 110.004 31.1193 110.004 32.5Z" fill="#1DDDDF"/>
<path d="M125.004 32.5C125.004 33.8807 123.885 35 122.504 35C121.123 35 120.004 33.8807 120.004 32.5C120.004 31.1193 121.123 30 122.504 30C123.885 30 125.004 31.1193 125.004 32.5Z" fill="#1DDDDF"/>
<path d="M140.004 32.5C140.004 33.8807 138.885 35 137.504 35C136.123 35 135.004 33.8807 135.004 32.5C135.004 31.1193 136.123 30 137.504 30C138.885 30 140.004 31.1193 140.004 32.5Z" fill="#1DDDDF"/>
<path d="M155.004 32.5C155.004 33.8807 153.885 35 152.504 35C151.123 35 150.004 33.8807 150.004 32.5C150.004 31.1193 151.123 30 152.504 30C153.885 30 155.004 31.1193 155.004 32.5Z" fill="#1DDDDF"/>
<path d="M5.00391 47.5C5.00391 48.8807 3.88462 50 2.50391 50C1.12319 50 0.00390625 48.8807 0.00390625 47.5C0.00390625 46.1193 1.12319 45 2.50391 45C3.88462 45 5.00391 46.1193 5.00391 47.5Z" fill="#1DDDDF"/>
<path d="M20.0039 47.5C20.0039 48.8807 18.8846 50 17.5039 50C16.1232 50 15.0039 48.8807 15.0039 47.5C15.0039 46.1193 16.1232 45 17.5039 45C18.8846 45 20.0039 46.1193 20.0039 47.5Z" fill="#1DDDDF"/>
<path d="M35.0039 47.5C35.0039 48.8807 33.8846 50 32.5039 50C31.1232 50 30.0039 48.8807 30.0039 47.5C30.0039 46.1193 31.1232 45 32.5039 45C33.8846 45 35.0039 46.1193 35.0039 47.5Z" fill="#1DDDDF"/>
<path d="M50.0039 47.5C50.0039 48.8807 48.8846 50 47.5039 50C46.1232 50 45.0039 48.8807 45.0039 47.5C45.0039 46.1193 46.1232 45 47.5039 45C48.8846 45 50.0039 46.1193 50.0039 47.5Z" fill="#1DDDDF"/>
<path d="M65.0039 47.5C65.0039 48.8807 63.8846 50 62.5039 50C61.1232 50 60.0039 48.8807 60.0039 47.5C60.0039 46.1193 61.1232 45 62.5039 45C63.8846 45 65.0039 46.1193 65.0039 47.5Z" fill="#1DDDDF"/>
<path d="M80.0039 47.5C80.0039 48.8807 78.8846 50 77.5039 50C76.1232 50 75.0039 48.8807 75.0039 47.5C75.0039 46.1193 76.1232 45 77.5039 45C78.8846 45 80.0039 46.1193 80.0039 47.5Z" fill="#1DDDDF"/>
<path d="M95.0039 47.5C95.0039 48.8807 93.8846 50 92.5039 50C91.1232 50 90.0039 48.8807 90.0039 47.5C90.0039 46.1193 91.1232 45 92.5039 45C93.8846 45 95.0039 46.1193 95.0039 47.5Z" fill="#1DDDDF"/>
<path d="M110.004 47.5C110.004 48.8807 108.885 50 107.504 50C106.123 50 105.004 48.8807 105.004 47.5C105.004 46.1193 106.123 45 107.504 45C108.885 45 110.004 46.1193 110.004 47.5Z" fill="#1DDDDF"/>
<path d="M125.004 47.5C125.004 48.8807 123.885 50 122.504 50C121.123 50 120.004 48.8807 120.004 47.5C120.004 46.1193 121.123 45 122.504 45C123.885 45 125.004 46.1193 125.004 47.5Z" fill="#1DDDDF"/>
<path d="M140.004 47.5C140.004 48.8807 138.885 50 137.504 50C136.123 50 135.004 48.8807 135.004 47.5C135.004 46.1193 136.123 45 137.504 45C138.885 45 140.004 46.1193 140.004 47.5Z" fill="#1DDDDF"/>
<path d="M155.004 47.5C155.004 48.8807 153.885 50 152.504 50C151.123 50 150.004 48.8807 150.004 47.5C150.004 46.1193 151.123 45 152.504 45C153.885 45 155.004 46.1193 155.004 47.5Z" fill="#1DDDDF"/>
<path d="M5.00391 62.5C5.00391 63.8807 3.88462 65 2.50391 65C1.12319 65 0.00390625 63.8807 0.00390625 62.5C0.00390625 61.1193 1.12319 60 2.50391 60C3.88462 60 5.00391 61.1193 5.00391 62.5Z" fill="#1DDDDF"/>
<path d="M20.0039 62.5C20.0039 63.8807 18.8846 65 17.5039 65C16.1232 65 15.0039 63.8807 15.0039 62.5C15.0039 61.1193 16.1232 60 17.5039 60C18.8846 60 20.0039 61.1193 20.0039 62.5Z" fill="#1DDDDF"/>
<path d="M35.0039 62.5C35.0039 63.8807 33.8846 65 32.5039 65C31.1232 65 30.0039 63.8807 30.0039 62.5C30.0039 61.1193 31.1232 60 32.5039 60C33.8846 60 35.0039 61.1193 35.0039 62.5Z" fill="#1DDDDF"/>
<path d="M50.0039 62.5C50.0039 63.8807 48.8846 65 47.5039 65C46.1232 65 45.0039 63.8807 45.0039 62.5C45.0039 61.1193 46.1232 60 47.5039 60C48.8846 60 50.0039 61.1193 50.0039 62.5Z" fill="#1DDDDF"/>
<path d="M65.0039 62.5C65.0039 63.8807 63.8846 65 62.5039 65C61.1232 65 60.0039 63.8807 60.0039 62.5C60.0039 61.1193 61.1232 60 62.5039 60C63.8846 60 65.0039 61.1193 65.0039 62.5Z" fill="#1DDDDF"/>
<path d="M80.0039 62.5C80.0039 63.8807 78.8846 65 77.5039 65C76.1232 65 75.0039 63.8807 75.0039 62.5C75.0039 61.1193 76.1232 60 77.5039 60C78.8846 60 80.0039 61.1193 80.0039 62.5Z" fill="#1DDDDF"/>
<path d="M95.0039 62.5C95.0039 63.8807 93.8846 65 92.5039 65C91.1232 65 90.0039 63.8807 90.0039 62.5C90.0039 61.1193 91.1232 60 92.5039 60C93.8846 60 95.0039 61.1193 95.0039 62.5Z" fill="#1DDDDF"/>
<path d="M110.004 62.5C110.004 63.8807 108.885 65 107.504 65C106.123 65 105.004 63.8807 105.004 62.5C105.004 61.1193 106.123 60 107.504 60C108.885 60 110.004 61.1193 110.004 62.5Z" fill="#1DDDDF"/>
<path d="M125.004 62.5C125.004 63.8807 123.885 65 122.504 65C121.123 65 120.004 63.8807 120.004 62.5C120.004 61.1193 121.123 60 122.504 60C123.885 60 125.004 61.1193 125.004 62.5Z" fill="#1DDDDF"/>
<path d="M140.004 62.5C140.004 63.8807 138.885 65 137.504 65C136.123 65 135.004 63.8807 135.004 62.5C135.004 61.1193 136.123 60 137.504 60C138.885 60 140.004 61.1193 140.004 62.5Z" fill="#1DDDDF"/>
<path d="M155.004 62.5C155.004 63.8807 153.885 65 152.504 65C151.123 65 150.004 63.8807 150.004 62.5C150.004 61.1193 151.123 60 152.504 60C153.885 60 155.004 61.1193 155.004 62.5Z" fill="#1DDDDF"/>
<path d="M5.00391 77.5C5.00391 78.8807 3.88462 80 2.50391 80C1.12319 80 0.00390625 78.8807 0.00390625 77.5C0.00390625 76.1193 1.12319 75 2.50391 75C3.88462 75 5.00391 76.1193 5.00391 77.5Z" fill="#1DDDDF"/>
<path d="M20.0039 77.5C20.0039 78.8807 18.8846 80 17.5039 80C16.1232 80 15.0039 78.8807 15.0039 77.5C15.0039 76.1193 16.1232 75 17.5039 75C18.8846 75 20.0039 76.1193 20.0039 77.5Z" fill="#1DDDDF"/>
<path d="M35.0039 77.5C35.0039 78.8807 33.8846 80 32.5039 80C31.1232 80 30.0039 78.8807 30.0039 77.5C30.0039 76.1193 31.1232 75 32.5039 75C33.8846 75 35.0039 76.1193 35.0039 77.5Z" fill="#1DDDDF"/>
<path d="M50.0039 77.5C50.0039 78.8807 48.8846 80 47.5039 80C46.1232 80 45.0039 78.8807 45.0039 77.5C45.0039 76.1193 46.1232 75 47.5039 75C48.8846 75 50.0039 76.1193 50.0039 77.5Z" fill="#1DDDDF"/>
<path d="M65.0039 77.5C65.0039 78.8807 63.8846 80 62.5039 80C61.1232 80 60.0039 78.8807 60.0039 77.5C60.0039 76.1193 61.1232 75 62.5039 75C63.8846 75 65.0039 76.1193 65.0039 77.5Z" fill="#1DDDDF"/>
<path d="M80.0039 77.5C80.0039 78.8807 78.8846 80 77.5039 80C76.1232 80 75.0039 78.8807 75.0039 77.5C75.0039 76.1193 76.1232 75 77.5039 75C78.8846 75 80.0039 76.1193 80.0039 77.5Z" fill="#1DDDDF"/>
<path d="M95.0039 77.5C95.0039 78.8807 93.8846 80 92.5039 80C91.1232 80 90.0039 78.8807 90.0039 77.5C90.0039 76.1193 91.1232 75 92.5039 75C93.8846 75 95.0039 76.1193 95.0039 77.5Z" fill="#1DDDDF"/>
<path d="M110.004 77.5C110.004 78.8807 108.885 80 107.504 80C106.123 80 105.004 78.8807 105.004 77.5C105.004 76.1193 106.123 75 107.504 75C108.885 75 110.004 76.1193 110.004 77.5Z" fill="#1DDDDF"/>
<path d="M125.004 77.5C125.004 78.8807 123.885 80 122.504 80C121.123 80 120.004 78.8807 120.004 77.5C120.004 76.1193 121.123 75 122.504 75C123.885 75 125.004 76.1193 125.004 77.5Z" fill="#1DDDDF"/>
<path d="M140.004 77.5C140.004 78.8807 138.885 80 137.504 80C136.123 80 135.004 78.8807 135.004 77.5C135.004 76.1193 136.123 75 137.504 75C138.885 75 140.004 76.1193 140.004 77.5Z" fill="#1DDDDF"/>
<path d="M155.004 77.5C155.004 78.8807 153.885 80 152.504 80C151.123 80 150.004 78.8807 150.004 77.5C150.004 76.1193 151.123 75 152.504 75C153.885 75 155.004 76.1193 155.004 77.5Z" fill="#1DDDDF"/>
<path d="M5.00391 92.5C5.00391 93.8807 3.88462 95 2.50391 95C1.12319 95 0.00390625 93.8807 0.00390625 92.5C0.00390625 91.1193 1.12319 90 2.50391 90C3.88462 90 5.00391 91.1193 5.00391 92.5Z" fill="#1DDDDF"/>
<path d="M20.0039 92.5C20.0039 93.8807 18.8846 95 17.5039 95C16.1232 95 15.0039 93.8807 15.0039 92.5C15.0039 91.1193 16.1232 90 17.5039 90C18.8846 90 20.0039 91.1193 20.0039 92.5Z" fill="#1DDDDF"/>
<path d="M35.0039 92.5C35.0039 93.8807 33.8846 95 32.5039 95C31.1232 95 30.0039 93.8807 30.0039 92.5C30.0039 91.1193 31.1232 90 32.5039 90C33.8846 90 35.0039 91.1193 35.0039 92.5Z" fill="#1DDDDF"/>
<path d="M50.0039 92.5C50.0039 93.8807 48.8846 95 47.5039 95C46.1232 95 45.0039 93.8807 45.0039 92.5C45.0039 91.1193 46.1232 90 47.5039 90C48.8846 90 50.0039 91.1193 50.0039 92.5Z" fill="#1DDDDF"/>
<path d="M65.0039 92.5C65.0039 93.8807 63.8846 95 62.5039 95C61.1232 95 60.0039 93.8807 60.0039 92.5C60.0039 91.1193 61.1232 90 62.5039 90C63.8846 90 65.0039 91.1193 65.0039 92.5Z" fill="#1DDDDF"/>
<path d="M80.0039 92.5C80.0039 93.8807 78.8846 95 77.5039 95C76.1232 95 75.0039 93.8807 75.0039 92.5C75.0039 91.1193 76.1232 90 77.5039 90C78.8846 90 80.0039 91.1193 80.0039 92.5Z" fill="#1DDDDF"/>
<path d="M95.0039 92.5C95.0039 93.8807 93.8846 95 92.5039 95C91.1232 95 90.0039 93.8807 90.0039 92.5C90.0039 91.1193 91.1232 90 92.5039 90C93.8846 90 95.0039 91.1193 95.0039 92.5Z" fill="#1DDDDF"/>
<path d="M110.004 92.5C110.004 93.8807 108.885 95 107.504 95C106.123 95 105.004 93.8807 105.004 92.5C105.004 91.1193 106.123 90 107.504 90C108.885 90 110.004 91.1193 110.004 92.5Z" fill="#1DDDDF"/>
<path d="M125.004 92.5C125.004 93.8807 123.885 95 122.504 95C121.123 95 120.004 93.8807 120.004 92.5C120.004 91.1193 121.123 90 122.504 90C123.885 90 125.004 91.1193 125.004 92.5Z" fill="#1DDDDF"/>
<path d="M140.004 92.5C140.004 93.8807 138.885 95 137.504 95C136.123 95 135.004 93.8807 135.004 92.5C135.004 91.1193 136.123 90 137.504 90C138.885 90 140.004 91.1193 140.004 92.5Z" fill="#1DDDDF"/>
<path d="M155.004 92.5C155.004 93.8807 153.885 95 152.504 95C151.123 95 150.004 93.8807 150.004 92.5C150.004 91.1193 151.123 90 152.504 90C153.885 90 155.004 91.1193 155.004 92.5Z" fill="#1DDDDF"/>
<path d="M5.00391 107.5C5.00391 108.881 3.88462 110 2.50391 110C1.12319 110 0.00390625 108.881 0.00390625 107.5C0.00390625 106.119 1.12319 105 2.50391 105C3.88462 105 5.00391 106.119 5.00391 107.5Z" fill="#1DDDDF"/>
<path d="M20.0039 107.5C20.0039 108.881 18.8846 110 17.5039 110C16.1232 110 15.0039 108.881 15.0039 107.5C15.0039 106.119 16.1232 105 17.5039 105C18.8846 105 20.0039 106.119 20.0039 107.5Z" fill="#1DDDDF"/>
<path d="M35.0039 107.5C35.0039 108.881 33.8846 110 32.5039 110C31.1232 110 30.0039 108.881 30.0039 107.5C30.0039 106.119 31.1232 105 32.5039 105C33.8846 105 35.0039 106.119 35.0039 107.5Z" fill="#1DDDDF"/>
<path d="M50.0039 107.5C50.0039 108.881 48.8846 110 47.5039 110C46.1232 110 45.0039 108.881 45.0039 107.5C45.0039 106.119 46.1232 105 47.5039 105C48.8846 105 50.0039 106.119 50.0039 107.5Z" fill="#1DDDDF"/>
<path d="M65.0039 107.5C65.0039 108.881 63.8846 110 62.5039 110C61.1232 110 60.0039 108.881 60.0039 107.5C60.0039 106.119 61.1232 105 62.5039 105C63.8846 105 65.0039 106.119 65.0039 107.5Z" fill="#1DDDDF"/>
<path d="M80.0039 107.5C80.0039 108.881 78.8846 110 77.5039 110C76.1232 110 75.0039 108.881 75.0039 107.5C75.0039 106.119 76.1232 105 77.5039 105C78.8846 105 80.0039 106.119 80.0039 107.5Z" fill="#1DDDDF"/>
<path d="M95.0039 107.5C95.0039 108.881 93.8846 110 92.5039 110C91.1232 110 90.0039 108.881 90.0039 107.5C90.0039 106.119 91.1232 105 92.5039 105C93.8846 105 95.0039 106.119 95.0039 107.5Z" fill="#1DDDDF"/>
<path d="M110.004 107.5C110.004 108.881 108.885 110 107.504 110C106.123 110 105.004 108.881 105.004 107.5C105.004 106.119 106.123 105 107.504 105C108.885 105 110.004 106.119 110.004 107.5Z" fill="#1DDDDF"/>
<path d="M125.004 107.5C125.004 108.881 123.885 110 122.504 110C121.123 110 120.004 108.881 120.004 107.5C120.004 106.119 121.123 105 122.504 105C123.885 105 125.004 106.119 125.004 107.5Z" fill="#1DDDDF"/>
<path d="M140.004 107.5C140.004 108.881 138.885 110 137.504 110C136.123 110 135.004 108.881 135.004 107.5C135.004 106.119 136.123 105 137.504 105C138.885 105 140.004 106.119 140.004 107.5Z" fill="#1DDDDF"/>
<path d="M155.004 107.5C155.004 108.881 153.885 110 152.504 110C151.123 110 150.004 108.881 150.004 107.5C150.004 106.119 151.123 105 152.504 105C153.885 105 155.004 106.119 155.004 107.5Z" fill="#1DDDDF"/>
<path d="M5.00391 122.5C5.00391 123.881 3.88462 125 2.50391 125C1.12319 125 0.00390625 123.881 0.00390625 122.5C0.00390625 121.119 1.12319 120 2.50391 120C3.88462 120 5.00391 121.119 5.00391 122.5Z" fill="#1DDDDF"/>
<path d="M20.0039 122.5C20.0039 123.881 18.8846 125 17.5039 125C16.1232 125 15.0039 123.881 15.0039 122.5C15.0039 121.119 16.1232 120 17.5039 120C18.8846 120 20.0039 121.119 20.0039 122.5Z" fill="#1DDDDF"/>
<path d="M35.0039 122.5C35.0039 123.881 33.8846 125 32.5039 125C31.1232 125 30.0039 123.881 30.0039 122.5C30.0039 121.119 31.1232 120 32.5039 120C33.8846 120 35.0039 121.119 35.0039 122.5Z" fill="#1DDDDF"/>
<path d="M50.0039 122.5C50.0039 123.881 48.8846 125 47.5039 125C46.1232 125 45.0039 123.881 45.0039 122.5C45.0039 121.119 46.1232 120 47.5039 120C48.8846 120 50.0039 121.119 50.0039 122.5Z" fill="#1DDDDF"/>
<path d="M65.0039 122.5C65.0039 123.881 63.8846 125 62.5039 125C61.1232 125 60.0039 123.881 60.0039 122.5C60.0039 121.119 61.1232 120 62.5039 120C63.8846 120 65.0039 121.119 65.0039 122.5Z" fill="#1DDDDF"/>
<path d="M80.0039 122.5C80.0039 123.881 78.8846 125 77.5039 125C76.1232 125 75.0039 123.881 75.0039 122.5C75.0039 121.119 76.1232 120 77.5039 120C78.8846 120 80.0039 121.119 80.0039 122.5Z" fill="#1DDDDF"/>
<path d="M95.0039 122.5C95.0039 123.881 93.8846 125 92.5039 125C91.1232 125 90.0039 123.881 90.0039 122.5C90.0039 121.119 91.1232 120 92.5039 120C93.8846 120 95.0039 121.119 95.0039 122.5Z" fill="#1DDDDF"/>
<path d="M110.004 122.5C110.004 123.881 108.885 125 107.504 125C106.123 125 105.004 123.881 105.004 122.5C105.004 121.119 106.123 120 107.504 120C108.885 120 110.004 121.119 110.004 122.5Z" fill="#1DDDDF"/>
<path d="M125.004 122.5C125.004 123.881 123.885 125 122.504 125C121.123 125 120.004 123.881 120.004 122.5C120.004 121.119 121.123 120 122.504 120C123.885 120 125.004 121.119 125.004 122.5Z" fill="#1DDDDF"/>
<path d="M140.004 122.5C140.004 123.881 138.885 125 137.504 125C136.123 125 135.004 123.881 135.004 122.5C135.004 121.119 136.123 120 137.504 120C138.885 120 140.004 121.119 140.004 122.5Z" fill="#1DDDDF"/>
<path d="M155.004 122.5C155.004 123.881 153.885 125 152.504 125C151.123 125 150.004 123.881 150.004 122.5C150.004 121.119 151.123 120 152.504 120C153.885 120 155.004 121.119 155.004 122.5Z" fill="#1DDDDF"/>
<path d="M5.00391 137.5C5.00391 138.881 3.88462 140 2.50391 140C1.12319 140 0.00390625 138.881 0.00390625 137.5C0.00390625 136.119 1.12319 135 2.50391 135C3.88462 135 5.00391 136.119 5.00391 137.5Z" fill="#1DDDDF"/>
<path d="M20.0039 137.5C20.0039 138.881 18.8846 140 17.5039 140C16.1232 140 15.0039 138.881 15.0039 137.5C15.0039 136.119 16.1232 135 17.5039 135C18.8846 135 20.0039 136.119 20.0039 137.5Z" fill="#1DDDDF"/>
<path d="M35.0039 137.5C35.0039 138.881 33.8846 140 32.5039 140C31.1232 140 30.0039 138.881 30.0039 137.5C30.0039 136.119 31.1232 135 32.5039 135C33.8846 135 35.0039 136.119 35.0039 137.5Z" fill="#1DDDDF"/>
<path d="M50.0039 137.5C50.0039 138.881 48.8846 140 47.5039 140C46.1232 140 45.0039 138.881 45.0039 137.5C45.0039 136.119 46.1232 135 47.5039 135C48.8846 135 50.0039 136.119 50.0039 137.5Z" fill="#1DDDDF"/>
<path d="M65.0039 137.5C65.0039 138.881 63.8846 140 62.5039 140C61.1232 140 60.0039 138.881 60.0039 137.5C60.0039 136.119 61.1232 135 62.5039 135C63.8846 135 65.0039 136.119 65.0039 137.5Z" fill="#1DDDDF"/>
<path d="M80.0039 137.5C80.0039 138.881 78.8846 140 77.5039 140C76.1232 140 75.0039 138.881 75.0039 137.5C75.0039 136.119 76.1232 135 77.5039 135C78.8846 135 80.0039 136.119 80.0039 137.5Z" fill="#1DDDDF"/>
<path d="M95.0039 137.5C95.0039 138.881 93.8846 140 92.5039 140C91.1232 140 90.0039 138.881 90.0039 137.5C90.0039 136.119 91.1232 135 92.5039 135C93.8846 135 95.0039 136.119 95.0039 137.5Z" fill="#1DDDDF"/>
<path d="M110.004 137.5C110.004 138.881 108.885 140 107.504 140C106.123 140 105.004 138.881 105.004 137.5C105.004 136.119 106.123 135 107.504 135C108.885 135 110.004 136.119 110.004 137.5Z" fill="#1DDDDF"/>
<path d="M125.004 137.5C125.004 138.881 123.885 140 122.504 140C121.123 140 120.004 138.881 120.004 137.5C120.004 136.119 121.123 135 122.504 135C123.885 135 125.004 136.119 125.004 137.5Z" fill="#1DDDDF"/>
<path d="M140.004 137.5C140.004 138.881 138.885 140 137.504 140C136.123 140 135.004 138.881 135.004 137.5C135.004 136.119 136.123 135 137.504 135C138.885 135 140.004 136.119 140.004 137.5Z" fill="#1DDDDF"/>
<path d="M155.004 137.5C155.004 138.881 153.885 140 152.504 140C151.123 140 150.004 138.881 150.004 137.5C150.004 136.119 151.123 135 152.504 135C153.885 135 155.004 136.119 155.004 137.5Z" fill="#1DDDDF"/>
<path d="M5.00391 152.5C5.00391 153.881 3.88462 155 2.50391 155C1.12319 155 0.00390625 153.881 0.00390625 152.5C0.00390625 151.119 1.12319 150 2.50391 150C3.88462 150 5.00391 151.119 5.00391 152.5Z" fill="#1DDDDF"/>
<path d="M20.0039 152.5C20.0039 153.881 18.8846 155 17.5039 155C16.1232 155 15.0039 153.881 15.0039 152.5C15.0039 151.119 16.1232 150 17.5039 150C18.8846 150 20.0039 151.119 20.0039 152.5Z" fill="#1DDDDF"/>
<path d="M35.0039 152.5C35.0039 153.881 33.8846 155 32.5039 155C31.1232 155 30.0039 153.881 30.0039 152.5C30.0039 151.119 31.1232 150 32.5039 150C33.8846 150 35.0039 151.119 35.0039 152.5Z" fill="#1DDDDF"/>
<path d="M50.0039 152.5C50.0039 153.881 48.8846 155 47.5039 155C46.1232 155 45.0039 153.881 45.0039 152.5C45.0039 151.119 46.1232 150 47.5039 150C48.8846 150 50.0039 151.119 50.0039 152.5Z" fill="#1DDDDF"/>
<path d="M65.0039 152.5C65.0039 153.881 63.8846 155 62.5039 155C61.1232 155 60.0039 153.881 60.0039 152.5C60.0039 151.119 61.1232 150 62.5039 150C63.8846 150 65.0039 151.119 65.0039 152.5Z" fill="#1DDDDF"/>
<path d="M80.0039 152.5C80.0039 153.881 78.8846 155 77.5039 155C76.1232 155 75.0039 153.881 75.0039 152.5C75.0039 151.119 76.1232 150 77.5039 150C78.8846 150 80.0039 151.119 80.0039 152.5Z" fill="#1DDDDF"/>
<path d="M95.0039 152.5C95.0039 153.881 93.8846 155 92.5039 155C91.1232 155 90.0039 153.881 90.0039 152.5C90.0039 151.119 91.1232 150 92.5039 150C93.8846 150 95.0039 151.119 95.0039 152.5Z" fill="#1DDDDF"/>
<path d="M110.004 152.5C110.004 153.881 108.885 155 107.504 155C106.123 155 105.004 153.881 105.004 152.5C105.004 151.119 106.123 150 107.504 150C108.885 150 110.004 151.119 110.004 152.5Z" fill="#1DDDDF"/>
<path d="M125.004 152.5C125.004 153.881 123.885 155 122.504 155C121.123 155 120.004 153.881 120.004 152.5C120.004 151.119 121.123 150 122.504 150C123.885 150 125.004 151.119 125.004 152.5Z" fill="#1DDDDF"/>
<path d="M140.004 152.5C140.004 153.881 138.885 155 137.504 155C136.123 155 135.004 153.881 135.004 152.5C135.004 151.119 136.123 150 137.504 150C138.885 150 140.004 151.119 140.004 152.5Z" fill="#1DDDDF"/>
<path d="M155.004 152.5C155.004 153.881 153.885 155 152.504 155C151.123 155 150.004 153.881 150.004 152.5C150.004 151.119 151.123 150 152.504 150C153.885 150 155.004 151.119 155.004 152.5Z" fill="#1DDDDF"/>
<path d="M5.00391 167.5C5.00391 168.881 3.88462 170 2.50391 170C1.12319 170 0.00390625 168.881 0.00390625 167.5C0.00390625 166.119 1.12319 165 2.50391 165C3.88462 165 5.00391 166.119 5.00391 167.5Z" fill="#1DDDDF"/>
<path d="M20.0039 167.5C20.0039 168.881 18.8846 170 17.5039 170C16.1232 170 15.0039 168.881 15.0039 167.5C15.0039 166.119 16.1232 165 17.5039 165C18.8846 165 20.0039 166.119 20.0039 167.5Z" fill="#1DDDDF"/>
<path d="M35.0039 167.5C35.0039 168.881 33.8846 170 32.5039 170C31.1232 170 30.0039 168.881 30.0039 167.5C30.0039 166.119 31.1232 165 32.5039 165C33.8846 165 35.0039 166.119 35.0039 167.5Z" fill="#1DDDDF"/>
<path d="M50.0039 167.5C50.0039 168.881 48.8846 170 47.5039 170C46.1232 170 45.0039 168.881 45.0039 167.5C45.0039 166.119 46.1232 165 47.5039 165C48.8846 165 50.0039 166.119 50.0039 167.5Z" fill="#1DDDDF"/>
<path d="M65.0039 167.5C65.0039 168.881 63.8846 170 62.5039 170C61.1232 170 60.0039 168.881 60.0039 167.5C60.0039 166.119 61.1232 165 62.5039 165C63.8846 165 65.0039 166.119 65.0039 167.5Z" fill="#1DDDDF"/>
<path d="M80.0039 167.5C80.0039 168.881 78.8846 170 77.5039 170C76.1232 170 75.0039 168.881 75.0039 167.5C75.0039 166.119 76.1232 165 77.5039 165C78.8846 165 80.0039 166.119 80.0039 167.5Z" fill="#1DDDDF"/>
<path d="M95.0039 167.5C95.0039 168.881 93.8846 170 92.5039 170C91.1232 170 90.0039 168.881 90.0039 167.5C90.0039 166.119 91.1232 165 92.5039 165C93.8846 165 95.0039 166.119 95.0039 167.5Z" fill="#1DDDDF"/>
<path d="M110.004 167.5C110.004 168.881 108.885 170 107.504 170C106.123 170 105.004 168.881 105.004 167.5C105.004 166.119 106.123 165 107.504 165C108.885 165 110.004 166.119 110.004 167.5Z" fill="#1DDDDF"/>
<path d="M125.004 167.5C125.004 168.881 123.885 170 122.504 170C121.123 170 120.004 168.881 120.004 167.5C120.004 166.119 121.123 165 122.504 165C123.885 165 125.004 166.119 125.004 167.5Z" fill="#1DDDDF"/>
<path d="M140.004 167.5C140.004 168.881 138.885 170 137.504 170C136.123 170 135.004 168.881 135.004 167.5C135.004 166.119 136.123 165 137.504 165C138.885 165 140.004 166.119 140.004 167.5Z" fill="#1DDDDF"/>
<path d="M155.004 167.5C155.004 168.881 153.885 170 152.504 170C151.123 170 150.004 168.881 150.004 167.5C150.004 166.119 151.123 165 152.504 165C153.885 165 155.004 166.119 155.004 167.5Z" fill="#1DDDDF"/>
</svg>
