<svg width="180" height="180" viewBox="0 0 180 180" fill="none" xmlns="http://www.w3.org/2000/svg">
<path fill-rule="evenodd" clip-rule="evenodd" d="M90 62.5828C74.8579 62.5828 62.5828 74.8579 62.5828 90C62.5828 105.142 74.8579 117.417 90 117.417C105.142 117.417 117.417 105.142 117.417 90C117.417 74.8579 105.142 62.5828 90 62.5828ZM63.7748 90C63.7748 75.5162 75.5162 63.7748 90 63.7748C104.484 63.7748 116.225 75.5162 116.225 90C116.225 104.484 104.484 116.225 90 116.225C75.5162 116.225 63.7748 104.484 63.7748 90Z" fill="url(#paint0_linear_1_1032)" fill-opacity="0.5"/>
<path fill-rule="evenodd" clip-rule="evenodd" d="M90 58.1126C72.3891 58.1126 58.1126 72.3891 58.1126 90C58.1126 107.611 72.3891 121.887 90 121.887C107.611 121.887 121.887 107.611 121.887 90C121.887 72.3891 107.611 58.1126 90 58.1126ZM59.3046 90C59.3046 73.0474 73.0474 59.3046 90 59.3046C106.953 59.3046 120.695 73.0474 120.695 90C120.695 106.953 106.953 120.695 90 120.695C73.0474 120.695 59.3046 106.953 59.3046 90Z" fill="url(#paint1_linear_1_1032)" fill-opacity="0.5"/>
<path fill-rule="evenodd" clip-rule="evenodd" d="M53.6424 90C53.6424 69.9202 69.9202 53.6424 90 53.6424C110.08 53.6424 126.358 69.9202 126.358 90C126.358 110.08 110.08 126.358 90 126.358C69.9202 126.358 53.6424 110.08 53.6424 90ZM90 54.8344C70.5786 54.8344 54.8344 70.5786 54.8344 90C54.8344 109.421 70.5786 125.166 90 125.166C109.421 125.166 125.166 109.421 125.166 90C125.166 70.5786 109.421 54.8344 90 54.8344Z" fill="url(#paint2_linear_1_1032)" fill-opacity="0.5"/>
<path fill-rule="evenodd" clip-rule="evenodd" d="M49.1722 90C49.1722 67.4514 67.4514 49.1722 90 49.1722C112.549 49.1722 130.828 67.4514 130.828 90C130.828 112.549 112.549 130.828 90 130.828C67.4514 130.828 49.1722 112.549 49.1722 90ZM90 50.3642C68.1098 50.3642 50.3642 68.1098 50.3642 90C50.3642 111.89 68.1098 129.636 90 129.636C111.89 129.636 129.636 111.89 129.636 90C129.636 68.1098 111.89 50.3642 90 50.3642Z" fill="url(#paint3_linear_1_1032)" fill-opacity="0.5"/>
<path fill-rule="evenodd" clip-rule="evenodd" d="M44.702 90C44.702 64.9826 64.9826 44.702 90 44.702C115.017 44.702 135.298 64.9826 135.298 90C135.298 115.017 115.017 135.298 90 135.298C64.9826 135.298 44.702 115.017 44.702 90ZM90 45.894C65.641 45.894 45.894 65.641 45.894 90C45.894 114.359 65.641 134.106 90 134.106C114.359 134.106 134.106 114.359 134.106 90C134.106 65.641 114.359 45.894 90 45.894Z" fill="url(#paint4_linear_1_1032)" fill-opacity="0.5"/>
<path fill-rule="evenodd" clip-rule="evenodd" d="M90 40.2318C62.5138 40.2318 40.2318 62.5138 40.2318 90C40.2318 117.486 62.5138 139.768 90 139.768C117.486 139.768 139.768 117.486 139.768 90C139.768 62.5138 117.486 40.2318 90 40.2318ZM41.4238 90C41.4238 63.1721 63.1721 41.4238 90 41.4238C116.828 41.4238 138.576 63.1721 138.576 90C138.576 116.828 116.828 138.576 90 138.576C63.1721 138.576 41.4238 116.828 41.4238 90Z" fill="url(#paint5_linear_1_1032)" fill-opacity="0.5"/>
<path fill-rule="evenodd" clip-rule="evenodd" d="M35.7616 90C35.7616 60.045 60.045 35.7616 90 35.7616C119.955 35.7616 144.238 60.045 144.238 90C144.238 119.955 119.955 144.238 90 144.238C60.045 144.238 35.7616 119.955 35.7616 90ZM90 36.9536C60.7033 36.9536 36.9536 60.7033 36.9536 90C36.9536 119.297 60.7033 143.046 90 143.046C119.297 143.046 143.046 119.297 143.046 90C143.046 60.7033 119.297 36.9536 90 36.9536Z" fill="url(#paint6_linear_1_1032)" fill-opacity="0.5"/>
<path fill-rule="evenodd" clip-rule="evenodd" d="M90 31.2914C57.5761 31.2914 31.2914 57.5761 31.2914 90C31.2914 122.424 57.5761 148.709 90 148.709C122.424 148.709 148.709 122.424 148.709 90C148.709 57.5761 122.424 31.2914 90 31.2914ZM32.4834 90C32.4834 58.2345 58.2345 32.4834 90 32.4834C121.766 32.4834 147.517 58.2345 147.517 90C147.517 121.766 121.766 147.517 90 147.517C58.2345 147.517 32.4834 121.766 32.4834 90Z" fill="url(#paint7_linear_1_1032)" fill-opacity="0.5"/>
<path fill-rule="evenodd" clip-rule="evenodd" d="M26.8212 90C26.8212 55.1073 55.1073 26.8212 90 26.8212C124.893 26.8212 153.179 55.1073 153.179 90C153.179 124.893 124.893 153.179 90 153.179C55.1073 153.179 26.8212 124.893 26.8212 90ZM90 28.0132C55.7657 28.0132 28.0132 55.7657 28.0132 90C28.0132 124.234 55.7657 151.987 90 151.987C124.234 151.987 151.987 124.234 151.987 90C151.987 55.7657 124.234 28.0132 90 28.0132Z" fill="url(#paint8_linear_1_1032)" fill-opacity="0.5"/>
<path fill-rule="evenodd" clip-rule="evenodd" d="M90 22.351C52.6385 22.351 22.351 52.6385 22.351 90C22.351 127.362 52.6385 157.649 90 157.649C127.362 157.649 157.649 127.362 157.649 90C157.649 52.6385 127.362 22.351 90 22.351ZM23.543 90C23.543 53.2968 53.2968 23.543 90 23.543C126.703 23.543 156.457 53.2968 156.457 90C156.457 126.703 126.703 156.457 90 156.457C53.2968 156.457 23.543 126.703 23.543 90Z" fill="url(#paint9_linear_1_1032)" fill-opacity="0.5"/>
<path fill-rule="evenodd" clip-rule="evenodd" d="M17.8808 90C17.8808 50.1697 50.1697 17.8808 90 17.8808C129.83 17.8808 162.119 50.1697 162.119 90C162.119 129.83 129.83 162.119 90 162.119C50.1697 162.119 17.8808 129.83 17.8808 90ZM90 19.0728C50.828 19.0728 19.0728 50.828 19.0728 90C19.0728 129.172 50.828 160.927 90 160.927C129.172 160.927 160.927 129.172 160.927 90C160.927 50.828 129.172 19.0728 90 19.0728Z" fill="url(#paint10_linear_1_1032)" fill-opacity="0.5"/>
<path fill-rule="evenodd" clip-rule="evenodd" d="M90 13.4106C47.7008 13.4106 13.4106 47.7008 13.4106 90C13.4106 132.299 47.7008 166.589 90 166.589C132.299 166.589 166.589 132.299 166.589 90C166.589 47.7008 132.299 13.4106 90 13.4106ZM14.6026 90C14.6026 48.3592 48.3592 14.6026 90 14.6026C131.641 14.6026 165.397 48.3592 165.397 90C165.397 131.641 131.641 165.397 90 165.397C48.3592 165.397 14.6026 131.641 14.6026 90Z" fill="url(#paint11_linear_1_1032)" fill-opacity="0.5"/>
<path fill-rule="evenodd" clip-rule="evenodd" d="M8.9404 90C8.9404 45.232 45.232 8.9404 90 8.9404C134.768 8.9404 171.06 45.232 171.06 90C171.06 134.768 134.768 171.06 90 171.06C45.232 171.06 8.9404 134.768 8.9404 90ZM90 10.1325C45.8904 10.1325 10.1325 45.8904 10.1325 90C10.1325 134.11 45.8904 169.868 90 169.868C134.11 169.868 169.868 134.11 169.868 90C169.868 45.8904 134.11 10.1325 90 10.1325Z" fill="url(#paint12_linear_1_1032)" fill-opacity="0.5"/>
<path fill-rule="evenodd" clip-rule="evenodd" d="M90 4.4702C42.7632 4.4702 4.4702 42.7632 4.4702 90C4.4702 137.237 42.7632 175.53 90 175.53C137.237 175.53 175.53 137.237 175.53 90C175.53 42.7632 137.237 4.4702 90 4.4702ZM5.66225 90C5.66225 43.4215 43.4215 5.66225 90 5.66225C136.578 5.66225 174.338 43.4215 174.338 90C174.338 136.578 136.578 174.338 90 174.338C43.4215 174.338 5.66225 136.578 5.66225 90Z" fill="url(#paint13_linear_1_1032)" fill-opacity="0.5"/>
<path fill-rule="evenodd" clip-rule="evenodd" d="M0 90C0 40.2944 40.2944 0 90 0C139.706 0 180 40.2944 180 90C180 139.706 139.706 180 90 180C40.2944 180 0 139.706 0 90ZM90 1.19205C40.9527 1.19205 1.19205 40.9527 1.19205 90C1.19205 139.047 40.9527 178.808 90 178.808C139.047 178.808 178.808 139.047 178.808 90C178.808 40.9527 139.047 1.19205 90 1.19205Z" fill="url(#paint14_linear_1_1032)" fill-opacity="0.5"/>
<defs>
<linearGradient id="paint0_linear_1_1032" x1="206.659" y1="-250.863" x2="87.6368" y2="208.889" gradientUnits="userSpaceOnUse">
<stop stop-color="#2B95ED"/>
<stop offset="0.698362" stop-color="#2B95ED"/>
<stop offset="0.886612" stop-color="#14CBD5"/>
</linearGradient>
<linearGradient id="paint1_linear_1_1032" x1="206.659" y1="-250.863" x2="87.6368" y2="208.889" gradientUnits="userSpaceOnUse">
<stop stop-color="#2B95ED"/>
<stop offset="0.698362" stop-color="#2B95ED"/>
<stop offset="0.886612" stop-color="#14CBD5"/>
</linearGradient>
<linearGradient id="paint2_linear_1_1032" x1="206.659" y1="-250.863" x2="87.6368" y2="208.889" gradientUnits="userSpaceOnUse">
<stop stop-color="#2B95ED"/>
<stop offset="0.698362" stop-color="#2B95ED"/>
<stop offset="0.886612" stop-color="#14CBD5"/>
</linearGradient>
<linearGradient id="paint3_linear_1_1032" x1="206.659" y1="-250.863" x2="87.6368" y2="208.889" gradientUnits="userSpaceOnUse">
<stop stop-color="#2B95ED"/>
<stop offset="0.698362" stop-color="#2B95ED"/>
<stop offset="0.886612" stop-color="#14CBD5"/>
</linearGradient>
<linearGradient id="paint4_linear_1_1032" x1="206.659" y1="-250.863" x2="87.6368" y2="208.889" gradientUnits="userSpaceOnUse">
<stop stop-color="#2B95ED"/>
<stop offset="0.698362" stop-color="#2B95ED"/>
<stop offset="0.886612" stop-color="#14CBD5"/>
</linearGradient>
<linearGradient id="paint5_linear_1_1032" x1="206.659" y1="-250.863" x2="87.6368" y2="208.889" gradientUnits="userSpaceOnUse">
<stop stop-color="#2B95ED"/>
<stop offset="0.698362" stop-color="#2B95ED"/>
<stop offset="0.886612" stop-color="#14CBD5"/>
</linearGradient>
<linearGradient id="paint6_linear_1_1032" x1="206.659" y1="-250.863" x2="87.6368" y2="208.889" gradientUnits="userSpaceOnUse">
<stop stop-color="#2B95ED"/>
<stop offset="0.698362" stop-color="#2B95ED"/>
<stop offset="0.886612" stop-color="#14CBD5"/>
</linearGradient>
<linearGradient id="paint7_linear_1_1032" x1="206.659" y1="-250.863" x2="87.6368" y2="208.889" gradientUnits="userSpaceOnUse">
<stop stop-color="#2B95ED"/>
<stop offset="0.698362" stop-color="#2B95ED"/>
<stop offset="0.886612" stop-color="#14CBD5"/>
</linearGradient>
<linearGradient id="paint8_linear_1_1032" x1="206.659" y1="-250.863" x2="87.6368" y2="208.889" gradientUnits="userSpaceOnUse">
<stop stop-color="#2B95ED"/>
<stop offset="0.698362" stop-color="#2B95ED"/>
<stop offset="0.886612" stop-color="#14CBD5"/>
</linearGradient>
<linearGradient id="paint9_linear_1_1032" x1="206.659" y1="-250.863" x2="87.6368" y2="208.889" gradientUnits="userSpaceOnUse">
<stop stop-color="#2B95ED"/>
<stop offset="0.698362" stop-color="#2B95ED"/>
<stop offset="0.886612" stop-color="#14CBD5"/>
</linearGradient>
<linearGradient id="paint10_linear_1_1032" x1="206.659" y1="-250.863" x2="87.6368" y2="208.889" gradientUnits="userSpaceOnUse">
<stop stop-color="#2B95ED"/>
<stop offset="0.698362" stop-color="#2B95ED"/>
<stop offset="0.886612" stop-color="#14CBD5"/>
</linearGradient>
<linearGradient id="paint11_linear_1_1032" x1="206.659" y1="-250.863" x2="87.6368" y2="208.889" gradientUnits="userSpaceOnUse">
<stop stop-color="#2B95ED"/>
<stop offset="0.698362" stop-color="#2B95ED"/>
<stop offset="0.886612" stop-color="#14CBD5"/>
</linearGradient>
<linearGradient id="paint12_linear_1_1032" x1="206.659" y1="-250.863" x2="87.6368" y2="208.889" gradientUnits="userSpaceOnUse">
<stop stop-color="#2B95ED"/>
<stop offset="0.698362" stop-color="#2B95ED"/>
<stop offset="0.886612" stop-color="#14CBD5"/>
</linearGradient>
<linearGradient id="paint13_linear_1_1032" x1="206.659" y1="-250.863" x2="87.6368" y2="208.889" gradientUnits="userSpaceOnUse">
<stop stop-color="#2B95ED"/>
<stop offset="0.698362" stop-color="#2B95ED"/>
<stop offset="0.886612" stop-color="#14CBD5"/>
</linearGradient>
<linearGradient id="paint14_linear_1_1032" x1="206.659" y1="-250.863" x2="87.6368" y2="208.889" gradientUnits="userSpaceOnUse">
<stop stop-color="#2B95ED"/>
<stop offset="0.698362" stop-color="#2B95ED"/>
<stop offset="0.886612" stop-color="#14CBD5"/>
</linearGradient>
</defs>
</svg>
