<svg width="24" height="24" viewBox="0 0 24 24" fill="none" xmlns="http://www.w3.org/2000/svg">
<path d="M21.4515 16.5626V19.4426C21.4526 19.7099 21.397 19.9746 21.2882 20.2195C21.1794 20.4645 21.0199 20.6844 20.8198 20.8651C20.6198 21.0459 20.3836 21.1835 20.1263 21.2691C19.8691 21.3548 19.5966 21.3866 19.3262 21.3626C16.3263 21.0416 13.4446 20.0321 10.9128 18.4154C8.55725 16.9414 6.56017 14.9749 5.06337 12.6554C3.41576 10.1509 2.39042 7.29951 2.07041 4.33215C2.04605 4.06668 2.07809 3.79912 2.16449 3.54651C2.25089 3.2939 2.38976 3.06177 2.57226 2.86491C2.75476 2.66804 2.97688 2.51075 3.22449 2.40305C3.47211 2.29535 3.73978 2.2396 4.01047 2.23935H6.93518C7.40831 2.23477 7.86698 2.39975 8.22572 2.70354C8.58445 3.00734 8.81877 3.42922 8.88498 3.89055C9.00843 4.81221 9.23736 5.71717 9.56742 6.58815C9.69858 6.93176 9.72697 7.30519 9.64922 7.6642C9.57146 8.0232 9.39083 8.35274 9.12871 8.61375L7.89058 9.83295C9.27841 12.2364 11.2993 14.2263 13.74 15.593L14.9781 14.3738C15.2432 14.1156 15.5778 13.9378 15.9424 13.8612C16.307 13.7846 16.6862 13.8126 17.0352 13.9418C17.9197 14.2668 18.8387 14.4922 19.7747 14.6138C20.2482 14.6795 20.6807 14.9144 20.9899 15.2737C21.2991 15.6331 21.4633 16.0917 21.4515 16.5626Z" stroke="white" stroke-width="1.92" stroke-linecap="round" stroke-linejoin="round"/>
</svg>
