<svg width="48" height="48" viewBox="0 0 48 48" fill="none" xmlns="http://www.w3.org/2000/svg">
<g clip-path="url(#clip0_1_1219)">
<path d="M38.0557 -0.00195312H9.95209C4.45786 -0.00195312 0.00390625 4.452 0.00390625 9.94623V38.0499C0.00390625 43.5441 4.45786 47.998 9.95209 47.998H38.0557C43.5499 47.998 48.0039 43.5441 48.0039 38.0499V9.94623C48.0039 4.452 43.5499 -0.00195312 38.0557 -0.00195312Z" fill="#1778F2"/>
<path d="M25.9154 37.5451V24.6983H30.2277L30.8744 19.6916H25.9154V16.495C25.9154 15.0455 26.3181 14.0577 28.3968 14.0577H31.0479V9.581C29.7647 9.44523 28.475 9.37947 27.1846 9.38401C23.362 9.38401 20.7451 11.7171 20.7451 16.0021V19.6916H16.4219V24.6983H20.7451V37.5451H25.9154Z" fill="#FDFDFD"/>
</g>
<defs>
<clipPath id="clip0_1_1219">
<rect width="48" height="48" fill="white"/>
</clipPath>
</defs>
</svg>
