<svg width="48" height="48" viewBox="0 0 48 48" fill="none" xmlns="http://www.w3.org/2000/svg">
<g clip-path="url(#clip0_1_1223)">
<path d="M37.2262 0H10.7738C4.8236 0 0 4.8236 0 10.7738V37.2262C0 43.1764 4.8236 48 10.7738 48H37.2262C43.1764 48 48 43.1764 48 37.2262V10.7738C48 4.8236 43.1764 0 37.2262 0Z" fill="#0B86CA"/>
<path d="M13.3023 19.9513H18.2902V36.0455H13.3023V19.9513ZM15.8461 11.9541C16.4176 11.9541 16.9763 12.1234 17.4516 12.4405C17.927 12.7577 18.2978 13.2085 18.5173 13.7362C18.7367 14.2638 18.795 14.8446 18.6847 15.4054C18.5744 15.9661 18.3005 16.4816 17.8976 16.8868C17.4947 17.2921 16.9807 17.5689 16.4207 17.6824C15.8606 17.7959 15.2794 17.741 14.7505 17.5246C14.2216 17.3082 13.7687 16.9399 13.4488 16.4664C13.1289 15.9928 12.9565 15.4352 12.9532 14.8637C12.951 14.4824 13.0242 14.1044 13.1686 13.7515C13.313 13.3986 13.5257 13.0777 13.7946 12.8073C14.0635 12.5369 14.3831 12.3223 14.7352 12.1759C15.0873 12.0295 15.4648 11.9541 15.8461 11.9541Z" fill="white"/>
<path d="M21.4815 19.9514H26.2865V22.1461C26.7674 21.3252 27.4623 20.6504 28.2968 20.1936C29.1314 19.7368 30.0743 19.5152 31.0249 19.5524C36.0128 19.5524 37.027 22.8776 37.027 27.2171V36.0456H32.0391V28.2645C32.0391 26.4024 32.0391 23.9916 29.4454 23.9916C26.8517 23.9916 26.4527 26.02 26.4527 28.1149V36.0789H21.4648L21.4815 19.9514Z" fill="white"/>
</g>
<defs>
<clipPath id="clip0_1_1223">
<rect width="48" height="48" fill="white"/>
</clipPath>
</defs>
</svg>
