<svg width="24" height="24" viewBox="0 0 24 24" fill="none" xmlns="http://www.w3.org/2000/svg">
<g clip-path="url(#clip0_1_1247)">
<path d="M20.474 10.1996C20.474 16.9196 11.6999 22.6796 11.6999 22.6796C11.6999 22.6796 2.92578 16.9196 2.92578 10.1996C2.92578 7.9081 3.8502 5.71048 5.49566 4.09017C7.14113 2.46985 9.37287 1.55957 11.6999 1.55957C14.027 1.55957 16.2587 2.46985 17.9042 4.09017C19.5496 5.71048 20.474 7.9081 20.474 10.1996Z" stroke="white" stroke-width="1.92" stroke-linecap="round" stroke-linejoin="round"/>
<path d="M11.6981 13.0793C13.3134 13.0793 14.6229 11.7899 14.6229 10.1993C14.6229 8.60876 13.3134 7.31934 11.6981 7.31934C10.0829 7.31934 8.77344 8.60876 8.77344 10.1993C8.77344 11.7899 10.0829 13.0793 11.6981 13.0793Z" stroke="white" stroke-width="1.92" stroke-linecap="round" stroke-linejoin="round"/>
</g>
<defs>
<clipPath id="clip0_1_1247">
<rect width="23.3977" height="23.04" fill="white" transform="translate(0 0.599609)"/>
</clipPath>
</defs>
</svg>
