<svg width="88" height="137" viewBox="0 0 88 137" fill="none" xmlns="http://www.w3.org/2000/svg">
<circle cx="44.0008" cy="43.2999" r="43.2" fill="#4ABCAE"/>
<path d="M30.7202 65.2998V61.4646L45.1236 45.6975C46.8139 43.8509 48.206 42.2458 49.2997 40.8822C50.3935 39.5043 51.2031 38.2117 51.7287 37.0043C52.2685 35.7828 52.5384 34.5043 52.5384 33.1691C52.5384 31.635 52.169 30.3069 51.4304 29.1847C50.706 28.0626 49.7116 27.1961 48.4474 26.5853C47.1832 25.9745 45.7628 25.6691 44.1861 25.6691C42.5099 25.6691 41.0469 26.0171 39.7969 26.7132C38.5611 27.395 37.6023 28.3538 36.9205 29.5896C36.2528 30.8254 35.919 32.2742 35.919 33.9362H30.8906C30.8906 31.3793 31.4801 29.135 32.6591 27.2032C33.8381 25.2714 35.4432 23.7657 37.4744 22.6862C39.5199 21.6066 41.8139 21.0668 44.3565 21.0668C46.9134 21.0668 49.179 21.6066 51.1534 22.6862C53.1278 23.7657 54.6761 25.2217 55.7983 27.0541C56.9205 28.8865 57.4815 30.9248 57.4815 33.1691C57.4815 34.7742 57.1903 36.3438 56.608 37.8779C56.0398 39.3978 55.0455 41.0953 53.625 42.9703C52.2188 44.8311 50.2656 47.1038 47.7656 49.7884L37.9645 60.2714V60.6123H58.2486V65.2998H30.7202Z" fill="white"/>
</svg>
