<svg width="88" height="137" viewBox="0 0 88 137" fill="none" xmlns="http://www.w3.org/2000/svg">
<circle cx="43.9969" cy="43.3001" r="43.2" fill="#4ABCAE"/>
<path d="M43.859 65.8966C41.0465 65.8966 38.5394 65.4137 36.3377 64.4478C34.1502 63.4819 32.4102 62.1395 31.1175 60.4208C29.8391 58.6878 29.1431 56.6779 29.0295 54.391H34.3988C34.5124 55.7972 34.9954 57.0117 35.8477 58.0344C36.6999 59.0429 37.815 59.8242 39.1928 60.3782C40.5707 60.9322 42.0977 61.2091 43.7738 61.2091C45.6488 61.2091 47.3107 60.8824 48.7596 60.229C50.2085 59.5756 51.3448 58.6665 52.1687 57.5018C52.9925 56.337 53.4045 54.9875 53.4045 53.4535C53.4045 51.8483 53.0067 50.435 52.2113 49.2134C51.4158 47.9776 50.2511 47.0117 48.717 46.3157C47.1829 45.6197 45.3079 45.2716 43.092 45.2716H39.5977V40.5841H43.092C44.8249 40.5841 46.3448 40.2716 47.6516 39.6466C48.9727 39.0216 50.0025 38.141 50.7411 37.0046C51.494 35.8682 51.8704 34.533 51.8704 32.9989C51.8704 31.5216 51.5437 30.2361 50.8903 29.1424C50.2369 28.0486 49.3136 27.1964 48.1204 26.5856C46.9414 25.9748 45.5494 25.6694 43.9442 25.6694C42.4386 25.6694 41.0181 25.9464 39.6829 26.5003C38.3619 27.0401 37.2823 27.8285 36.4442 28.8654C35.6062 29.8881 35.1516 31.1239 35.0806 32.5728H29.967C30.0522 30.2858 30.7411 28.283 32.0337 26.5643C33.3263 24.8313 35.0167 23.4819 37.1048 22.516C39.207 21.55 41.5153 21.0671 44.0295 21.0671C46.7283 21.0671 49.0437 21.614 50.9755 22.7077C52.9073 23.7873 54.3917 25.2148 55.4286 26.9904C56.4656 28.766 56.984 30.6836 56.984 32.7432C56.984 35.2006 56.3377 37.2958 55.0451 39.0287C53.7667 40.7617 52.0266 41.962 49.8249 42.6296V42.9705C52.5806 43.425 54.7326 44.5969 56.2809 46.4861C57.8292 48.3611 58.6033 50.6836 58.6033 53.4535C58.6033 55.8256 57.957 57.9563 56.6644 59.8455C55.386 61.7205 53.6389 63.1978 51.4229 64.2773C49.207 65.3569 46.6857 65.8966 43.859 65.8966Z" fill="white"/>
</svg>
