<svg width="51" height="61" viewBox="0 0 51 61" fill="none" xmlns="http://www.w3.org/2000/svg">
<path d="M15.1938 0.98819H8.44531V7.55535H15.1938V0.98819Z" fill="#2B95ED"/>
<path d="M15.1938 17.4061H8.44531V23.9733H15.1938V17.4061Z" fill="#2B95ED"/>
<path d="M47.0125 0.300429H3.76096C3.3175 0.299187 2.87815 0.383273 2.46819 0.547849C2.05824 0.712424 1.68576 0.954243 1.37218 1.2594C1.0586 1.56456 0.810103 1.92703 0.640983 2.32597C0.471864 2.72491 0.385457 3.15246 0.386733 3.58401V57.0168C0.385457 57.4484 0.471864 57.8759 0.640983 58.2749C0.810103 58.6738 1.0586 59.0363 1.37218 59.3414C1.68576 59.6466 2.05824 59.8884 2.46819 60.053C2.87815 60.2176 3.3175 60.3016 3.76096 60.3004H47.0125C47.4559 60.3016 47.8953 60.2176 48.3052 60.053C48.7152 59.8884 49.0877 59.6466 49.4013 59.3414C49.7148 59.0363 49.9633 58.6738 50.1325 58.2749C50.3016 57.8759 50.388 57.4484 50.3867 57.0168V3.58401C50.388 3.15246 50.3016 2.72491 50.1325 2.32597C49.9633 1.92703 49.7148 1.56456 49.4013 1.2594C49.0877 0.954243 48.7152 0.712424 48.3052 0.547849C47.8953 0.383273 47.4559 0.299187 47.0125 0.300429ZM22.0125 7.1661H33.9757C34.3011 7.1661 34.6132 7.2919 34.8433 7.51582C35.0734 7.73974 35.2027 8.04345 35.2027 8.36013C35.2027 8.6768 35.0734 8.98051 34.8433 9.20443C34.6132 9.42836 34.3011 9.55416 33.9757 9.55416H22.0125C21.6871 9.55416 21.375 9.42836 21.1449 9.20443C20.9148 8.98051 20.7855 8.6768 20.7855 8.36013C20.7855 8.04345 20.9148 7.73974 21.1449 7.51582C21.375 7.2919 21.6871 7.1661 22.0125 7.1661ZM6.36832 6.86759C6.3693 6.5512 6.49888 6.24805 6.72878 6.02433C6.95867 5.80061 7.2702 5.67451 7.59532 5.67356H16.7978C17.1229 5.67451 17.4344 5.80061 17.6643 6.02433C17.8942 6.24805 18.0238 6.5512 18.0248 6.86759V15.8228C18.0238 16.1392 17.8942 16.4424 17.6643 16.6661C17.4344 16.8898 17.1229 17.0159 16.7978 17.0168H7.59532C7.2702 17.0159 6.95867 16.8898 6.72878 16.6661C6.49888 16.4424 6.3693 16.1392 6.36832 15.8228V6.86759ZM6.36832 23.2855C6.3693 22.9691 6.49888 22.666 6.72878 22.4422C6.95867 22.2185 7.2702 22.0924 7.59532 22.0915H16.7978C17.1229 22.0924 17.4344 22.2185 17.6643 22.4422C17.8942 22.666 18.0238 22.9691 18.0248 23.2855V32.2407C18.0238 32.5571 17.8942 32.8603 17.6643 33.084C17.4344 33.3077 17.1229 33.4338 16.7978 33.4347H7.59532C7.2702 33.4338 6.95867 33.3077 6.72878 33.084C6.49888 32.8603 6.3693 32.5571 6.36832 32.2407V23.2855ZM6.67507 40.0019H24.7732C25.0986 40.0019 25.4107 40.1277 25.6408 40.3516C25.8709 40.5756 26.0002 40.8793 26.0002 41.1959C26.0002 41.5126 25.8709 41.8163 25.6408 42.0402C25.4107 42.2642 25.0986 42.39 24.7732 42.39H6.67507C6.34965 42.39 6.03756 42.2642 5.80746 42.0402C5.57735 41.8163 5.44808 41.5126 5.44808 41.1959C5.44808 40.8793 5.57735 40.5756 5.80746 40.3516C6.03756 40.1277 6.34965 40.0019 6.67507 40.0019ZM43.1781 54.3303H6.67507C6.34965 54.3303 6.03756 54.2045 5.80746 53.9805C5.57735 53.7566 5.44808 53.4529 5.44808 53.1362C5.44808 52.8195 5.57735 52.5158 5.80746 52.2919C6.03756 52.068 6.34965 51.9422 6.67507 51.9422H43.1781C43.5035 51.9422 43.8156 52.068 44.0457 52.2919C44.2758 52.5158 44.4051 52.8195 44.4051 53.1362C44.4051 53.4529 44.2758 53.7566 44.0457 53.9805C43.8156 54.2045 43.5035 54.3303 43.1781 54.3303ZM43.1781 48.3601H6.67507C6.34965 48.3601 6.03756 48.2343 5.80746 48.0104C5.57735 47.7865 5.44808 47.4828 5.44808 47.1661C5.44808 46.8494 5.57735 46.5457 5.80746 46.3218C6.03756 46.0978 6.34965 45.972 6.67507 45.972H43.1781C43.5035 45.972 43.8156 46.0978 44.0457 46.3218C44.2758 46.5457 44.4051 46.8494 44.4051 47.1661C44.4051 47.4828 44.2758 47.7865 44.0457 48.0104C43.8156 48.2343 43.5035 48.3601 43.1781 48.3601ZM43.1781 31.9422H22.0125C21.6871 31.9422 21.375 31.8164 21.1449 31.5925C20.9148 31.3686 20.7855 31.0649 20.7855 30.7482C20.7855 30.4315 20.9148 30.1278 21.1449 29.9039C21.375 29.6799 21.6871 29.5541 22.0125 29.5541H43.1781C43.5035 29.5541 43.8156 29.6799 44.0457 29.9039C44.2758 30.1278 44.4051 30.4315 44.4051 30.7482C44.4051 31.0649 44.2758 31.3686 44.0457 31.5925C43.8156 31.8164 43.5035 31.9422 43.1781 31.9422ZM20.7855 24.778C20.7865 24.4616 20.916 24.1585 21.1459 23.9348C21.3758 23.711 21.6874 23.5849 22.0125 23.584H33.9757C34.3011 23.584 34.6132 23.7098 34.8433 23.9337C35.0734 24.1576 35.2027 24.4614 35.2027 24.778C35.2027 25.0947 35.0734 25.3984 34.8433 25.6223C34.6132 25.8463 34.3011 25.9721 33.9757 25.9721H22.0125C21.6874 25.9711 21.3758 25.845 21.1459 25.6213C20.916 25.3976 20.7865 25.0944 20.7855 24.778ZM43.1781 15.5243H22.0125C21.6871 15.5243 21.375 15.3985 21.1449 15.1746C20.9148 14.9507 20.7855 14.6469 20.7855 14.3303C20.7855 14.0136 20.9148 13.7099 21.1449 13.486C21.375 13.262 21.6871 13.1362 22.0125 13.1362H43.1781C43.5035 13.1362 43.8156 13.262 44.0457 13.486C44.2758 13.7099 44.4051 14.0136 44.4051 14.3303C44.4051 14.6469 44.2758 14.9507 44.0457 15.1746C43.8156 15.3985 43.5035 15.5243 43.1781 15.5243Z" fill="#2B95ED"/>
</svg>
