<svg width="88" height="140" viewBox="0 0 88 140" fill="none" xmlns="http://www.w3.org/2000/svg">
<circle cx="43.9969" cy="43.9998" r="43.2" fill="#4ABCAE"/>
<path d="M43.5518 68.1964C41.0518 68.1964 38.8004 67.6993 36.7976 66.705C34.7947 65.7106 33.1896 64.347 31.9822 62.6141C30.7749 60.8811 30.1143 58.9067 30.0007 56.6908H35.1143C35.3132 58.6652 36.2081 60.2987 37.799 61.5913C39.4041 62.8697 41.3217 63.5089 43.5518 63.5089C45.3416 63.5089 46.9325 63.0899 48.3246 62.2518C49.7308 61.4138 50.8317 60.2632 51.6271 58.8001C52.4368 57.3229 52.8416 55.6538 52.8416 53.793C52.8416 51.8896 52.4226 50.1922 51.5845 48.7007C50.7607 47.195 49.6243 46.0089 48.1754 45.1425C46.7266 44.276 45.0717 43.8356 43.2109 43.8214C41.8757 43.8072 40.505 44.0132 39.0987 44.4393C37.6925 44.8513 36.5348 45.3839 35.6257 46.0374L30.6825 45.4408L33.3246 23.9635H55.995V28.651H37.7564L36.2223 41.5203H36.478C37.3729 40.8101 38.495 40.2206 39.8445 39.7518C41.1939 39.2831 42.6001 39.0487 44.0632 39.0487C46.7337 39.0487 49.1129 39.6879 51.201 40.9663C53.3033 42.2305 54.951 43.9635 56.1442 46.1652C57.3516 48.3669 57.9553 50.8811 57.9553 53.7078C57.9553 56.4919 57.3303 58.9777 56.0803 61.1652C54.8445 63.3385 53.1399 65.0572 50.9666 66.3214C48.7933 67.5714 46.3217 68.1964 43.5518 68.1964Z" fill="white"/>
</svg>
