<svg width="88" height="140" viewBox="0 0 88 140" fill="none" xmlns="http://www.w3.org/2000/svg">
<circle cx="44.0008" cy="43.5999" r="43.2" fill="#4ABCAE"/>
<path d="M44.6072 68.5966C42.8175 68.5682 41.0277 68.2273 39.2379 67.5739C37.4482 66.9205 35.8146 65.8196 34.3374 64.2713C32.8601 62.7088 31.674 60.5994 30.7791 57.9432C29.8842 55.2727 29.4368 51.9205 29.4368 47.8864C29.4368 44.0227 29.799 40.5994 30.5234 37.6165C31.2479 34.6193 32.299 32.098 33.6768 30.0526C35.0547 27.9929 36.7166 26.4304 38.6626 25.3651C40.6229 24.2997 42.8317 23.767 45.2891 23.767C47.7322 23.767 49.9055 24.2571 51.8089 25.2372C53.7266 26.2031 55.2891 27.5526 56.4965 29.2855C57.7038 31.0185 58.4851 33.0142 58.8402 35.2727H53.6413C53.1584 33.3125 52.2209 31.6861 50.8288 30.3935C49.4368 29.1009 47.5902 28.4545 45.2891 28.4545C41.9084 28.4545 39.245 29.9247 37.299 32.8651C35.3672 35.8054 34.3942 39.9318 34.38 45.2443H34.7209C35.5163 44.0369 36.4609 43.0071 37.5547 42.1548C38.6626 41.2884 39.8842 40.6207 41.2195 40.152C42.5547 39.6832 43.968 39.4489 45.4595 39.4489C47.9595 39.4489 50.2464 40.0739 52.3203 41.3239C54.3942 42.5597 56.0561 44.2713 57.3061 46.4588C58.5561 48.6321 59.1811 51.125 59.1811 53.9375C59.1811 56.6364 58.5774 59.108 57.37 61.3523C56.1626 63.5824 54.4652 65.358 52.2777 66.679C50.1044 67.9858 47.5476 68.625 44.6072 68.5966ZM44.6072 63.9091C46.397 63.9091 48.0021 63.4616 49.4226 62.5668C50.8572 61.6719 51.9865 60.4716 52.8104 58.9659C53.6484 57.4602 54.0675 55.7841 54.0675 53.9375C54.0675 52.1335 53.6626 50.4929 52.853 49.0156C52.0575 47.5241 50.9567 46.3381 49.5504 45.4574C48.1584 44.5767 46.5675 44.1364 44.7777 44.1364C43.4283 44.1364 42.1712 44.4062 41.0064 44.946C39.8416 45.4716 38.8189 46.196 37.9382 47.1193C37.0717 48.0426 36.3899 49.1009 35.8928 50.294C35.3956 51.473 35.147 52.7159 35.147 54.0227C35.147 55.7557 35.5518 57.375 36.3615 58.8807C37.1854 60.3864 38.3075 61.6009 39.728 62.5241C41.1626 63.4474 42.7891 63.9091 44.6072 63.9091Z" fill="white"/>
</svg>
