<svg width="60" height="52" viewBox="0 0 60 52" fill="none" xmlns="http://www.w3.org/2000/svg">
<path fill-rule="evenodd" clip-rule="evenodd" d="M23.8238 43.6504L21.2738 48.7504H18.2367C17.5329 48.7504 16.9617 49.3216 16.9617 50.0254C16.9617 50.7292 17.5329 51.3004 18.2367 51.3004H41.1867C41.8905 51.3004 42.4617 50.7292 42.4617 50.0254C42.4617 49.3216 41.8905 48.7504 41.1867 48.7504H38.1497L35.5997 43.6504H55.2117C57.3244 43.6504 59.0367 41.9381 59.0367 39.8254C59.0367 32.4993 59.0367 11.4516 59.0367 4.12541C59.0367 2.01274 57.3244 0.300415 55.2117 0.300415H4.21172C2.09904 0.300415 0.386719 2.01274 0.386719 4.12541C0.386719 11.4516 0.386719 32.4993 0.386719 39.8254C0.386719 41.9381 2.09904 43.6504 4.21172 43.6504H23.8238ZM24.1247 48.7504H35.2988L32.7488 43.6504H26.6747L24.1247 48.7504ZM56.4867 36.0004V39.8254C56.4867 40.5292 55.9155 41.1004 55.2117 41.1004H4.21172C3.50792 41.1004 2.93672 40.5292 2.93672 39.8254V36.0004H56.4867ZM17.6681 26.5068C19.5206 24.8059 22.5794 23.2504 25.5272 23.2504H26.4872C26.0129 22.9584 25.5718 22.6014 25.1778 22.1845C24.0023 20.9376 23.3367 19.2495 23.3367 17.4874V12.0814C23.3367 10.3181 24.0023 8.62999 25.1778 7.38431C26.3801 6.11059 28.0121 5.40041 29.7117 5.40041C31.4113 5.40041 33.0433 6.11059 34.2456 7.38431C35.4212 8.62999 36.0867 10.3181 36.0867 12.0814V17.4874C36.0867 19.2495 35.4212 20.9376 34.2456 22.1845C33.8516 22.6014 33.4105 22.9584 32.9362 23.2504H33.8963C36.8441 23.2504 39.6707 24.4221 41.7554 26.5068C43.6232 28.3734 44.758 30.8379 44.9735 33.4504H42.412C42.2042 31.515 41.3423 29.6981 39.9525 28.3096C38.7438 27.1009 37.21 26.29 35.5576 25.9636C34.9469 28.8107 32.5817 30.9004 29.8201 30.9004C27.0457 30.9004 24.6716 28.7916 24.0737 25.9241C22.3409 26.2237 20.7306 27.0499 19.4709 28.3096C18.0812 29.6981 17.2193 31.515 17.0114 33.4504C17.0114 33.4504 14.5532 33.4568 14.4117 33.4504C14.4959 31.7993 15.8142 28.2063 17.6681 26.5068ZM36.0867 33.4504V32.1958C36.0867 31.492 36.6579 30.9208 37.3617 30.9208C38.0655 30.9208 38.6367 31.492 38.6367 32.1958V33.4504H36.0867ZM20.7867 33.4504V32.1958C20.7867 31.492 21.3579 30.9208 22.0617 30.9208C22.7655 30.9208 23.3367 31.492 23.3367 32.1958V33.4504H20.7867ZM32.9668 25.8004C32.5103 27.2718 31.2953 28.3504 29.8201 28.3504C28.3436 28.3504 27.1286 27.2718 26.6721 25.8004H32.9668ZM33.5367 13.4418C32.824 13.2506 31.9799 13.0173 31.4011 12.7508C29.5868 13.7925 27.9191 14.2617 25.8867 14.1036V17.4874C25.8867 18.5916 26.296 19.6536 27.0329 20.4339C27.7444 21.1875 28.7057 21.6171 29.7117 21.6171C30.7177 21.6171 31.679 21.1875 32.3905 20.4339C33.1274 19.6536 33.5367 18.5916 33.5367 17.4874V13.4418ZM47.5617 13.0504H52.6617C53.3655 13.0504 53.9367 12.4792 53.9367 11.7754C53.9367 11.0716 53.3655 10.5004 52.6617 10.5004H47.5617C46.8579 10.5004 46.2867 11.0716 46.2867 11.7754C46.2867 12.4792 46.8579 13.0504 47.5617 13.0504ZM9.31172 5.40041C7.20032 5.40041 5.48672 7.11402 5.48672 9.22542C5.48672 11.3368 7.20032 13.0504 9.31172 13.0504C11.4231 13.0504 13.1367 11.3368 13.1367 9.22542C13.1367 7.11402 11.4231 5.40041 9.31172 5.40041ZM33.3378 10.7682C33.1491 10.1574 32.8265 9.59644 32.3905 9.13362C31.679 8.38009 30.7177 7.95041 29.7117 7.95041C28.7057 7.95041 27.7444 8.38009 27.0329 9.13362C26.4158 9.78769 26.0295 10.6368 25.9186 11.5434C27.6947 11.704 29.0895 11.2182 30.6947 10.1982C31.1129 9.93304 31.6459 9.93304 32.0628 10.1982C32.1737 10.2684 32.2872 10.3372 32.402 10.4035C32.6378 10.5399 32.9744 10.6598 33.3378 10.7682ZM43.7367 7.95041H52.6617C53.3655 7.95041 53.9367 7.37921 53.9367 6.67542C53.9367 5.97161 53.3655 5.40041 52.6617 5.40041H43.7367C43.0329 5.40041 42.4617 5.97161 42.4617 6.67542C42.4617 7.37921 43.0329 7.95041 43.7367 7.95041Z" fill="#2B95ED"/>
</svg>
