<svg width="59" height="57" viewBox="0 0 59 57" fill="none" xmlns="http://www.w3.org/2000/svg">
<g clip-path="url(#clip0_1_1433)">
<path d="M46.1294 0.300537H12.6441C5.87451 0.300537 0.386719 5.59907 0.386719 12.1352V44.4658C0.386719 51.0019 5.87451 56.3006 12.6441 56.3006H46.1294C52.8989 56.3006 58.3867 51.0019 58.3867 44.4658V12.1352C58.3867 5.59907 52.8989 0.300537 46.1294 0.300537Z" fill="#2B95ED"/>
<path fill-rule="evenodd" clip-rule="evenodd" d="M17.637 12.2899C17.5463 12.2913 17.4568 12.3099 17.3736 12.3447C17.2904 12.3794 17.2151 12.4298 17.152 12.4927C17.0889 12.5556 17.0393 12.6298 17.0059 12.7113C16.9725 12.7927 16.9561 12.8797 16.9576 12.9672V17.6886H13.5618C12.3963 17.6886 11.4338 18.6112 11.4338 19.7352V37.634H9.36235C9.17923 37.634 9.0036 37.7041 8.87411 37.8291C8.74462 37.9541 8.67188 38.1238 8.67188 38.3006C8.67188 40.8686 10.7985 42.9673 13.4265 42.9673H45.3458C47.9752 42.9673 50.1004 40.8686 50.1004 38.3006C50.1004 38.1238 50.0277 37.9541 49.8982 37.8291C49.7687 37.7041 49.5931 37.634 49.41 37.634H47.3385V19.7352C47.3385 18.6112 46.376 17.6886 45.2105 17.6886H40.4338V12.9685C40.4338 12.7917 40.361 12.6222 40.2315 12.4972C40.1021 12.3721 39.9264 12.3018 39.7433 12.3018H36.9814C36.7983 12.3018 36.6227 12.3721 36.4932 12.4972C36.3637 12.6222 36.2909 12.7917 36.2909 12.9685V17.6886H29.3862V15.6352C29.3862 15.4584 29.3134 15.2888 29.1839 15.1638C29.0544 15.0388 28.8788 14.9685 28.6957 14.9685H25.9338C25.7507 14.9685 25.575 15.0388 25.4455 15.1638C25.3161 15.2888 25.2433 15.4584 25.2433 15.6352V17.6886H18.3385V12.9685C18.3402 12.8791 18.3232 12.7902 18.2886 12.7072C18.254 12.6242 18.2024 12.5488 18.1369 12.4855C18.0714 12.4222 17.9934 12.3722 17.9076 12.3386C17.8217 12.305 17.7297 12.2884 17.637 12.2899ZM37.6719 13.6339H39.0528V29.6165H37.6719V13.6339ZM26.6243 16.3005H28.0052V29.6165H26.6243V16.3005ZM13.5618 19.0218H16.9576V20.3019H14.8862C14.703 20.3019 14.5274 20.3721 14.3979 20.4971C14.2684 20.6221 14.1957 20.7918 14.1957 20.9686V35.6353C14.1957 35.8121 14.2684 35.9816 14.3979 36.1066C14.5274 36.2316 14.703 36.3019 14.8862 36.3019H43.8862C44.0693 36.3019 44.2449 36.2316 44.3744 36.1066C44.5039 35.9816 44.5766 35.8121 44.5766 35.6353V20.9686C44.5766 20.7918 44.5039 20.6221 44.3744 20.4971C44.2449 20.3721 44.0693 20.3019 43.8862 20.3019H40.4338V19.0218H45.2105C45.6386 19.0218 45.9576 19.3312 45.9576 19.7352V37.634H12.8147V19.7352C12.8147 19.3312 13.1324 19.0218 13.5618 19.0218ZM18.3385 19.0218H25.2433V20.3019H18.3385V19.0218ZM29.3862 19.0218H36.2909V20.3019H29.3862V19.0218ZM15.5766 21.6353H16.9576V30.3019C16.9576 30.4787 17.0303 30.6483 17.1598 30.7733C17.2893 30.8983 17.4649 30.9686 17.6481 30.9686H41.1243C41.3074 30.9686 41.483 30.8983 41.6125 30.7733C41.742 30.6483 41.8147 30.4787 41.8147 30.3019C41.8147 30.1251 41.742 29.9554 41.6125 29.8304C41.483 29.7054 41.3074 29.6353 41.1243 29.6353H40.4338V21.6353H43.1957V34.9686H15.5766V21.6353ZM18.3385 21.6353H25.2433V29.6353H23.8624V24.9499C23.8624 24.7731 23.7896 24.6035 23.6601 24.4785C23.5306 24.3535 23.355 24.2832 23.1719 24.2832H20.41C20.2268 24.2832 20.0512 24.3535 19.9217 24.4785C19.7922 24.6035 19.7195 24.7731 19.7195 24.9499V29.634H18.3385V21.6353ZM29.3862 21.6353H36.2909V29.6353H34.91V23.6353C34.91 23.4584 34.8372 23.2888 34.7077 23.1637C34.5782 23.0387 34.4026 22.9686 34.2195 22.9686H31.4576C31.2745 22.9686 31.0988 23.0387 30.9694 23.1637C30.8399 23.2888 30.7671 23.4584 30.7671 23.6353V29.6353H29.3862V21.6353ZM32.1481 24.3019H33.529V29.6165H32.1481V24.3019ZM21.1004 25.6165H22.4814V29.6165H21.1004V25.6165ZM10.3304 38.9673H25.0168V39.3405C25.0168 40.2645 25.7971 41.0459 26.7596 41.0459H32.0127C32.9753 41.0459 33.7555 40.2645 33.7555 39.3392V38.9673H48.4433C48.0981 40.4553 46.9574 41.634 45.3472 41.634H13.4265C11.8163 41.634 10.6743 40.4553 10.3304 38.9673ZM26.3978 38.9673H32.3745V39.3405C32.3745 39.5672 32.2157 39.7126 32.0127 39.7126H26.7596C26.5566 39.7126 26.3978 39.5659 26.3978 39.3392V38.9673Z" fill="white"/>
</g>
<defs>
<clipPath id="clip0_1_1433">
<rect width="58" height="56" fill="white" transform="translate(0.386719 0.300537)"/>
</clipPath>
</defs>
</svg>
