<svg width="69" height="57" viewBox="0 0 69 57" fill="none" xmlns="http://www.w3.org/2000/svg">
<path d="M24.6724 9.63375H44.101V4.96708H24.6724V9.63375ZM68.3867 32.9671V50.4671C68.3867 52.0712 67.7922 53.4445 66.6032 54.5869C65.4142 55.7292 63.9849 56.3004 62.3153 56.3004H6.45815C4.7885 56.3004 3.35919 55.7292 2.1702 54.5869C0.981213 53.4445 0.386719 52.0712 0.386719 50.4671V32.9671H25.8867V38.8004C25.8867 39.4324 26.127 39.9792 26.6077 40.441C27.0884 40.9028 27.6576 41.1337 28.3153 41.1337H40.4581C41.1159 41.1337 41.6851 40.9028 42.1657 40.441C42.6464 39.9792 42.8867 39.4324 42.8867 38.8004V32.9671H68.3867ZM39.2439 32.9671V37.6337H29.5296V32.9671H39.2439ZM68.3867 15.4671V29.4671H0.386719V15.4671C0.386719 13.8629 0.981213 12.4897 2.1702 11.3473C3.35919 10.2049 4.7885 9.63375 6.45815 9.63375H19.8153V3.80042C19.8153 2.82819 20.1695 2.0018 20.8778 1.32125C21.5861 0.640693 22.4462 0.300415 23.4581 0.300415H45.3153C46.3272 0.300415 47.1873 0.640693 47.8956 1.32125C48.604 2.0018 48.9581 2.82819 48.9581 3.80042V9.63375H62.3153C63.9849 9.63375 65.4142 10.2049 66.6032 11.3473C67.7922 12.4897 68.3867 13.8629 68.3867 15.4671Z" fill="#2B95ED"/>
</svg>
