<svg width="70" height="70" viewBox="0 0 70 70" fill="none" xmlns="http://www.w3.org/2000/svg">
<path d="M60.6858 16.0793C60.3359 16.4047 59.8515 16.6 59.3268 16.6H51.2401C50.327 16.5986 49.4517 16.2471 48.806 15.6223C48.1603 14.9976 47.797 14.1507 47.7956 13.2672V5.39078C47.7956 4.90908 47.9839 4.45342 48.2934 4.11493H13.2154C11.8295 4.11493 10.6992 5.20851 10.6992 6.54946V63.0513C10.6992 64.3923 11.8295 65.4859 13.2154 65.4859H58.1831C59.569 65.4859 60.6992 64.3923 60.6992 63.0383V16.2225C60.6992 16.1704 60.6992 16.1313 60.6858 16.0793ZM22.5937 21.0785C22.6206 20.8832 22.6475 20.701 22.6879 20.5057C22.7283 20.2453 22.7686 19.9979 22.8225 19.7376C22.8763 19.5032 22.9436 19.2559 23.0108 19.0215C23.0647 18.8393 23.1185 18.657 23.1858 18.4747C23.28 18.2013 23.3741 17.941 23.4818 17.6806C23.5356 17.5504 23.6029 17.4202 23.6567 17.29C23.7913 17.0036 23.9258 16.7172 24.0738 16.4438C24.1276 16.3657 24.1815 16.2876 24.2218 16.2095C24.7374 15.3174 25.3657 14.4909 26.0921 13.7489C26.2132 13.6187 26.3343 13.4885 26.4554 13.3713L26.9802 12.9027C27.182 12.7464 27.3704 12.5902 27.5722 12.434C27.6529 12.3689 27.7202 12.3038 27.8144 12.2387C27.8413 12.2127 27.8682 12.2127 27.8951 12.1996C29.2386 11.2366 30.7592 10.5297 32.3758 10.1166C32.4161 10.1036 32.4296 10.0776 32.4565 10.0776C32.5507 10.0515 32.6314 10.0515 32.7256 10.0255C33.062 9.94738 33.4118 9.88229 33.7616 9.83021C33.9097 9.81719 34.0711 9.77814 34.2326 9.76512C34.7304 9.71304 35.2417 9.67399 35.753 9.67399C36.2778 9.67399 36.7756 9.71304 37.2869 9.76512C37.4484 9.77814 37.5964 9.81719 37.7579 9.83021C38.1077 9.88229 38.4441 9.94738 38.7805 10.0255C38.8747 10.0515 38.9689 10.0515 39.0496 10.0776C39.0765 10.0776 39.1034 10.1036 39.1303 10.1166C40.7719 10.5332 42.2923 11.2493 43.611 12.1996C43.6513 12.2127 43.6782 12.2127 43.7051 12.2387L43.9473 12.434C44.1492 12.5902 44.3375 12.7464 44.5259 12.9027L45.0507 13.3713C45.1718 13.4885 45.2929 13.6187 45.414 13.7489C46.1405 14.491 46.7729 15.3242 47.2843 16.2095C47.3381 16.2876 47.3919 16.3657 47.4323 16.4438C47.5803 16.7172 47.7283 17.0036 47.8494 17.29C48.0298 17.6773 48.191 18.0726 48.3324 18.4747L48.4939 19.0215C48.5612 19.2559 48.6311 19.5032 48.685 19.7376C48.7522 19.9979 48.7899 20.2453 48.8316 20.5057C48.8585 20.701 48.8989 20.8832 48.9123 21.0785C48.9662 21.5342 49.0065 22.0029 49.0065 22.4846C49.0065 25.5179 47.8897 28.4732 45.858 30.7906C44.6113 32.2057 43.0624 33.3423 41.3178 34.1222C39.5733 34.9021 37.6748 35.3067 35.753 35.3081C31.8644 35.3081 28.1777 33.6547 25.6615 30.7906C24.4957 29.4579 23.6225 27.9096 23.0951 26.2399C22.5676 24.5702 22.3971 22.8141 22.5937 21.0785ZM54.1774 58.8202H17.3354C17.157 58.8202 16.9858 58.7516 16.8597 58.6296C16.7335 58.5075 16.6626 58.3419 16.6626 58.1693C16.6626 57.9966 16.7335 57.8311 16.8597 57.709C16.9858 57.5869 17.157 57.5183 17.3354 57.5183H54.1761C54.3545 57.5183 54.5256 57.5869 54.6518 57.709C54.778 57.8311 54.8488 57.9966 54.8488 58.1693C54.8488 58.3419 54.778 58.5075 54.6518 58.6296C54.5256 58.7516 54.3545 58.8202 54.1761 58.8202M54.1761 52.9266H17.3354C17.157 52.9266 16.9858 52.858 16.8597 52.7359C16.7335 52.6138 16.6626 52.4483 16.6626 52.2756C16.6626 52.103 16.7335 51.9374 16.8597 51.8153C16.9858 51.6933 17.157 51.6247 17.3354 51.6247H54.1761C54.3545 51.6247 54.5256 51.6933 54.6518 51.8153C54.778 51.9374 54.8488 52.103 54.8488 52.2756C54.8488 52.4483 54.778 52.6138 54.6518 52.7359C54.5256 52.858 54.3545 52.9266 54.1761 52.9266ZM54.1761 47.029H17.3354C17.157 47.029 16.9858 46.9604 16.8597 46.8384C16.7335 46.7163 16.6626 46.5507 16.6626 46.3781C16.6626 46.2054 16.7335 46.0399 16.8597 45.9178C16.9858 45.7957 17.157 45.7271 17.3354 45.7271H54.1761C54.3545 45.7271 54.5256 45.7957 54.6518 45.9178C54.778 46.0399 54.8488 46.2054 54.8488 46.3781C54.8488 46.5507 54.778 46.7163 54.6518 46.8384C54.5256 46.9604 54.3545 47.029 54.1761 47.029ZM54.1761 41.1341H17.3354C17.157 41.1341 16.9858 41.0655 16.8597 40.9434C16.7335 40.8213 16.6626 40.6558 16.6626 40.4831C16.6626 40.3105 16.7335 40.1449 16.8597 40.0229C16.9858 39.9008 17.157 39.8322 17.3354 39.8322H54.1761C54.3545 39.8322 54.5256 39.9008 54.6518 40.0229C54.778 40.1449 54.8488 40.3105 54.8488 40.4831C54.8488 40.6558 54.778 40.8213 54.6518 40.9434C54.5256 41.0655 54.3545 41.1341 54.1761 41.1341Z" fill="#2B95ED"/>
<path d="M34.1073 25.9085C34.3938 25.9606 34.6672 25.9736 34.9536 25.9736C36.3935 25.9731 37.7745 25.402 38.7941 24.3853C40.0179 23.1485 40.5777 21.4431 40.3043 19.6985C39.9658 17.3942 38.1041 15.5325 35.7998 15.181C34.9486 15.0413 34.0764 15.1079 33.2563 15.3752C32.4362 15.6425 31.6923 16.1027 31.087 16.7172C29.8502 17.967 29.3034 19.6855 29.5768 21.4431C29.9543 23.7344 31.816 25.5831 34.1073 25.9085Z" fill="#2B95ED"/>
<path d="M34.9401 32.7044C37.9474 32.7044 40.7855 31.3895 42.7384 29.0981C43.142 28.6164 43.5065 28.0957 43.8189 27.5359C42.9336 26.2298 41.607 25.2869 40.0825 24.88C39.9784 25.0232 39.8482 25.1664 39.718 25.2966C38.4548 26.5618 36.7409 27.2736 34.9531 27.2755C34.6667 27.2755 34.2891 27.2625 33.8725 27.1844C32.2582 26.963 30.8131 26.1038 29.7846 24.88C28.2642 25.2883 26.9449 26.2373 26.0742 27.5489C26.3867 28.0957 26.7512 28.6164 27.1548 29.0981C28.1136 30.2275 29.3064 31.135 30.6507 31.7577C31.995 32.3804 33.4586 32.7034 34.9401 32.7044ZM49.9222 15.2942H57.753C57.9257 15.2942 58.0912 15.2257 58.2133 15.1036C58.3354 14.9815 58.404 14.8159 58.404 14.6433L48.5487 4.74374C48.376 4.74374 48.2105 4.81233 48.0884 4.9344C47.9663 5.05648 47.8977 5.22205 47.8977 5.39469V13.2711C47.8977 14.3868 48.8078 15.2942 49.9222 15.2942Z" fill="#2B95ED"/>
</svg>
