<svg width="89" height="90" viewBox="0 0 89 90" fill="none" xmlns="http://www.w3.org/2000/svg">
<g clip-path="url(#clip0_1_1429)">
<path d="M46.3423 59.4091L46.3637 59.4319L39.197 66.1133C39.0192 66.2878 38.7902 66.4027 38.5358 66.4449C38.2813 66.4872 38.0114 66.4553 37.7564 66.3527C37.5204 66.2566 37.3035 66.1084 37.1232 65.9199C36.9103 65.6904 36.7648 65.4087 36.7066 65.1128L35.8392 60.9211L31.4562 59.5573C31.1798 59.4723 30.9238 59.3115 30.7188 59.094C30.5462 58.9112 30.4187 58.6918 30.3485 58.4574C30.2603 58.1946 30.2425 57.9211 30.297 57.6665C30.3515 57.4118 30.4762 57.1856 30.6577 57.0121L37.8445 50.3118C38.0772 51.155 38.4739 51.9621 39.0101 52.6836C39.2413 53.0435 39.5078 53.3816 39.8049 53.692C40.3767 54.2939 41.0352 54.8047 41.7518 55.2023C42.1395 55.9824 42.6427 56.7093 43.242 57.3552C43.4341 57.56 43.6677 57.7687 44.008 58.0911C44.7224 58.6519 45.5116 59.0976 46.3423 59.4091ZM55.5443 55.1391C55.093 55.5718 54.5306 55.8749 53.9049 56.0225C53.2792 56.1702 52.6086 56.1581 51.95 55.9873C51.7411 55.9316 51.5282 55.9208 51.3258 55.9556C51.1234 55.9905 50.9362 56.0702 50.7771 56.1894C50.2881 56.5714 49.6991 56.8157 49.0607 56.9013C48.4135 56.9864 47.7353 56.9017 47.0888 56.6551C46.5713 56.464 46.0802 56.1863 45.6378 55.8346C44.9328 55.2062 44.3879 54.4163 44.061 53.5491C43.8442 53.278 43.5851 53.0429 43.2962 52.8549C42.5322 52.5239 41.8638 51.967 41.3882 51.2652C41.0479 50.8154 40.794 50.3115 40.6417 49.7837C40.4367 49.1229 40.3953 48.4406 40.5215 47.8001C40.6475 47.1685 40.9288 46.5963 41.3412 46.1326C41.4702 45.9814 41.5617 45.7997 41.6094 45.5999C41.657 45.4001 41.6598 45.1869 41.6175 44.9749C41.4856 44.3049 41.5125 43.6323 41.6958 43.0135C41.8791 42.3947 42.2134 41.8477 42.6709 41.4185C43.1283 40.9893 43.6954 40.6905 44.3246 40.5469C44.9538 40.4034 45.6268 40.4194 46.2871 40.5936C46.4959 40.6494 46.7089 40.6602 46.9113 40.6253C47.1137 40.5904 47.3009 40.5107 47.46 40.3916C48.2373 39.806 49.2405 39.5625 50.2736 39.7088C51.3066 39.8551 52.2953 40.3805 53.0464 41.1824C53.4841 41.6441 53.825 42.1867 54.0443 42.7704C54.2767 43.1455 54.5917 43.4675 54.961 43.7071C55.5866 44.0019 56.1515 44.4349 56.609 44.9703C57.0666 45.5057 57.4037 46.1282 57.5927 46.7865C57.7817 47.4449 57.817 48.1202 57.6959 48.7569C57.5747 49.3935 57.3005 49.9733 56.8959 50.4483C56.7669 50.5996 56.6754 50.7813 56.6277 50.9811C56.58 51.1808 56.5773 51.394 56.6196 51.606C56.7504 52.2744 56.7209 52.9451 56.5336 53.5605C56.3463 54.176 56.0068 54.7177 55.5443 55.1391ZM52.641 52.0447C53.3028 51.428 53.7425 50.6032 53.9044 49.6749C54.0664 48.7465 53.9432 47.7565 53.5505 46.8302C53.1579 45.904 52.5134 45.0832 51.6989 44.472C50.8843 43.8607 49.9363 43.4866 48.9751 43.397C48.0139 43.3073 47.0827 43.5062 46.2996 43.9684C45.5165 44.4307 44.9167 45.1354 44.5764 45.9933C44.236 46.8512 44.1704 47.8236 44.3878 48.7874C44.6052 49.7511 45.0958 50.6626 45.7975 51.4065C46.7324 52.4008 47.9779 53.0264 49.2609 53.146C50.5438 53.2657 51.7594 52.8696 52.641 52.0447ZM68.3773 64.0365C69.5626 64.2461 70.7478 64.2 71.8527 63.9015C72.9576 63.603 73.9563 63.059 74.7811 62.3063C78.227 59.0732 79.0814 55.3451 76.9125 53.0334L65.4207 40.7855C64.5423 43.4069 62.8341 45.584 60.5343 47.0131C60.9023 48.8349 60.562 50.6433 59.586 52.0529C59.6627 52.8782 59.5941 53.6929 59.3835 54.459L68.3773 64.0365ZM56.4991 41.357C57.6349 42.0114 58.612 42.9413 59.3286 44.0501C60.5228 43.2095 61.4802 42.0843 62.1303 40.7576C62.7805 39.4308 63.1067 37.9363 63.085 36.3842L57.2356 30.1499C56.5713 33.0633 55.2719 35.7211 53.425 37.9436C54.7446 38.7674 55.8207 39.9624 56.4991 41.357ZM54.39 29.0249L44.6488 18.6428C44.6576 18.8014 44.6911 18.9582 44.6958 19.1164C44.754 20.4362 44.5486 21.722 44.0918 22.8979C43.635 24.0738 42.9361 25.1159 42.0363 25.9628L42.0222 25.976C40.2433 27.6852 37.867 28.6653 35.2769 28.7581L43.6134 37.6431C44.3904 37.4837 45.206 37.467 46.0233 37.5938C47.253 36.8436 48.7435 36.5524 50.2676 36.7647C52.3286 34.6711 53.75 32.0036 54.39 29.0249ZM31.2093 24.326C31.219 24.454 31.2651 24.581 31.3421 24.6917C31.4191 24.8024 31.5237 24.892 31.6432 24.9499C32.8361 25.5991 34.1496 25.9048 35.4232 25.8296C36.6969 25.7545 37.8756 25.3017 38.8155 24.5267L34.5639 20.0276C31.2394 22.5308 31.18 24.0326 31.2073 24.3279L31.2093 24.326ZM40.9579 38.8426L29.9764 27.1385C29.5037 26.7954 29.1047 26.3541 28.8115 25.8504C28.5183 25.3466 28.3392 24.7944 28.2886 24.2384C28.0754 21.9057 29.8965 19.4055 33.7046 16.8166C33.9798 16.6294 34.3254 16.5575 34.678 16.614C35.0306 16.6705 35.3667 16.8517 35.6245 17.1244L40.8195 22.6208C41.4888 21.5064 41.8145 20.1881 41.7605 18.8115C41.793 17.1392 41.2609 15.4354 40.2496 13.9742C37.2373 10.7638 32.4528 11.6464 27.4511 16.3393C25.6578 17.9487 24.508 20.1708 24.175 22.6703C23.842 25.1698 24.344 27.8112 25.6051 30.196L38.6275 44.0753C38.579 43.1247 38.7226 42.1976 39.0497 41.3502C39.3767 40.5028 39.8805 39.7527 40.5304 39.1453C40.6718 39.0298 40.8246 38.9506 40.9559 38.8445L40.9579 38.8426ZM63.5165 62.8856L58.0194 57.0267C57.8946 57.1438 57.8165 57.3026 57.6897 57.4216C57.0411 58.0295 56.2601 58.4827 55.3936 58.7537C54.5272 59.0247 53.5933 59.108 52.6484 58.9986L62.8165 69.8358C62.9532 69.98 63.1269 70.082 63.3125 70.1269C63.4981 70.1718 63.6859 70.1573 63.8487 70.0855C64.0115 70.0138 64.1409 69.8884 64.2182 69.7277C64.2954 69.567 64.3165 69.3792 64.2784 69.1915C63.8384 67.2341 62.8994 64.4101 63.5145 62.8875L63.5165 62.8856ZM50.4288 47.0611C50.0608 46.6688 49.57 46.422 49.0644 46.3748C48.5589 46.3277 48.0799 46.4841 47.7329 46.8096C47.3859 47.1352 47.1994 47.6032 47.2142 48.1108C47.2291 48.6184 47.4442 49.1239 47.8123 49.5161C48.1803 49.9083 48.6711 50.1552 49.1766 50.2023C49.6822 50.2495 50.1612 50.0931 50.5082 49.7675C50.8552 49.442 51.0417 48.9739 51.0269 48.4664C51.012 47.9588 50.7969 47.4533 50.4288 47.0611Z" fill="#2B95ED"/>
</g>
<defs>
<clipPath id="clip0_1_1429">
<rect width="78" height="47.9452" fill="white" transform="translate(35.3513 0.300537) rotate(46.8244)"/>
</clipPath>
</defs>
</svg>
